<svg width="200" height="111" viewBox="0 0 200 111" fill="none" xmlns="http://www.w3.org/2000/svg">
<g clip-path="url(#clip0_4_11321)">
<path d="M183.872 62.7315C188.824 62.7315 192.838 57.8427 192.838 51.8121C192.838 45.7816 188.824 40.8928 183.872 40.8928C178.92 40.8928 174.905 45.7816 174.905 51.8121C174.905 57.8427 178.92 62.7315 183.872 62.7315Z" fill="#F2F2F2"/>
<path d="M183.872 54.6856C185.175 54.6856 186.231 53.3991 186.231 51.8121C186.231 50.2251 185.175 48.9386 183.872 48.9386C182.569 48.9386 181.512 50.2251 181.512 51.8121C181.512 53.3991 182.569 54.6856 183.872 54.6856Z" fill="#E6E6E6"/>
<path d="M183.441 51.8735C184.434 52.861 184.737 54.4173 184.552 55.9201C184.325 57.5684 183.623 59.0641 182.572 60.1386C181.39 61.418 179.948 62.2825 178.557 63.1678C177.279 63.9622 176.051 64.8702 174.882 65.8846C170.408 69.8445 167.028 75.483 165.094 81.7751C163.163 88.0565 162.645 95.1862 164.112 101.696C164.838 104.917 166.307 108.392 169.043 109.604C171.224 110.571 174.202 109.948 175.313 107.211C176.506 104.27 174.841 100.964 172.697 99.5046C169.918 97.6122 166.598 98.995 164.099 100.911C161.347 103.019 159.135 106.046 156.261 107.936C154.968 108.813 153.529 109.325 152.051 109.432C150.694 109.497 149.339 109.242 148.061 108.681C145.41 107.505 143.128 105.347 141.534 102.511C139.709 99.2804 138.893 95.3202 138.744 91.4409C138.41 82.7611 141.226 74.641 143.485 66.5916C144.699 62.3999 145.608 58.0866 146.203 53.7011C146.768 49.2935 146.969 44.8279 146.803 40.3714C146.654 36.4308 146.335 32.3101 144.907 28.7111C143.651 25.5464 141.356 22.9563 138.454 22.3032C137.146 21.9906 135.791 22.1802 134.575 22.8459C134.161 23.0758 134.52 23.819 134.932 23.5902C137.5 22.1637 140.535 23.5517 142.432 25.8551C144.647 28.5448 145.46 32.5169 145.821 36.1821C146.633 44.8681 145.993 53.6643 143.941 62.0416C141.972 70.1886 138.874 77.9956 138.159 86.5313C137.833 90.4262 138 94.4527 139.022 98.1876C139.899 101.514 141.544 104.464 143.76 106.683C145.846 108.737 148.413 110.137 151.115 110.293C154.148 110.468 156.808 108.821 159.161 106.63C161.681 104.284 164 101.39 167.053 100.074C168.445 99.4744 170.03 99.1946 171.459 99.7718C172.685 100.282 173.725 101.3 174.397 102.649C175.018 103.906 175.247 105.477 174.68 106.827C174.148 108.097 173.108 108.831 171.983 109.082C170.792 109.339 169.564 109.085 168.509 108.363C167.276 107.506 166.374 106.067 165.743 104.547C164.482 101.516 164.059 97.907 163.995 94.5423C163.939 91.2557 164.284 87.9772 165.021 84.8146C166.486 78.417 169.444 72.6746 173.536 68.2836C174.567 67.19 175.67 66.2012 176.834 65.3271C178.103 64.3742 179.458 63.6129 180.752 62.7138C182.026 61.8291 183.28 60.7721 184.157 59.3163C184.905 58.0687 185.309 56.5647 185.311 55.0202C185.324 54.3099 185.208 53.6048 184.971 52.9554C184.734 52.306 184.383 51.7284 183.941 51.264C183.591 50.9161 183.087 51.5225 183.441 51.8735Z" fill="#CCCCCC"/>
<path d="M99.7349 102.098C102.87 104.566 106.497 105.951 110.228 106.104C110.161 106.296 110.086 106.484 110.004 106.667C109.569 107.644 108.956 108.484 108.21 109.124C107.328 109.88 106.292 110.327 105.215 110.415C104.139 110.504 103.063 110.23 102.105 109.625C101.148 109.019 100.345 108.105 99.7845 106.982C99.2242 105.859 98.9279 104.57 98.9279 103.256V102.098H99.7349Z" fill="#212529"/>
<path d="M121.742 102.438V103.256C121.743 104.851 121.307 106.4 120.504 107.659C119.701 108.918 118.576 109.816 117.308 110.209C116.039 110.603 114.699 110.471 113.499 109.834C112.299 109.196 111.307 108.09 110.681 106.69C110.595 106.503 110.517 106.31 110.447 106.113C110.619 106.118 110.789 106.121 110.962 106.121C114.765 106.127 118.496 104.852 121.742 102.438Z" fill="#212529"/>
<path d="M129.68 15.8359C129.503 15.8043 129.324 15.7841 129.144 15.7698C131.182 21.4889 131.323 27.9464 129.538 33.7895C129.718 33.7637 129.895 33.7292 130.072 33.6889C131.8 33.2812 133.353 32.1399 134.455 30.4682C135.556 28.7966 136.135 26.703 136.088 24.5603C136.041 22.4175 135.371 20.3646 134.198 18.7669C133.024 17.1693 131.423 16.1307 129.68 15.8359Z" fill="#212529"/>
<path d="M92.7789 15.7698C92.5997 15.7841 92.4203 15.8043 92.2433 15.8359C90.4999 16.1306 88.8989 17.1693 87.7255 18.7669C86.552 20.3646 85.8821 22.4175 85.8351 24.5602C85.7881 26.703 86.367 28.7966 87.4687 30.4682C88.5705 32.1399 90.1236 33.2812 91.8516 33.6889C92.0286 33.7292 92.2055 33.7637 92.3849 33.7895C90.6 27.9464 90.7412 21.4889 92.7789 15.7698Z" fill="#212529"/>
<path d="M129.68 15.8358C127.736 10.1808 124.136 5.60751 119.578 3.00458C115.02 0.401645 109.83 -0.0451179 105.017 1.75108C100.204 3.54729 96.111 7.4582 93.5332 12.724C90.9554 17.9899 90.077 24.2346 91.0685 30.2451C92.0601 36.2556 94.8508 41.6026 98.8985 45.2475C102.946 48.8923 107.962 50.5746 112.971 49.9676C117.981 49.3607 122.626 46.5077 126.005 41.963C129.383 37.4184 131.254 31.5065 131.254 25.3759C131.253 22.1004 130.718 18.8577 129.68 15.8358ZM129.538 33.7895C127.812 39.4399 124.412 44.0989 120.007 46.8495C115.602 49.6001 110.511 50.243 105.736 48.6517C100.961 47.0604 96.848 43.3502 94.2067 38.2514C91.5653 33.1525 90.5868 27.0342 91.4637 21.1008C92.3407 15.1674 95.0095 9.84862 98.945 6.1913C102.88 2.53398 107.797 0.803053 112.728 1.33918C117.659 1.87532 122.247 4.63967 125.588 9.08818C128.929 13.5367 130.782 19.3471 130.782 25.3759C130.781 28.2481 130.36 31.0972 129.538 33.7895Z" fill="#212529"/>
<path d="M121.344 19.7726H100.58C99.4845 19.7726 98.4342 20.3024 97.6598 21.2454C96.8854 22.1885 96.4504 23.4675 96.4504 24.8012C96.4504 26.1349 96.8854 27.4139 97.6598 28.357C98.4342 29.3 99.4845 29.8298 100.58 29.8298H121.344C122.439 29.8298 123.489 29.3 124.263 28.357C125.038 27.4139 125.473 26.1349 125.473 24.8012C125.473 23.4675 125.038 22.1885 124.263 21.2454C123.489 20.3024 122.439 19.7726 121.344 19.7726Z" fill="#212529"/>
<path d="M110.962 54.973C105.414 54.9761 100.088 57.6226 96.1227 62.3464C92.157 67.0702 89.8667 73.4963 89.7415 80.2501C89.6164 87.004 91.6663 93.5494 95.4529 98.4862C99.2395 103.423 104.462 106.36 110.004 106.667C110.228 106.682 110.454 106.69 110.681 106.69C110.775 106.696 110.867 106.696 110.962 106.696C116.594 106.696 121.995 103.971 125.978 99.1214C129.96 94.2714 132.198 87.6935 132.198 80.8345C132.198 73.9756 129.96 67.3977 125.978 62.5477C121.995 57.6977 116.594 54.973 110.962 54.973ZM121.742 102.438C118.496 104.852 114.765 106.127 110.962 106.121C110.789 106.121 110.619 106.119 110.447 106.113C110.374 106.113 110.301 106.11 110.228 106.104C105.242 105.893 100.484 103.504 96.8255 99.3735C93.1666 95.243 90.8503 89.6469 90.3002 83.6081C89.75 77.5693 91.0025 71.491 93.829 66.4841C96.6554 61.4773 100.867 57.8763 105.694 56.3393C110.521 54.8023 115.641 55.4319 120.118 58.113C124.595 60.7942 128.13 65.3478 130.078 70.9417C132.025 76.5356 132.254 82.7962 130.724 88.5791C129.194 94.3621 126.006 99.2812 121.742 102.438Z" fill="#212529"/>
<path d="M125.866 74.4649H116.585C115.939 74.4649 115.318 74.1521 114.861 73.5952C114.404 73.0384 114.147 72.2831 114.147 71.4956C114.147 70.7081 114.404 69.9528 114.861 69.3959C115.318 68.8391 115.939 68.5262 116.585 68.5262H125.866C126.513 68.5262 127.133 68.8391 127.59 69.3959C128.047 69.9528 128.304 70.7081 128.304 71.4956C128.304 72.2831 128.047 73.0384 127.59 73.5952C127.133 74.1521 126.513 74.4649 125.866 74.4649Z" fill="#212529"/>
<path d="M117.204 73.0026C117.887 73.0026 118.441 72.3279 118.441 71.4956C118.441 70.6634 117.887 69.9886 117.204 69.9886C116.521 69.9886 115.966 70.6634 115.966 71.4956C115.966 72.3279 116.521 73.0026 117.204 73.0026Z" fill="#F2F2F2"/>
<path d="M121.226 73.0026C121.909 73.0026 122.463 72.3279 122.463 71.4956C122.463 70.6634 121.909 69.9886 121.226 69.9886C120.542 69.9886 119.988 70.6634 119.988 71.4956C119.988 72.3279 120.542 73.0026 121.226 73.0026Z" fill="#F2F2F2"/>
<path d="M125.247 73.0026C125.931 73.0026 126.485 72.3279 126.485 71.4956C126.485 70.6634 125.931 69.9886 125.247 69.9886C124.564 69.9886 124.01 70.6634 124.01 71.4956C124.01 72.3279 124.564 73.0026 125.247 73.0026Z" fill="#3AA4D9"/>
<path d="M38.8442 109.681C40.966 107.497 42.2548 104.048 41.9168 100.69C41.5788 97.3325 39.4854 94.2456 36.7699 93.5325C34.0544 92.8194 30.9589 94.7933 30.1341 98.0237C29.6802 91.7956 29.1571 85.3064 26.4381 80.0026C23.976 75.2 19.7118 71.7637 15.0903 71.1489C10.4688 70.5341 5.60293 72.856 2.72067 77.2982C-0.161593 81.7405 -0.867304 88.1986 1.15136 93.2986C2.63843 97.0556 5.37815 99.8517 8.2487 102.126C17.4067 109.384 28.7672 111.835 39.577 109.898L38.8442 109.681Z" fill="#F2F2F2"/>
<path d="M7.29079 72.9848C11.1041 76.7673 14.6024 80.9978 17.7351 85.615C20.8683 90.2275 23.6268 95.1992 25.9717 100.46C27.2824 103.412 28.4599 106.448 29.4988 109.555C29.7106 110.187 28.8677 110.463 28.6583 109.838C26.8181 104.359 24.5414 99.1131 21.8609 94.1753C19.1935 89.2555 16.1404 84.6623 12.7446 80.4604C10.824 78.0849 8.7975 75.8399 6.67442 73.7354C6.23925 73.3039 6.8592 72.5568 7.29079 72.9848Z" fill="white"/>
<path d="M38.1248 18.9651C42.1645 18.9651 45.4394 14.977 45.4394 10.0573C45.4394 5.1376 42.1645 1.14941 38.1248 1.14941C34.085 1.14941 30.8102 5.1376 30.8102 10.0573C30.8102 14.977 34.085 18.9651 38.1248 18.9651Z" fill="#212529"/>
<path d="M65.4052 42.6748C65.265 42.9315 65.0941 43.1613 64.8982 43.3566C64.616 43.6399 64.2878 43.8474 63.9351 43.9656C63.5825 44.0837 63.2133 44.1097 62.8518 44.0419C62.4903 43.9742 62.1446 43.8142 61.8375 43.5724C61.5303 43.3306 61.2685 43.0125 61.0694 42.6389C61.0232 42.5518 60.9809 42.4619 60.9426 42.3694L49.4163 41.0151C48.5066 40.904 47.6505 40.4386 46.9752 39.688C46.3 38.9375 45.8414 37.9417 45.6676 36.8486L45.0134 32.6484L49.5117 31.7961L50.319 35.1606L61.557 38.5223C61.644 38.4293 61.7363 38.3439 61.8332 38.2666C62.3345 37.8704 62.9327 37.6969 63.5268 37.7755C64.1209 37.8541 64.6746 38.1799 65.0943 38.698C65.5141 39.216 65.7742 39.8945 65.8309 40.619C65.8875 41.3435 65.7371 42.0696 65.4052 42.6748Z" fill="#FFB8B8"/>
<path d="M50.5953 34.6528L45.5704 36.3058C45.2985 36.3949 45.0088 36.3489 44.7647 36.1781C44.5206 36.0073 44.3421 35.7256 44.2684 35.3947L42.5084 27.4605C42.3199 26.6106 42.3964 25.7058 42.7232 24.9205C43.0501 24.1353 43.604 23.5252 44.2783 23.2079C44.9527 22.8906 45.6996 22.8886 46.375 23.2023C47.0505 23.516 47.6066 24.1231 47.9363 24.9066L51.2634 32.8148C51.3355 32.9862 51.3753 33.1752 51.3798 33.3677C51.3843 33.5603 51.3534 33.7517 51.2894 33.9279C51.2253 34.104 51.1298 34.2606 51.0097 34.386C50.8896 34.5114 50.748 34.6025 50.5953 34.6528Z" fill="#212529"/>
<path d="M47.6846 107.507H50.5772L51.9535 93.9191L47.6839 93.9194L47.6846 107.507Z" fill="#FFB8B8"/>
<path d="M56.1562 110.778L47.0647 110.779L47.0646 106.501L52.6435 106.501C53.5751 106.5 54.4685 106.951 55.1273 107.753C55.7861 108.556 56.1562 109.644 56.1562 110.778Z" fill="#212529"/>
<path d="M21.9018 104.074L24.6082 105.318L29.8374 93.1984L25.8432 91.3619L21.9018 104.074Z" fill="#FFB8B8"/>
<path d="M28.8785 110.779L20.3731 106.868L21.6139 102.866L26.8331 105.266C27.7047 105.666 28.4098 106.472 28.7934 107.506C29.177 108.54 29.2076 109.717 28.8785 110.779Z" fill="#212529"/>
<path d="M47.5932 104.351C47.369 104.351 47.1505 104.264 46.9693 104.103C46.788 103.943 46.6533 103.716 46.5843 103.456L39.2064 75.7085C39.1845 75.6262 39.1428 75.5539 39.0868 75.5008C39.0307 75.4478 38.9628 75.4165 38.892 75.411C38.8211 75.4055 38.7506 75.4261 38.6895 75.4701C38.6283 75.5141 38.5795 75.5794 38.5493 75.6577L28.3243 102.152C28.2135 102.438 28.0204 102.665 27.7815 102.79C27.5425 102.915 27.2743 102.928 27.0276 102.829L23.0006 101.194C22.7448 101.089 22.5312 100.87 22.4029 100.581C22.2747 100.292 22.2414 99.9546 22.3098 99.6368L28.5731 70.7446C29.2285 67.6842 29.7019 64.5701 29.9896 61.4268C30.4289 56.2506 32.4216 51.454 35.5857 47.9567C36.9673 46.4152 37.8654 44.3363 38.126 42.0766L38.1429 41.9321L47.3153 43.6958L53.1254 101.433C53.1554 101.742 53.0934 102.053 52.9506 102.311C52.8079 102.569 52.5938 102.756 52.3474 102.838L47.8705 104.306C47.7801 104.336 47.6868 104.351 47.5932 104.351Z" fill="#212529"/>
<path d="M41.0305 18.9227C44.2312 18.9227 46.8258 15.7629 46.8258 11.8651C46.8258 7.9673 44.2312 4.8075 41.0305 4.8075C37.8299 4.8075 35.2352 7.9673 35.2352 11.8651C35.2352 15.7629 37.8299 18.9227 41.0305 18.9227Z" fill="#FFB8B8"/>
<path d="M46.7453 44.9268C46.7271 44.9268 46.709 44.9262 46.6907 44.9251L37.598 44.3715C37.3442 44.3575 37.103 44.2326 36.9187 44.0196C36.7344 43.8066 36.6194 43.5199 36.5947 43.212L35.3525 28.4628C35.2616 27.3827 35.3889 26.2919 35.7234 25.2855C36.0579 24.279 36.5895 23.3875 37.2717 22.6885C37.9539 21.9895 38.7662 21.5043 39.6377 21.2752C40.5092 21.0461 41.4134 21.08 42.2717 21.3739C42.9828 21.6111 43.6454 22.0262 44.2174 22.5928C50.6137 28.9898 48.5512 40.5804 47.7668 43.9803C47.7053 44.2526 47.572 44.4928 47.3874 44.6638C47.2028 44.8349 46.9772 44.9273 46.7453 44.9268Z" fill="#3AA4D9"/>
<path d="M38.8349 54.8306C38.5818 54.8307 38.33 54.7847 38.088 54.6942C37.738 54.5651 37.4143 54.3473 37.1382 54.0551C36.8621 53.763 36.6398 53.4031 36.4859 52.999C36.332 52.595 36.2499 52.1558 36.245 51.7105C36.2402 51.2651 36.3127 50.8235 36.4578 50.4146C36.4917 50.3196 36.5298 50.2269 36.5718 50.1368L31.1129 37.6999C30.6849 36.716 30.5289 35.5902 30.668 34.4898C30.8071 33.3893 31.2338 32.3728 31.8849 31.5912L34.394 28.6012L37.4683 32.69L35.6154 35.3722L39.5422 48.6287C39.654 48.6655 39.7635 48.7117 39.87 48.7671C40.4185 49.0559 40.8685 49.5663 41.1438 50.2122C41.4192 50.8582 41.5031 51.6 41.3815 52.3125C41.2599 53.0251 40.9401 53.6647 40.4762 54.1235C40.0122 54.5822 39.4325 54.832 38.8349 54.8306Z" fill="#FFB8B8"/>
<path d="M36.1156 35.371L32.2021 31.1919C31.9906 30.9656 31.8615 30.6463 31.8431 30.3042C31.8246 29.9622 31.9184 29.6251 32.1038 29.3671L36.5531 23.1876C37.0297 22.5257 37.6907 22.1021 38.4085 21.9985C39.1264 21.8949 39.8504 22.1187 40.4408 22.6266C41.0312 23.1346 41.4463 23.8907 41.606 24.7493C41.7657 25.6079 41.6588 26.5081 41.3058 27.2764L37.7422 35.0303C37.665 35.1984 37.5579 35.3434 37.4287 35.4546C37.2995 35.5659 37.1516 35.6406 36.9957 35.6732C36.8397 35.7059 36.6798 35.6957 36.5275 35.6434C36.3753 35.5911 36.2345 35.498 36.1156 35.371Z" fill="#212529"/>
<path d="M37.3013 18.7207C37.83 18.949 38.4783 19.1503 38.8943 18.6768C39.3005 18.2145 39.2265 17.369 38.9873 16.7462C38.748 16.1234 38.3768 15.5691 38.2631 14.8912C38.1 13.9197 38.5216 12.9103 39.1235 12.2769C39.7254 11.6435 40.483 11.3107 41.2226 10.9905L45.2795 9.23432C46.2836 8.7996 47.3657 8.28894 47.9277 7.14494C48.7408 5.48963 47.9974 3.12345 46.6637 2.15754C45.33 1.19163 43.6453 1.37158 42.2063 2.05076C41.4105 2.4264 40.6534 2.94403 39.8303 3.20847C38.206 3.73034 36.359 3.26216 34.9316 4.37754C33.689 5.34848 33.1126 7.32961 33.1545 9.18329C33.1963 11.037 33.7568 12.8023 34.3479 14.4976C34.6996 15.5062 35.0753 16.5264 35.671 17.3286C36.2667 18.1307 37.1275 18.6919 37.9874 18.5443L37.3013 18.7207Z" fill="#212529"/>
<path d="M31.9899 11.494C34.5962 11.494 36.709 8.92099 36.709 5.74701C36.709 2.57302 34.5962 0 31.9899 0C29.3837 0 27.2708 2.57302 27.2708 5.74701C27.2708 8.92099 29.3837 11.494 31.9899 11.494Z" fill="#212529"/>
<path d="M70.2646 38.9218L70.1808 38.9077L70.4962 36.1139C70.5446 35.685 70.4511 35.2503 70.2364 34.9054C70.0216 34.5604 69.7031 34.3335 69.3509 34.2746L64.4903 33.4609C64.1382 33.4019 63.7812 33.5158 63.498 33.7773C63.2147 34.0389 63.0284 34.4268 62.98 34.8556L61.2499 50.1831C61.2015 50.6119 61.2949 51.0466 61.5097 51.3916C61.7245 51.7365 62.043 51.9634 62.3952 52.0224L67.2557 52.8361C67.6079 52.895 67.9649 52.7812 68.2481 52.5196C68.5313 52.2581 68.7177 51.8702 68.7661 51.4413L69.9563 40.8964L70.0401 40.9105L70.2646 38.9218Z" fill="#212529"/>
<path d="M69.1981 35.0942L68.593 34.9929C68.6114 35.0806 68.6119 35.1726 68.5943 35.2606C68.5767 35.3486 68.5416 35.43 68.4921 35.4976C68.4426 35.5652 68.3801 35.6169 68.3103 35.6482C68.2405 35.6795 68.1655 35.6895 68.0918 35.6771L65.4358 35.2325C65.3621 35.2201 65.292 35.1859 65.2317 35.1328C65.1715 35.0798 65.1229 35.0094 65.0902 34.9281C65.0575 34.8467 65.0417 34.7568 65.0443 34.6663C65.0468 34.5757 65.0676 34.4874 65.1048 34.4089L64.5396 34.3143C64.4154 34.2935 64.289 34.3027 64.1677 34.3414C64.0465 34.3801 63.9326 34.4474 63.8327 34.5397C63.7328 34.632 63.6488 34.7473 63.5855 34.8791C63.5222 35.0109 63.4808 35.1565 63.4637 35.3078L61.8159 49.9064C61.7814 50.2119 61.848 50.5216 62.001 50.7673C62.154 51.013 62.3808 51.1746 62.6317 51.2166L67.2902 51.9965C67.5411 52.0385 67.7953 51.9574 67.9971 51.7711C68.1989 51.5848 68.3316 51.3085 68.3661 51.003L70.0139 36.4043C70.0484 36.0988 69.9818 35.7892 69.8288 35.5435C69.6758 35.2978 69.449 35.1362 69.1981 35.0942Z" fill="white"/>
<path d="M65.8942 47.2145C67.3277 47.2145 68.4897 45.7994 68.4897 44.0537C68.4897 42.308 67.3277 40.8928 65.8942 40.8928C64.4608 40.8928 63.2987 42.308 63.2987 44.0537C63.2987 45.7994 64.4608 47.2145 65.8942 47.2145Z" fill="#3AA4D9"/>
<path d="M65.637 45.2594C65.5786 45.2595 65.5217 45.2365 65.475 45.1939L65.4721 45.1912L64.8621 44.6225C64.8337 44.5962 64.8099 44.5634 64.7919 44.5258C64.7739 44.4883 64.7623 44.4468 64.7575 44.4037C64.7528 44.3606 64.755 44.3169 64.7642 44.2749C64.7734 44.2329 64.7893 44.1935 64.811 44.159C64.8327 44.1245 64.8598 44.0956 64.8907 44.0739C64.9216 44.0522 64.9557 44.0381 64.9911 44.0325C65.0264 44.0269 65.0624 44.0298 65.0968 44.0412C65.1313 44.0525 65.1635 44.072 65.1918 44.0986L65.5868 44.4675L66.5205 42.9847C66.5422 42.9503 66.5692 42.9214 66.6 42.8997C66.6308 42.8781 66.6648 42.864 66.7001 42.8583C66.7354 42.8526 66.7712 42.8555 66.8056 42.8667C66.84 42.8779 66.8722 42.8972 66.9004 42.9236C66.9574 42.9769 66.9948 43.0557 67.0042 43.1425C67.0136 43.2292 66.9944 43.3169 66.9507 43.3864L65.8525 45.1306C65.8271 45.1708 65.7945 45.2033 65.7571 45.2257C65.7197 45.248 65.6786 45.2595 65.637 45.2594Z" fill="white"/>
<path d="M199.719 111H1.68354C1.60917 111 1.53792 110.964 1.48541 110.899C1.4329 110.835 1.40341 110.748 1.40341 110.658C1.40341 110.567 1.4329 110.48 1.48541 110.416C1.53792 110.352 1.60917 110.316 1.68354 110.316H199.719C199.794 110.316 199.865 110.352 199.918 110.416C199.97 110.48 200 110.567 200 110.658C200 110.749 199.97 110.836 199.918 110.9C199.865 110.964 199.794 111 199.719 111Z" fill="#CCCCCC"/>
</g>
<defs>
<clipPath id="clip0_4_11321">
<rect width="200" height="111" fill="white"/>
</clipPath>
</defs>
</svg>
