<svg width="685" height="471" viewBox="0 0 685 471" fill="none" xmlns="http://www.w3.org/2000/svg">
<path d="M456 64.5C456 28.8776 484.878 0 520.5 0H1028V129H520.5C484.878 129 456 100.122 456 64.5Z" fill="#3AA4D9" fill-opacity="0.15"/>
<path d="M561.701 54.8835C566.894 73.7704 555.957 93.1365 537.271 98.1374C518.593 103.136 499.237 91.8767 494.047 72.9901C488.852 54.1023 499.789 34.7356 518.468 29.7364C537.152 24.735 556.509 35.9961 561.701 54.884L561.701 54.8836L561.701 54.8835Z" fill="#F7931A"/>
<path fill-rule="evenodd" clip-rule="evenodd" d="M538.882 51.9942C537.186 47.529 532.852 47.0402 527.792 47.9248L526.045 41.5695L522.218 42.5943L523.92 48.7822C522.913 49.0514 521.891 49.3467 520.875 49.6408L519.163 43.4116L515.338 44.4352L517.084 50.7892C516.26 51.028 515.451 51.2616 514.657 51.4743L514.652 51.4546L509.373 52.8652L510.51 56.9968C510.51 56.9968 513.321 56.1861 513.288 56.251C514.838 55.8366 515.593 56.6114 515.956 57.3569L517.946 64.5971C518.053 64.569 518.194 64.5361 518.358 64.5159L518.247 64.5456C518.153 64.5708 518.055 64.597 517.954 64.6249L520.742 74.768C520.809 75.2792 520.739 76.1425 519.656 76.4342C519.717 76.4648 516.874 77.1781 516.874 77.1781L517.384 82.0018L522.364 80.6686C522.91 80.5234 523.452 80.3846 523.988 80.2472C524.363 80.1512 524.735 80.0559 525.104 79.9595L526.873 86.3869L530.696 85.3642L528.947 79.0044C530.003 78.7454 531.021 78.482 532.012 78.2157L533.751 84.5466L537.578 83.5217L535.815 77.105C542.146 75.0099 546.198 72.1665 545.078 65.909C544.178 60.8703 541.286 59.2885 537.391 59.3794C539.295 57.6433 540.129 55.2597 538.883 51.994L538.882 51.9938L538.882 51.9942ZM537.306 67.1714C538.519 71.578 531.645 73.3149 528.499 74.1096C528.216 74.1811 527.964 74.2449 527.75 74.3024L525.409 65.7855C525.67 65.7158 525.985 65.6234 526.342 65.5188L526.342 65.5187C529.532 64.5827 536.068 62.665 537.306 67.1713L537.306 67.1714ZM524.969 61.7261C527.595 61.0699 533.323 59.6385 532.223 55.6321L532.223 55.6319C531.096 51.535 525.654 53.1492 522.996 53.9376C522.697 54.0263 522.433 54.1045 522.215 54.163L524.338 61.887C524.517 61.8389 524.73 61.7857 524.969 61.7261Z" fill="white"/>
<path d="M299 235.5C299 199.878 327.878 171 363.5 171H1028V300H363.5C327.878 300 299 271.122 299 235.5Z" fill="#3AA4D9" fill-opacity="0.15"/>
<ellipse cx="375.87" cy="236.065" rx="35" ry="35.5069" transform="rotate(-29.1788 375.87 236.065)" fill="#EDF0F4"/>
<path d="M379.174 228.135C375.034 226.978 370.809 229.337 369.636 233.461C368.5 237.622 370.99 241.97 375.111 243.195C379.232 244.421 383.543 242.053 384.679 237.893C384.698 237.825 384.771 237.52 384.904 236.968L379.918 235.491C379.823 236.061 379.746 236.368 379.728 236.378C379.339 237.79 377.889 238.6 376.483 238.19C375.077 237.781 374.245 236.292 374.614 234.915C374.99 233.55 376.445 232.738 377.86 233.143C377.86 233.143 382.308 234.438 391.195 237.051C390.779 241.781 388.083 246.129 383.88 248.476C376.918 252.364 368.028 249.735 364.036 242.585C360.043 235.435 362.478 226.494 369.436 222.609C373.501 220.339 378.344 220.242 382.476 222.196C382.345 222.844 382.012 224.489 381.469 227.135L386.391 228.568L388.256 219.681C382.071 214.973 373.689 214.237 366.866 218.047C357.427 223.318 354.146 235.449 359.539 245.107C364.932 254.766 376.974 258.363 386.43 253.083C390.724 250.685 393.514 247.318 395.302 242.357C396.931 237.863 396.306 233.226 396.306 233.226L379.174 228.135Z" fill="url(#paint0_linear_5_12257)"/>
<path d="M0 406.5C0 370.878 28.8776 342 64.5 342H1028V471H64.5C28.8776 471 0 442.122 0 406.5Z" fill="#3AA4D9" fill-opacity="0.15"/>
<ellipse opacity="0.98" cx="73.8695" cy="407.065" rx="35" ry="35.5069" transform="rotate(-29.1788 73.8695 407.065)" fill="#131A35"/>
<path d="M89.0152 390.683L98.4467 407.574L85.9835 428.759L61.399 428.261L49.282 406.561L61.7495 385.36L80.6393 385.753L82.0855 383.296L60.3453 382.845L46.4316 406.504L59.9528 430.718L87.3936 431.284L101.307 407.626L90.4717 388.221L89.0152 390.683Z" fill="url(#paint1_linear_5_12257)"/>
<path d="M74.7491 420.82L71.6506 422.55L65.7646 412.009L76.093 406.242C77.0641 405.686 77.7738 404.763 78.0688 403.675C78.3639 402.587 78.2204 401.42 77.6694 400.427C77.4013 399.934 77.0365 399.5 76.5975 399.152C76.1583 398.804 75.6544 398.549 75.1163 398.403C74.5835 398.24 74.0249 398.187 73.4738 398.246C72.9227 398.306 72.3907 398.478 71.9096 398.75L61.5813 404.518L59.791 401.312L70.1295 395.539C71.9457 394.539 74.0887 394.305 76.0936 394.889C78.0985 395.473 79.804 396.827 80.8401 398.657C81.6361 400.056 81.9808 401.666 81.8258 403.261C81.7066 404.771 81.1528 406.207 80.232 407.395C79.2513 408.447 78.1102 409.335 76.8505 410.025L70.6535 413.486L74.7491 420.82Z" fill="url(#paint2_linear_5_12257)"/>
<path d="M88.608 412.738L84.993 414.757L79.4487 411.379C80.5137 410.694 81.4759 409.861 82.307 408.903L88.608 412.738Z" fill="url(#paint3_linear_5_12257)"/>
<path d="M84.8965 388.379L87.7073 388.39L89.1725 385.991L87.7508 383.445L84.9106 383.381L83.4748 385.833L84.8965 388.379Z" fill="url(#paint4_linear_5_12257)"/>
<defs>
<linearGradient id="paint0_linear_5_12257" x1="382.85" y1="209.12" x2="349.761" y2="227.597" gradientUnits="userSpaceOnUse">
<stop stop-color="#22E6B8"/>
<stop offset="1" stop-color="#00C1CE"/>
</linearGradient>
<linearGradient id="paint1_linear_5_12257" x1="65.8244" y1="362.006" x2="28.1221" y2="400.575" gradientUnits="userSpaceOnUse">
<stop stop-color="#C200FB"/>
<stop offset="0.489658" stop-color="#3772FF"/>
<stop offset="0.489758" stop-color="#3773FE"/>
<stop offset="1" stop-color="#5AC4BE"/>
</linearGradient>
<linearGradient id="paint2_linear_5_12257" x1="65.4266" y1="360.352" x2="26.7762" y2="397.727" gradientUnits="userSpaceOnUse">
<stop stop-color="#C200FB"/>
<stop offset="0.489658" stop-color="#3772FF"/>
<stop offset="0.489758" stop-color="#3773FE"/>
<stop offset="1" stop-color="#5AC4BE"/>
</linearGradient>
<linearGradient id="paint3_linear_5_12257" x1="66.8802" y1="369.927" x2="37.575" y2="415.184" gradientUnits="userSpaceOnUse">
<stop stop-color="#C200FB"/>
<stop offset="0.489658" stop-color="#3772FF"/>
<stop offset="0.489758" stop-color="#3773FE"/>
<stop offset="1" stop-color="#5AC4BE"/>
</linearGradient>
<linearGradient id="paint4_linear_5_12257" x1="65.8245" y1="362.006" x2="28.1224" y2="400.576" gradientUnits="userSpaceOnUse">
<stop stop-color="#C200FB"/>
<stop offset="0.489658" stop-color="#3772FF"/>
<stop offset="0.489758" stop-color="#3773FE"/>
<stop offset="1" stop-color="#5AC4BE"/>
</linearGradient>
</defs>
</svg>
