<svg width="685" height="129" viewBox="0 0 685 129" fill="none" xmlns="http://www.w3.org/2000/svg">
<path d="M0 64.5C0 28.8776 28.8776 0 64.5 0H1028V129H64.5C28.8776 129 0 100.122 0 64.5Z" fill="#3AA4D9" fill-opacity="0.15"/>
<ellipse opacity="0.98" cx="73.8695" cy="65.0649" rx="35" ry="35.5069" transform="rotate(-29.1788 73.8695 65.0649)" fill="#131A35"/>
<path d="M89.0152 48.6835L98.4467 65.5739L85.9835 86.7593L61.399 86.2611L49.282 64.5613L61.7495 43.3598L80.6393 43.7528L82.0855 41.2959L60.3453 40.8451L46.4316 64.5036L59.9528 88.7181L87.3936 89.2845L101.307 65.6259L90.4717 46.2207L89.0152 48.6835Z" fill="url(#paint0_linear_5_12197)"/>
<path d="M74.7491 78.8201L71.6506 80.5503L65.7646 70.0095L76.093 64.2422C77.0641 63.6856 77.7738 62.7634 78.0688 61.6752C78.3639 60.5871 78.2204 59.4203 77.6694 58.4274C77.4013 57.9342 77.0365 57.5 76.5975 57.1519C76.1583 56.8037 75.6544 56.5489 75.1163 56.4032C74.5835 56.2401 74.0249 56.1868 73.4738 56.2465C72.9227 56.3061 72.3907 56.4775 71.9096 56.7504L61.5813 62.5177L59.791 59.3115L70.1295 53.5385C71.9457 52.5388 74.0887 52.3055 76.0936 52.8892C78.0985 53.473 79.804 54.8268 80.8401 56.6569C81.6361 58.0564 81.9808 59.6661 81.8258 61.2608C81.7066 62.7705 81.1528 64.207 80.232 65.3946C79.2513 66.4469 78.1102 67.3346 76.8505 68.0252L70.6535 71.4856L74.7491 78.8201Z" fill="url(#paint1_linear_5_12197)"/>
<path d="M88.608 70.7379L84.993 72.7565L79.4487 69.3786C80.5137 68.694 81.4759 67.8606 82.307 66.9029L88.608 70.7379Z" fill="url(#paint2_linear_5_12197)"/>
<path d="M84.8965 46.3787L87.7073 46.3899L89.1725 43.991L87.7508 41.4449L84.9106 41.3814L83.4748 43.8325L84.8965 46.3787Z" fill="url(#paint3_linear_5_12197)"/>
<defs>
<linearGradient id="paint0_linear_5_12197" x1="65.8244" y1="20.0057" x2="28.1221" y2="58.5753" gradientUnits="userSpaceOnUse">
<stop stop-color="#C200FB"/>
<stop offset="0.489658" stop-color="#3772FF"/>
<stop offset="0.489758" stop-color="#3773FE"/>
<stop offset="1" stop-color="#5AC4BE"/>
</linearGradient>
<linearGradient id="paint1_linear_5_12197" x1="65.4266" y1="18.3523" x2="26.7762" y2="55.7269" gradientUnits="userSpaceOnUse">
<stop stop-color="#C200FB"/>
<stop offset="0.489658" stop-color="#3772FF"/>
<stop offset="0.489758" stop-color="#3773FE"/>
<stop offset="1" stop-color="#5AC4BE"/>
</linearGradient>
<linearGradient id="paint2_linear_5_12197" x1="66.8802" y1="27.9268" x2="37.575" y2="73.1837" gradientUnits="userSpaceOnUse">
<stop stop-color="#C200FB"/>
<stop offset="0.489658" stop-color="#3772FF"/>
<stop offset="0.489758" stop-color="#3773FE"/>
<stop offset="1" stop-color="#5AC4BE"/>
</linearGradient>
<linearGradient id="paint3_linear_5_12197" x1="65.8245" y1="20.0059" x2="28.1224" y2="58.5757" gradientUnits="userSpaceOnUse">
<stop stop-color="#C200FB"/>
<stop offset="0.489658" stop-color="#3772FF"/>
<stop offset="0.489758" stop-color="#3773FE"/>
<stop offset="1" stop-color="#5AC4BE"/>
</linearGradient>
</defs>
</svg>
