<svg width="229" height="129" viewBox="0 0 229 129" fill="none" xmlns="http://www.w3.org/2000/svg">
<path d="M0 64.5C0 28.8776 28.8776 0 64.5 0H572V129H64.5C28.8776 129 0 100.122 0 64.5Z" fill="#3AA4D9" fill-opacity="0.15"/>
<path d="M105.701 54.8835C110.894 73.7704 99.9568 93.1365 81.2714 98.1374C62.5935 103.136 43.2371 91.8767 38.0472 72.9901C32.8519 54.1023 43.7886 34.7356 62.4683 29.7364C81.1519 24.735 100.509 35.9961 105.701 54.884L105.701 54.8836L105.701 54.8835Z" fill="#F7931A"/>
<path fill-rule="evenodd" clip-rule="evenodd" d="M82.8816 51.9942C81.1861 47.529 76.8517 47.0402 71.7919 47.9248L70.0448 41.5695L66.2181 42.5943L67.9196 48.7822C66.9134 49.0514 65.8908 49.3467 64.8746 49.6408L63.1629 43.4116L59.3383 44.4352L61.0837 50.7892C60.2601 51.028 59.4506 51.2616 58.6574 51.4743L58.6515 51.4546L53.3731 52.8652L54.5099 56.9968C54.5099 56.9968 57.3209 56.1861 57.2883 56.251C58.8382 55.8366 59.593 56.6114 59.9558 57.3569L61.9464 64.5971C62.0534 64.569 62.1941 64.5361 62.3584 64.5159L62.2474 64.5456C62.1529 64.5708 62.0546 64.597 61.9543 64.6249L64.7415 74.768C64.8093 75.2792 64.7388 76.1425 63.6562 76.4342C63.7174 76.4648 60.8745 77.1781 60.8745 77.1781L61.384 82.0018L66.364 80.6686C66.9097 80.5234 67.4516 80.3846 67.988 80.2472C68.363 80.1512 68.7352 80.0559 69.1043 79.9595L70.873 86.3869L74.6958 85.3642L72.9471 79.0044C74.0028 78.7454 75.0206 78.482 76.0123 78.2157L77.7509 84.5466L81.5777 83.5217L79.8147 77.105C86.1458 75.0099 90.1982 72.1665 89.0781 65.909C88.1775 60.8703 85.286 59.2885 81.3905 59.3794C83.2953 57.6433 84.1293 55.2597 82.883 51.994L82.8816 51.9938L82.8816 51.9942ZM81.306 67.1714C82.5194 71.578 75.6447 73.3149 72.4993 74.1096C72.2164 74.1811 71.9636 74.2449 71.7496 74.3024L69.4094 65.7855C69.6703 65.7158 69.9851 65.6234 70.3417 65.5188L70.342 65.5187C73.5319 64.5827 80.0675 62.665 81.3062 67.1713L81.306 67.1714ZM68.9689 61.7261C71.5948 61.0699 77.3233 59.6385 76.2229 55.6321L76.2232 55.6319C75.0964 51.535 69.6539 53.1492 66.9958 53.9376C66.6968 54.0263 66.433 54.1045 66.2146 54.163L68.3376 61.887C68.5174 61.8389 68.7304 61.7857 68.9689 61.7261Z" fill="white"/>
</svg>
