<svg width="386" height="129" viewBox="0 0 386 129" fill="none" xmlns="http://www.w3.org/2000/svg">
<path d="M0 64.5C0 28.8776 28.8776 0 64.5 0H729V129H64.5C28.8776 129 0 100.122 0 64.5Z" fill="#3AA4D9" fill-opacity="0.15"/>
<ellipse cx="76.8695" cy="65.0649" rx="35" ry="35.5069" transform="rotate(-29.1788 76.8695 65.0649)" fill="#EDF0F4"/>
<path d="M80.1739 57.1355C76.0343 55.9779 71.8091 58.3372 70.6359 62.4615C69.5 66.6223 71.9899 70.9698 76.1108 72.1953C80.2317 73.4208 84.5431 71.0535 85.6789 66.8927C85.6976 66.8248 85.7707 66.5198 85.9044 65.9684L80.9182 64.491C80.8232 65.0609 80.7457 65.3684 80.7285 65.378C80.3393 66.79 78.8892 67.5997 77.4829 67.1903C76.0767 66.7809 75.2455 65.2922 75.6142 63.9146C75.9903 62.5502 77.4447 61.738 78.8596 62.1426C78.8596 62.1426 83.3081 63.4379 92.1953 66.0511C91.7791 70.7807 89.0834 75.129 84.8798 77.4763C77.9183 81.3636 69.0281 78.7348 65.0356 71.5849C61.0432 64.435 63.4784 55.4937 70.4355 51.6089C74.5011 49.3387 79.3443 49.2419 83.476 51.1965C83.345 51.844 83.0122 53.4887 82.4689 56.1354L87.3907 57.5684L89.256 48.6812C83.0715 43.9729 74.6892 43.2374 67.8658 47.0475C58.427 52.3181 55.1457 64.4486 60.5391 74.1073C65.9324 83.766 77.9736 87.3635 87.4296 82.0833C91.7239 79.6853 94.5144 76.318 96.3017 71.3569C97.931 66.8631 97.3065 62.2264 97.3065 62.2264L80.1739 57.1355Z" fill="url(#paint0_linear_5_12185)"/>
<defs>
<linearGradient id="paint0_linear_5_12185" x1="83.8499" y1="38.1203" x2="50.7613" y2="56.5968" gradientUnits="userSpaceOnUse">
<stop stop-color="#22E6B8"/>
<stop offset="1" stop-color="#00C1CE"/>
</linearGradient>
</defs>
</svg>
