<svg width="590" height="439" viewBox="0 0 590 439" fill="none" xmlns="http://www.w3.org/2000/svg">
<path d="M530.882 405.318H491.8V405.613H530.882V405.318Z" fill="#EBEBEB"/>
<path d="M390.84 408.528H380.585V408.823H390.84V408.528Z" fill="#EBEBEB"/>
<path d="M490.62 394.368H467.976V394.663H490.62V394.368Z" fill="#EBEBEB"/>
<path d="M112.867 396.35H61.9028V396.645H112.867V396.35Z" fill="#EBEBEB"/>
<path d="M130.85 396.35H123.381V396.645H130.85V396.35Z" fill="#EBEBEB"/>
<path d="M265.677 401.33H155.135V401.625H265.677V401.33Z" fill="#EBEBEB"/>
<path d="M281.312 333.704H53.454C51.667 333.704 49.9532 332.994 48.6897 331.731C47.4261 330.467 46.7162 328.753 46.7162 326.966V6.6788C46.7318 4.90207 47.4485 3.2034 48.7104 1.95255C49.9723 0.701702 51.6772 -6.81166e-05 53.454 4.95901e-09H281.312C282.197 4.95901e-09 283.073 0.174277 283.89 0.512883C284.708 0.851489 285.451 1.34779 286.076 1.97346C286.702 2.59912 287.198 3.34189 287.537 4.15936C287.876 4.97683 288.05 5.85298 288.05 6.7378V326.966C288.05 327.851 287.876 328.727 287.537 329.545C287.198 330.362 286.702 331.105 286.076 331.731C285.451 332.356 284.708 332.853 283.89 333.191C283.073 333.53 282.197 333.704 281.312 333.704ZM53.454 0.236001C51.7462 0.23912 50.1093 0.918913 48.9017 2.1265C47.6941 3.33408 47.0143 4.97102 47.0112 6.6788V326.966C47.0143 328.674 47.6941 330.311 48.9017 331.518C50.1093 332.726 51.7462 333.406 53.454 333.409H281.312C283.02 333.406 284.657 332.726 285.864 331.518C287.072 330.311 287.752 328.674 287.755 326.966V6.6788C287.752 4.97102 287.072 3.33408 285.864 2.1265C284.657 0.918913 283.02 0.23912 281.312 0.236001H53.454Z" fill="#EBEBEB"/>
<path d="M536.546 333.704H308.688C306.901 333.704 305.187 332.994 303.924 331.731C302.66 330.467 301.95 328.753 301.95 326.966V6.6788C301.966 4.90207 302.682 3.2034 303.944 1.95255C305.206 0.701702 306.911 -6.81166e-05 308.688 4.95901e-09H536.546C538.333 4.95902e-09 540.047 0.709874 541.31 1.97346C542.574 3.23704 543.284 4.95082 543.284 6.7378V326.966C543.284 328.753 542.574 330.467 541.31 331.731C540.047 332.994 538.333 333.704 536.546 333.704ZM308.688 0.236001C306.98 0.23912 305.343 0.918913 304.136 2.1265C302.928 3.33408 302.248 4.97102 302.245 6.6788V326.966C302.248 328.674 302.928 330.311 304.136 331.518C305.343 332.726 306.98 333.406 308.688 333.409H536.546C538.254 333.406 539.891 332.726 541.098 331.518C542.306 330.311 542.986 328.674 542.989 326.966V6.6788C542.986 4.97102 542.306 3.33408 541.098 2.1265C539.891 0.918913 538.254 0.23912 536.546 0.236001H308.688Z" fill="#EBEBEB"/>
<path d="M590 386.332H0V386.627H590V386.332Z" fill="#EBEBEB"/>
<path d="M154.202 74.8592L162.805 69.3368L167.501 78.4228L177.72 77.9508L177.248 88.1696L186.334 92.866L180.811 101.468L186.334 110.082L177.248 114.779L177.72 124.997L167.501 124.525L162.805 133.611L154.202 128.089L145.588 133.611L140.892 124.525L130.673 124.997L131.145 114.779L122.059 110.082L127.582 101.468L122.059 92.866L131.145 88.1696L130.673 77.9508L140.892 78.4228L145.588 69.3368L154.202 74.8592Z" fill="#E6E6E6"/>
<path d="M150.934 114.613L140.703 104.383C140.142 103.821 139.827 103.059 139.827 102.265C139.827 101.47 140.142 100.709 140.703 100.147C141.265 99.5853 142.027 99.27 142.821 99.27C143.616 99.27 144.377 99.5853 144.939 100.147L150.934 106.141L163.454 93.6212C164.016 93.0599 164.777 92.7446 165.572 92.7446C166.366 92.7446 167.128 93.0599 167.69 93.6212C168.251 94.1832 168.566 94.945 168.566 95.7393C168.566 96.5336 168.251 97.2954 167.69 97.8574L150.934 114.613Z" fill="#FAFAFA"/>
<path d="M474.195 165.176L480.944 160.846L484.626 167.973L492.65 167.595L492.272 175.608L499.4 179.289L495.069 186.051L499.4 192.8L492.272 196.482L492.65 204.494L484.626 204.128L480.944 211.255L474.195 206.925L467.445 211.255L463.764 204.128L455.751 204.494L456.117 196.482L448.99 192.8L453.321 186.051L448.99 179.289L456.117 175.608L455.751 167.595L463.764 167.973L467.445 160.846L474.195 165.176Z" fill="#E6E6E6"/>
<path d="M471.634 196.352L463.61 188.328C463.174 187.886 462.93 187.291 462.93 186.67C462.93 186.049 463.174 185.454 463.61 185.012C464.052 184.573 464.651 184.326 465.274 184.326C465.897 184.326 466.496 184.573 466.938 185.012L471.658 189.732L481.475 179.915C481.918 179.475 482.516 179.228 483.139 179.228C483.763 179.228 484.361 179.475 484.803 179.915C485.243 180.357 485.489 180.955 485.489 181.578C485.489 182.202 485.243 182.8 484.803 183.242L471.634 196.352Z" fill="#FAFAFA"/>
<path d="M155.064 278.48L168.221 285.194C169.305 285.743 170.538 285.924 171.734 285.711C172.93 285.499 174.024 284.903 174.852 284.014L184.918 273.205C185.501 272.58 185.932 271.829 186.177 271.011C186.423 270.192 186.477 269.328 186.334 268.485L181.106 238.797C180.692 236.468 179.371 234.399 177.433 233.043C175.496 231.687 173.099 231.155 170.77 231.563L154.108 234.501C152.954 234.705 151.852 235.134 150.864 235.764C149.876 236.394 149.022 237.212 148.35 238.172C147.679 239.131 147.203 240.214 146.949 241.358C146.696 242.502 146.671 243.684 146.875 244.838L152.102 274.515C152.259 275.359 152.608 276.155 153.122 276.842C153.635 277.53 154.3 278.09 155.064 278.48ZM170.05 276.12C170.597 276.021 171.162 276.086 171.672 276.308C172.182 276.53 172.614 276.899 172.915 277.367C173.215 277.835 173.37 278.382 173.359 278.938C173.348 279.494 173.172 280.035 172.854 280.491C172.535 280.947 172.088 281.298 171.57 281.5C171.052 281.702 170.485 281.745 169.942 281.625C169.399 281.504 168.904 281.225 168.52 280.823C168.136 280.42 167.88 279.913 167.784 279.365C167.657 278.635 167.824 277.883 168.248 277.276C168.673 276.668 169.32 276.252 170.05 276.12Z" fill="#E6E6E6"/>
<path d="M155.706 269.279L181.167 264.79L180.682 262.036L155.221 266.525L155.706 269.279Z" fill="#FAFAFA"/>
<path d="M151.395 244.805L176.856 240.316L176.37 237.562L150.909 242.051L151.395 244.805Z" fill="#FAFAFA"/>
<path d="M200.034 86.3052L209.096 96.0284C209.841 96.8268 210.825 97.361 211.9 97.5505C212.975 97.74 214.082 97.5743 215.055 97.0786L226.855 91.037C227.549 90.6863 228.152 90.1783 228.615 89.5534C229.078 88.9286 229.388 88.2042 229.522 87.438L234.242 60.7464C234.609 58.653 234.13 56.4995 232.912 54.7584C231.693 53.0174 229.833 51.831 227.74 51.4598L212.766 48.8166C210.669 48.4495 208.513 48.9292 206.77 50.1504C205.026 51.3715 203.839 53.2344 203.467 55.3302L198.747 82.01C198.612 82.7766 198.658 83.5643 198.881 84.3101C199.104 85.0559 199.499 85.7392 200.034 86.3052ZM213.403 88.972C213.896 89.0566 214.352 89.2854 214.714 89.6295C215.077 89.9737 215.329 90.4176 215.439 90.9052C215.549 91.3927 215.512 91.9019 215.332 92.3683C215.153 92.8347 214.839 93.2374 214.43 93.5252C214.021 93.813 213.537 93.9731 213.037 93.9852C212.537 93.9974 212.045 93.8609 211.623 93.5932C211.201 93.3255 210.868 92.9386 210.666 92.4815C210.464 92.0243 210.402 91.5175 210.488 91.0252C210.604 90.367 210.975 89.7812 211.521 89.3964C212.068 89.0115 212.744 88.8589 213.403 88.972Z" fill="#F0F0F0"/>
<path d="M203.417 78.7458L226.31 82.7824L226.746 80.3072L203.854 76.2706L203.417 78.7458Z" fill="#FAFAFA"/>
<path d="M207.958 58.1573L230.739 62.1091L231.166 59.6459L208.385 55.6941L207.958 58.1573Z" fill="#FAFAFA"/>
<path d="M419.348 57.525C417.673 55.1321 415.116 53.5022 412.24 52.9933C409.364 52.4844 406.403 53.1382 404.008 54.811L399.288 58.0796L396.008 53.3596C394.329 50.9719 391.772 49.346 388.898 48.8375C386.023 48.3289 383.065 48.979 380.668 50.6456C378.28 52.3249 376.654 54.8811 376.146 57.7556C375.637 60.6301 376.287 63.589 377.954 65.9856L393.896 88.7478L416.67 72.806C419.038 71.1242 420.647 68.5765 421.148 65.7158C421.65 62.855 421.003 59.9119 419.348 57.525Z" fill="#EBEBEB"/>
<path d="M452.082 59.649C451.676 59.0657 451.159 58.5683 450.561 58.1853C449.962 57.8024 449.294 57.5415 448.595 57.4175C447.895 57.2936 447.178 57.3092 446.484 57.4633C445.791 57.6174 445.134 57.9071 444.553 58.3156L442.264 59.9204L440.659 57.6312C439.836 56.4582 438.581 55.6593 437.17 55.4094C435.759 55.1595 434.307 55.4789 433.131 56.2978C431.959 57.125 431.162 58.3824 430.914 59.7953C430.667 61.2081 430.988 62.6616 431.809 63.838L439.609 74.9772L450.76 67.1774C451.342 66.7709 451.839 66.2534 452.221 65.6545C452.602 65.0557 452.862 64.3873 452.985 63.6878C453.108 62.9883 453.091 62.2714 452.936 61.5783C452.781 60.8852 452.491 60.2296 452.082 59.649Z" fill="#EBEBEB"/>
<path d="M103.085 167.985C95.4691 170.172 89.0333 175.293 85.192 182.223C81.3508 189.153 80.4185 197.325 82.6 204.942C85.5618 215.244 103.628 232.507 115.923 243.351C117.184 244.466 118.706 245.245 120.347 245.616C121.989 245.988 123.698 245.939 125.316 245.476C126.934 245.013 128.409 244.149 129.605 242.965C130.801 241.782 131.68 240.315 132.16 238.702C136.88 222.996 143.004 198.771 140.054 188.47C138.973 184.697 137.159 181.173 134.715 178.102C132.272 175.03 129.247 172.47 125.814 170.567C122.381 168.665 118.606 167.458 114.706 167.015C110.806 166.572 106.857 166.901 103.085 167.985ZM115.121 209.957C112.501 210.71 109.716 210.669 107.12 209.84C104.523 209.01 102.231 207.429 100.533 205.297C98.8344 203.164 97.8067 200.576 97.5795 197.86C97.3523 195.143 97.9358 192.42 99.2562 190.036C100.577 187.651 102.574 185.711 104.997 184.462C107.42 183.212 110.159 182.709 112.868 183.017C115.576 183.324 118.133 184.428 120.214 186.188C122.296 187.948 123.808 190.286 124.561 192.906C125.57 196.419 125.142 200.189 123.372 203.387C121.601 206.584 118.634 208.948 115.121 209.957Z" fill="#E0E0E0"/>
<path d="M107.758 166.651C100.151 168.846 93.7271 173.969 89.8951 180.896C86.0632 187.823 85.137 195.988 87.32 203.597C90.2818 213.899 108.348 231.174 120.643 242.018C121.909 243.129 123.435 243.903 125.079 244.268C126.723 244.634 128.433 244.579 130.05 244.108C131.668 243.638 133.14 242.767 134.332 241.577C135.524 240.386 136.396 238.915 136.868 237.298C141.588 221.592 147.712 197.379 144.762 187.065C143.675 183.294 141.855 179.774 139.406 176.706C136.958 173.639 133.928 171.084 130.491 169.188C127.055 167.292 123.278 166.092 119.377 165.657C115.476 165.222 111.528 165.56 107.758 166.651ZM119.794 208.624C117.172 209.379 114.384 209.34 111.785 208.511C109.185 207.682 106.889 206.101 105.189 203.967C103.488 201.833 102.458 199.243 102.23 196.524C102.001 193.804 102.584 191.079 103.905 188.691C105.226 186.303 107.226 184.361 109.651 183.11C112.076 181.859 114.817 181.355 117.529 181.662C120.24 181.97 122.799 183.074 124.883 184.836C126.966 186.598 128.48 188.938 129.234 191.561C129.735 193.301 129.888 195.123 129.685 196.923C129.482 198.722 128.926 200.464 128.05 202.049C127.173 203.634 125.993 205.03 124.576 206.158C123.159 207.286 121.534 208.124 119.794 208.624Z" fill="#F5F5F5"/>
<path d="M451.834 92.04C448.55 91.0906 445.112 90.7989 441.715 91.1818C438.318 91.5647 435.031 92.6146 432.041 94.2712C429.051 95.9278 426.418 98.1585 424.293 100.835C422.167 103.512 420.591 106.582 419.655 109.87C417.083 118.85 422.452 139.936 426.535 153.612C426.95 155.021 427.715 156.303 428.759 157.337C429.802 158.371 431.089 159.125 432.502 159.529C433.914 159.933 435.406 159.973 436.838 159.646C438.271 159.32 439.597 158.636 440.695 157.66C451.409 148.22 467.138 133.187 469.711 124.219C470.659 120.932 470.949 117.49 470.563 114.091C470.177 110.692 469.123 107.403 467.462 104.413C465.801 101.423 463.565 98.79 460.883 96.6667C458.201 94.5433 455.126 92.971 451.834 92.04ZM441.32 128.62C439.04 127.966 437.005 126.65 435.473 124.84C433.94 123.03 432.978 120.806 432.708 118.45C432.439 116.093 432.873 113.71 433.957 111.6C435.042 109.49 436.727 107.749 438.8 106.597C440.873 105.444 443.241 104.932 445.605 105.124C447.969 105.317 450.223 106.205 452.082 107.678C453.941 109.151 455.323 111.141 456.051 113.398C456.78 115.656 456.823 118.078 456.176 120.36C455.745 121.879 455.019 123.298 454.038 124.536C453.058 125.774 451.843 126.806 450.463 127.574C449.083 128.341 447.565 128.828 445.996 129.008C444.427 129.188 442.838 129.056 441.32 128.62Z" fill="#E0E0E0"/>
<path d="M455.905 93.22C452.621 92.2706 449.183 91.9789 445.786 92.3618C442.389 92.7447 439.102 93.7946 436.112 95.4512C433.122 97.1078 430.489 99.3385 428.364 102.015C426.238 104.692 424.662 107.762 423.726 111.05C421.154 120.018 426.523 141.116 430.606 154.792C431.021 156.201 431.786 157.483 432.83 158.517C433.873 159.551 435.16 160.305 436.573 160.709C437.985 161.113 439.477 161.153 440.909 160.826C442.342 160.5 443.668 159.816 444.766 158.84C455.468 149.4 471.198 134.367 473.77 125.399C474.719 122.113 475.009 118.672 474.624 115.273C474.239 111.875 473.186 108.586 471.526 105.596C469.865 102.606 467.631 99.9733 464.95 97.8494C462.269 95.7255 459.195 94.1522 455.905 93.22ZM445.426 129.8C443.145 129.148 441.109 127.834 439.574 126.024C438.04 124.215 437.076 121.991 436.805 119.634C436.533 117.277 436.967 114.893 438.05 112.782C439.134 110.671 440.818 108.929 442.891 107.776C444.965 106.622 447.333 106.109 449.698 106.301C452.063 106.493 454.317 107.382 456.177 108.855C458.037 110.328 459.419 112.319 460.147 114.577C460.876 116.835 460.919 119.258 460.271 121.54C459.398 124.604 457.343 127.195 454.559 128.744C451.775 130.293 448.49 130.673 445.426 129.8Z" fill="#F5F5F5"/>
<path d="M295 438.972C421.357 438.972 523.79 432.991 523.79 425.614C523.79 418.237 421.357 412.257 295 412.257C168.643 412.257 66.2098 418.237 66.2098 425.614C66.2098 432.991 168.643 438.972 295 438.972Z" fill="#F5F5F5"/>
<path d="M222.43 156.787H235.056C235.682 156.775 236.303 156.896 236.878 157.142C237.454 157.389 237.97 157.754 238.394 158.215C238.818 158.675 239.139 159.22 239.337 159.814C239.534 160.408 239.604 161.037 239.54 161.66L237.18 188.293C237.045 189.618 236.429 190.848 235.448 191.751C234.467 192.653 233.19 193.165 231.858 193.19H219.244C218.617 193.2 217.995 193.077 217.419 192.828C216.843 192.58 216.327 192.212 215.904 191.749C215.481 191.286 215.162 190.738 214.966 190.143C214.771 189.547 214.705 188.916 214.772 188.293L217.12 161.66C217.26 160.341 217.877 159.118 218.855 158.221C219.832 157.323 221.103 156.814 222.43 156.787Z" fill="#407BFF"/>
<path opacity="0.2" d="M363.676 151.099H383.406C384.385 151.081 385.357 151.273 386.257 151.66C387.157 152.047 387.964 152.622 388.625 153.345C389.286 154.068 389.785 154.924 390.089 155.855C390.394 156.786 390.497 157.771 390.391 158.745L387.96 186.558C387.749 188.619 386.793 190.532 385.273 191.939C383.753 193.347 381.771 194.152 379.7 194.204H359.9C358.921 194.22 357.951 194.028 357.052 193.64C356.154 193.252 355.348 192.677 354.689 191.954C354.029 191.231 353.531 190.376 353.227 189.445C352.923 188.515 352.821 187.531 352.926 186.558L355.357 158.745C355.57 156.675 356.534 154.753 358.066 153.345C359.599 151.936 361.595 151.137 363.676 151.099Z" fill="#212529"/>
<path opacity="0.2" d="M359.629 197.308H379.37C380.349 197.292 381.319 197.485 382.218 197.873C383.116 198.261 383.922 198.835 384.581 199.558C385.241 200.281 385.739 201.136 386.043 202.067C386.347 202.997 386.449 203.981 386.344 204.954L383.913 232.767C383.702 234.839 382.739 236.761 381.206 238.17C379.673 239.58 377.676 240.378 375.594 240.413H355.864C354.885 240.431 353.913 240.239 353.013 239.852C352.113 239.465 351.306 238.891 350.645 238.167C349.984 237.444 349.485 236.588 349.181 235.657C348.876 234.726 348.773 233.741 348.879 232.767L351.321 204.954C351.532 202.884 352.493 200.963 354.024 199.554C355.555 198.145 357.548 197.346 359.629 197.308Z" fill="#212529"/>
<path d="M257.842 98.9548H367.771C371.314 98.8916 374.829 99.584 378.084 100.986C381.339 102.388 384.257 104.467 386.645 107.085C389.033 109.703 390.836 112.8 391.934 116.169C393.031 119.539 393.399 123.103 393.011 126.626L369.552 394.686C368.789 402.177 365.306 409.129 359.764 414.226C354.221 419.322 347.003 422.211 339.474 422.346H229.545C226.003 422.409 222.489 421.716 219.235 420.315C215.981 418.914 213.063 416.836 210.676 414.219C208.288 411.602 206.485 408.507 205.386 405.139C204.288 401.771 203.919 398.208 204.305 394.686L227.74 126.626C228.501 119.129 231.986 112.171 237.534 107.071C243.082 101.972 250.307 99.0837 257.842 98.9548Z" fill="#407BFF"/>
<path opacity="0.2" d="M257.842 98.9548H367.771C371.314 98.8916 374.829 99.584 378.084 100.986C381.339 102.388 384.257 104.467 386.645 107.085C389.033 109.703 390.836 112.8 391.934 116.169C393.031 119.539 393.399 123.103 393.011 126.626L369.552 394.686C368.789 402.177 365.306 409.129 359.764 414.226C354.221 419.322 347.003 422.211 339.474 422.346H229.545C226.003 422.409 222.489 421.716 219.235 420.315C215.981 418.914 213.063 416.836 210.676 414.219C208.288 411.602 206.485 408.507 205.386 405.139C204.288 401.771 203.919 398.208 204.305 394.686L227.74 126.626C228.501 119.129 231.986 112.171 237.534 107.071C243.082 101.972 250.307 99.0837 257.842 98.9548Z" fill="#212529"/>
<path d="M254.29 98.9548H364.231C367.773 98.8935 371.288 99.5872 374.542 100.99C377.795 102.392 380.713 104.472 383.101 107.089C385.488 109.707 387.291 112.803 388.39 116.171C389.488 119.54 389.857 123.104 389.471 126.626L366.012 394.686C365.246 402.176 361.763 409.126 356.221 414.223C350.679 419.319 343.462 422.209 335.934 422.346H226.005C222.463 422.41 218.947 421.72 215.693 420.319C212.438 418.918 209.519 416.84 207.131 414.223C204.743 411.606 202.94 408.51 201.842 405.141C200.744 401.772 200.377 398.208 200.765 394.686L224.2 126.626C225.545 111.345 239.021 98.9548 254.29 98.9548Z" fill="#407BFF"/>
<path d="M386.167 126.626L362.72 394.675C362.041 401.271 358.97 407.391 354.087 411.878C349.204 416.365 342.848 418.909 336.217 419.03H226.289C223.169 419.087 220.073 418.479 217.207 417.246C214.341 416.013 211.77 414.183 209.667 411.878C207.563 409.574 205.975 406.848 205.008 403.881C204.04 400.915 203.717 397.776 204.057 394.675L227.516 126.626C228.192 120.029 231.26 113.908 236.141 109.419C241.021 104.93 247.377 102.383 254.007 102.259H363.936C367.056 102.203 370.152 102.813 373.018 104.048C375.884 105.282 378.455 107.113 380.558 109.418C382.661 111.724 384.249 114.451 385.216 117.418C386.184 120.385 386.508 123.524 386.167 126.626Z" fill="white"/>
<g opacity="0.1">
<path d="M226.289 419.03H267.966L335.297 102.259H282.197L215.433 416.351C218.775 418.126 222.504 419.047 226.289 419.03Z" fill="#212529"/>
<path d="M360.785 102.259H350.684L283.342 419.03H293.454L360.785 102.259Z" fill="#212529"/>
</g>
<path d="M276.745 101.48C276.643 102.469 276.749 103.469 277.059 104.415C277.368 105.36 277.874 106.229 278.541 106.966C279.209 107.703 280.025 108.291 280.936 108.692C281.846 109.093 282.831 109.297 283.825 109.292H332.795C334.918 109.246 336.951 108.427 338.513 106.989C340.075 105.55 341.059 103.592 341.28 101.48H276.745Z" fill="#407BFF"/>
<path d="M361.941 110.92H373.057C373.272 110.919 373.485 110.963 373.682 111.05C373.879 111.136 374.055 111.263 374.2 111.422C374.344 111.581 374.454 111.769 374.521 111.973C374.589 112.177 374.613 112.393 374.591 112.607L374.166 117.445C374.12 117.901 373.909 118.325 373.572 118.636C373.235 118.947 372.796 119.124 372.337 119.133H361.222C361.006 119.136 360.792 119.093 360.594 119.007C360.397 118.921 360.219 118.794 360.074 118.635C359.929 118.475 359.82 118.287 359.753 118.082C359.687 117.877 359.664 117.66 359.688 117.445L360.112 112.607C360.158 112.151 360.37 111.728 360.707 111.417C361.044 111.106 361.483 110.929 361.941 110.92Z" fill="#407BFF"/>
<path d="M243.257 110.92H258.137C258.38 110.917 258.621 110.966 258.843 111.062C259.066 111.159 259.266 111.302 259.43 111.481C259.594 111.66 259.718 111.872 259.794 112.103C259.87 112.334 259.896 112.578 259.871 112.82L259.482 117.233C259.43 117.748 259.191 118.225 258.811 118.575C258.43 118.925 257.934 119.124 257.417 119.133H242.537C242.295 119.136 242.054 119.088 241.832 118.991C241.61 118.894 241.41 118.751 241.247 118.571C241.085 118.392 240.962 118.179 240.887 117.949C240.812 117.718 240.788 117.474 240.814 117.233L241.192 112.82C241.244 112.305 241.483 111.828 241.863 111.477C242.244 111.127 242.74 110.929 243.257 110.92Z" fill="#407BFF"/>
<path opacity="0.4" d="M243.257 110.92H258.137C258.38 110.917 258.621 110.966 258.843 111.062C259.066 111.159 259.266 111.302 259.43 111.481C259.594 111.66 259.718 111.872 259.794 112.103C259.87 112.334 259.896 112.578 259.871 112.82L259.482 117.233C259.43 117.748 259.191 118.225 258.811 118.575C258.43 118.925 257.934 119.124 257.417 119.133H242.537C242.295 119.136 242.054 119.088 241.832 118.991C241.61 118.894 241.41 118.751 241.247 118.571C241.085 118.392 240.962 118.179 240.887 117.949C240.812 117.718 240.788 117.474 240.814 117.233L241.192 112.82C241.244 112.305 241.483 111.828 241.863 111.477C242.244 111.127 242.74 110.929 243.257 110.92Z" fill="white"/>
<path d="M358.98 112.289H360.726C360.805 112.287 360.884 112.301 360.956 112.332C361.029 112.363 361.095 112.409 361.148 112.467C361.202 112.525 361.243 112.594 361.268 112.669C361.292 112.744 361.301 112.824 361.292 112.902L360.927 117.08C360.909 117.247 360.831 117.401 360.707 117.514C360.583 117.628 360.422 117.691 360.254 117.693H358.508C358.429 117.695 358.35 117.681 358.277 117.65C358.204 117.619 358.139 117.573 358.085 117.515C358.031 117.457 357.991 117.388 357.966 117.313C357.941 117.238 357.933 117.158 357.941 117.08L358.307 112.902C358.324 112.735 358.402 112.581 358.526 112.468C358.65 112.354 358.812 112.291 358.98 112.289Z" fill="#407BFF"/>
<path d="M370.85 112.289H372.609C372.687 112.288 372.764 112.304 372.835 112.336C372.907 112.367 372.971 112.414 373.023 112.471C373.075 112.529 373.115 112.598 373.139 112.672C373.163 112.746 373.171 112.825 373.163 112.902L372.797 117.08C372.783 117.246 372.707 117.4 372.585 117.514C372.463 117.627 372.303 117.691 372.137 117.693H370.378C370.3 117.694 370.223 117.678 370.152 117.646C370.08 117.615 370.016 117.568 369.964 117.51C369.911 117.453 369.872 117.384 369.848 117.31C369.824 117.236 369.815 117.157 369.824 117.08L370.19 112.902C370.204 112.736 370.28 112.582 370.402 112.468C370.524 112.355 370.684 112.291 370.85 112.289Z" fill="white"/>
<path d="M367.086 112.289H368.844C368.922 112.288 369 112.304 369.071 112.336C369.143 112.367 369.207 112.414 369.259 112.471C369.311 112.529 369.351 112.598 369.375 112.672C369.399 112.746 369.407 112.825 369.399 112.902L369.033 117.08C369.019 117.246 368.943 117.4 368.821 117.514C368.699 117.627 368.539 117.691 368.372 117.693H366.614C366.536 117.694 366.459 117.678 366.387 117.646C366.316 117.615 366.252 117.568 366.2 117.51C366.147 117.453 366.108 117.384 366.084 117.31C366.059 117.236 366.051 117.157 366.06 117.08L366.425 112.902C366.44 112.736 366.516 112.582 366.638 112.468C366.76 112.355 366.92 112.291 367.086 112.289Z" fill="white"/>
<path d="M386.839 186.369L384.479 213.781C385.635 213.559 386.688 212.971 387.482 212.103C388.277 211.236 388.772 210.136 388.893 208.966L390.403 191.16C390.523 190.059 390.222 188.954 389.561 188.065C388.9 187.177 387.928 186.571 386.839 186.369Z" fill="#407BFF"/>
<path opacity="0.2" d="M386.839 186.369L384.479 213.781C385.635 213.559 386.688 212.971 387.482 212.103C388.277 211.236 388.772 210.136 388.893 208.966L390.403 191.16C390.523 190.059 390.222 188.954 389.561 188.065C388.9 187.177 387.928 186.571 386.839 186.369Z" fill="#212529"/>
<path d="M389.4 156.787L387.04 184.198C388.193 183.978 389.244 183.392 390.037 182.526C390.83 181.661 391.322 180.563 391.441 179.395L392.94 161.66C393.077 160.55 392.788 159.43 392.131 158.525C391.474 157.621 390.498 156.999 389.4 156.787Z" fill="#407BFF"/>
<path opacity="0.2" d="M389.4 156.787L387.04 184.198C388.193 183.978 389.244 183.392 390.037 182.526C390.83 181.661 391.322 180.563 391.441 179.395L392.94 161.66C393.077 160.55 392.788 159.43 392.131 158.525C391.474 157.621 390.498 156.999 389.4 156.787Z" fill="#212529"/>
<path d="M478.242 219.338H455.079C453.201 219.338 451.4 220.084 450.072 221.412C448.745 222.74 447.999 224.541 447.999 226.418V240.13C448.014 241.997 448.767 243.783 450.093 245.098C451.419 246.413 453.211 247.151 455.079 247.151H461.699V252.496C461.702 252.79 461.792 253.076 461.957 253.319C462.122 253.562 462.355 253.751 462.626 253.863C462.898 253.975 463.196 254.005 463.484 253.948C463.773 253.892 464.038 253.752 464.247 253.547L470.631 247.151H478.242C480.1 247.136 481.876 246.391 483.19 245.078C484.503 243.764 485.248 241.987 485.263 240.13V226.359C485.248 224.502 484.503 222.725 483.19 221.412C481.876 220.098 480.1 219.354 478.242 219.338Z" fill="#407BFF"/>
<path d="M472.637 225.899H461.51C461.404 224.967 461.345 224.507 461.238 223.539H455.114C455.244 224.07 455.315 224.33 455.445 224.861H459.858C459.917 225.25 459.952 225.451 460.011 225.852C460.306 227.799 460.46 228.767 460.755 230.714C460.825 231.245 460.873 231.504 460.955 232.035C461.25 233.982 461.392 234.95 461.687 236.897C461.852 237.947 461.935 238.466 462.088 239.505H474.36C474.478 238.974 474.537 238.714 474.667 238.183H463.044C462.985 237.676 462.949 237.416 462.89 236.897H475.528L476.708 232.035C476.838 231.504 476.897 231.245 477.039 230.714C477.511 228.767 477.758 227.799 478.219 225.852L472.637 225.899ZM461.675 227.209H465.616C465.616 228.637 465.675 229.345 465.722 230.749H462.088L461.675 227.209ZM462.678 235.634C462.501 234.206 462.418 233.498 462.253 232.094H465.793C465.793 233.51 465.852 234.218 465.899 235.634H462.678ZM470.242 235.634H467.044C467.044 234.206 467.044 233.498 467.044 232.094H470.584C470.431 233.498 470.372 234.206 470.242 235.634ZM470.69 230.761H467.056C467.056 229.345 467.056 228.637 467.056 227.221H470.997C470.879 228.637 470.82 229.345 470.69 230.761ZM474.608 235.634H471.422C471.599 234.206 471.681 233.498 471.87 232.094H475.41L474.608 235.634ZM475.658 230.761H472C472.189 229.345 472.271 228.637 472.448 227.221H476.39C476.106 228.637 475.953 229.345 475.658 230.761Z" fill="white"/>
<path d="M462.843 240.779C462.533 240.779 462.229 240.871 461.971 241.043C461.713 241.216 461.512 241.461 461.393 241.748C461.274 242.035 461.243 242.35 461.304 242.655C461.365 242.959 461.514 243.239 461.733 243.458C461.953 243.678 462.233 243.827 462.537 243.888C462.841 243.948 463.157 243.917 463.444 243.798C463.731 243.68 463.976 243.478 464.148 243.22C464.321 242.962 464.413 242.659 464.413 242.348C464.413 241.932 464.247 241.533 463.953 241.239C463.659 240.944 463.259 240.779 462.843 240.779Z" fill="white"/>
<path d="M473.959 243.906C474.819 243.906 475.516 243.209 475.516 242.348C475.516 241.488 474.819 240.791 473.959 240.791C473.099 240.791 472.401 241.488 472.401 242.348C472.401 243.209 473.099 243.906 473.959 243.906Z" fill="white"/>
<path d="M322.742 121.092H285.973C282.94 121.145 280.032 122.308 277.799 124.361C275.566 126.414 274.163 129.213 273.854 132.231L271.955 154.002C271.798 155.42 271.946 156.855 272.388 158.211C272.83 159.567 273.556 160.814 274.517 161.868C275.478 162.922 276.653 163.759 277.963 164.323C279.273 164.888 280.688 165.166 282.114 165.141H292.64L291.897 173.613C291.86 174.078 291.971 174.542 292.212 174.941C292.453 175.34 292.813 175.653 293.242 175.836C293.67 176.02 294.145 176.065 294.6 175.964C295.055 175.864 295.467 175.624 295.779 175.277L306.8 165.2H318.883C321.915 165.144 324.822 163.98 327.054 161.928C329.287 159.876 330.691 157.077 331.002 154.061L332.902 132.29C333.067 130.867 332.926 129.426 332.488 128.062C332.05 126.699 331.326 125.445 330.364 124.384C329.402 123.324 328.224 122.481 326.909 121.913C325.594 121.345 324.174 121.065 322.742 121.092Z" fill="#407BFF"/>
<path d="M311.744 131.499H294.103L293.985 127.841H284.274C284.404 128.679 284.474 129.092 284.604 129.93H291.613C291.613 130.555 291.672 130.874 291.708 131.499C291.908 134.591 292.015 136.137 292.215 139.228C292.215 140.054 292.298 140.479 292.345 141.317C292.546 144.397 292.652 145.942 292.841 149.034C292.959 150.686 293.006 151.512 293.112 153.164H312.488L313.16 151.075H294.717V149.034H314.777C315.815 145.942 316.334 144.397 317.361 141.317L318.057 139.228C319.096 136.137 319.615 134.591 320.641 131.499H311.744ZM294.162 133.588H300.416C300.286 135.842 300.227 136.963 300.098 139.228H294.339L294.162 133.588ZM294.587 146.945L294.41 141.317H299.98C299.85 143.571 299.779 144.692 299.649 146.945H294.587ZM306.588 146.945H301.525C301.726 144.692 301.832 143.571 302.033 141.317H307.602C307.201 143.571 307.001 144.692 306.588 146.945ZM307.98 139.24H302.222C302.434 136.974 302.528 135.853 302.729 133.6H308.995C308.582 135.842 308.381 136.963 307.98 139.24ZM313.526 146.957H308.464L309.644 141.329H315.202C314.553 143.571 314.21 144.692 313.526 146.945V146.957ZM315.886 139.24H310.104C310.588 136.974 310.824 135.853 311.284 133.6H317.538C316.877 135.842 316.535 136.963 315.862 139.24H315.886Z" fill="white"/>
<path d="M294.15 155.123C293.475 155.134 292.827 155.392 292.329 155.849C291.831 156.305 291.517 156.929 291.448 157.601C291.415 157.916 291.449 158.236 291.548 158.537C291.647 158.839 291.809 159.116 292.023 159.35C292.237 159.584 292.499 159.77 292.79 159.896C293.082 160.022 293.396 160.084 293.714 160.079C294.389 160.068 295.038 159.81 295.536 159.353C296.034 158.896 296.347 158.273 296.416 157.601C296.449 157.285 296.416 156.966 296.316 156.665C296.217 156.363 296.055 156.086 295.841 155.852C295.627 155.617 295.365 155.431 295.074 155.306C294.783 155.18 294.468 155.118 294.15 155.123Z" fill="white"/>
<path d="M311.768 155.123C311.093 155.134 310.447 155.393 309.951 155.85C309.455 156.306 309.144 156.93 309.077 157.601C309.044 157.916 309.078 158.236 309.177 158.537C309.276 158.839 309.438 159.116 309.652 159.35C309.866 159.584 310.128 159.77 310.419 159.896C310.711 160.022 311.026 160.084 311.343 160.079C312.017 160.068 312.664 159.809 313.16 159.352C313.656 158.895 313.967 158.272 314.033 157.601C314.067 157.285 314.033 156.966 313.934 156.665C313.835 156.363 313.673 156.086 313.459 155.852C313.244 155.617 312.983 155.431 312.691 155.306C312.4 155.18 312.085 155.118 311.768 155.123Z" fill="white"/>
<path d="M349.162 275.152H307.119V317.196H349.162V275.152Z" fill="#407BFF"/>
<path d="M374.969 275.152H349.15V317.196H374.969V275.152Z" fill="#407BFF"/>
<path d="M341.126 264.603H299.083L307.119 275.152H349.15L341.126 264.603Z" fill="#407BFF"/>
<path opacity="0.3" d="M374.969 275.152H349.15V317.196H374.969V275.152Z" fill="white"/>
<path opacity="0.4" d="M341.126 264.603H299.083L307.119 275.152H349.15L341.126 264.603Z" fill="white"/>
<path d="M356.761 264.603H382.58L374.98 275.152H349.15L356.761 264.603Z" fill="#407BFF"/>
<path opacity="0.6" d="M349.162 275.152H307.119V317.196H349.162V275.152Z" fill="white"/>
<path opacity="0.2" d="M356.761 264.603H382.58L374.98 275.152H349.15L356.761 264.603Z" fill="white"/>
<path d="M467.457 316.157H361.493V422.121H467.457V316.157Z" fill="#407BFF"/>
<path opacity="0.4" d="M467.457 316.157H361.493V422.121H467.457V316.157Z" fill="white"/>
<path d="M361.469 316.157H296.381V422.121H361.469V316.157Z" fill="#407BFF"/>
<path opacity="0.6" d="M361.469 316.157H296.381V422.121H361.469V316.157Z" fill="white"/>
<path opacity="0.5" d="M316.488 316.157V344.619L319.072 345.976L321.302 344.123L324.83 345.976L328.182 344.123L330.778 345.976L333.751 344.123L335.439 345.646V316.157H316.488Z" fill="white"/>
<path opacity="0.5" d="M335.439 422.121V393.66L332.854 392.291L330.624 394.155L327.096 392.291L323.745 394.155L321.149 392.291L318.175 394.155L316.488 392.633V422.121H335.439Z" fill="white"/>
<path d="M404.74 359.369C405.342 361.788 405.637 363.003 406.239 365.422C406.392 366.071 406.475 366.402 406.64 367.063C407.242 369.482 407.537 370.697 408.138 373.116H423.856C423.773 373.753 423.738 374.072 423.667 374.709H409.189C409.342 375.37 409.413 375.7 409.566 376.349H424.8L425.296 373.116C425.661 370.697 425.85 369.482 426.216 367.063C426.322 366.402 426.369 366.071 426.464 365.422C426.83 363.003 427.018 361.788 427.384 359.369C427.467 358.873 427.502 358.626 427.573 358.13H433.06C433.213 357.481 433.296 357.151 433.461 356.502H425.85C425.709 357.682 425.638 358.213 425.508 359.369H404.74ZM424.8 365.422H420.292C420.292 363.652 420.363 362.767 420.422 360.997H425.319C425.06 362.767 424.965 363.652 424.8 365.422ZM420.08 371.476C420.08 369.706 420.163 368.821 420.21 367.063H424.576L424.045 371.476H420.08ZM414.18 367.063H418.534C418.534 368.821 418.534 369.706 418.534 371.476H414.558C414.451 369.706 414.369 368.821 414.18 367.063ZM413.625 360.997H418.522C418.522 362.767 418.522 363.652 418.522 365.422H414.062C413.897 363.652 413.814 362.767 413.661 360.997H413.625ZM408.197 367.063H412.563C412.776 368.821 412.894 369.706 413.118 371.476H409.141L408.197 367.063ZM406.899 360.997H411.82C412.032 362.767 412.15 363.652 412.363 365.422H407.855L406.899 360.997Z" fill="white"/>
<path d="M423.809 381.777C424.884 381.777 425.756 380.906 425.756 379.83C425.756 378.755 424.884 377.883 423.809 377.883C422.733 377.883 421.862 378.755 421.862 379.83C421.862 380.906 422.733 381.777 423.809 381.777Z" fill="white"/>
<path d="M409.991 381.777C411.066 381.777 411.938 380.906 411.938 379.83C411.938 378.755 411.066 377.883 409.991 377.883C408.916 377.883 408.044 378.755 408.044 379.83C408.044 380.906 408.916 381.777 409.991 381.777Z" fill="white"/>
<g opacity="0.5">
<path d="M314.576 359.369C315.178 361.788 315.473 363.003 316.075 365.422C316.228 366.071 316.311 366.402 316.476 367.063C317.078 369.482 317.373 370.697 317.975 373.116H333.692C333.61 373.753 333.574 374.072 333.503 374.709H319.048C319.202 375.37 319.273 375.7 319.426 376.349H334.613L335.108 373.116C335.474 370.697 335.663 369.482 336.029 367.063C336.123 366.402 336.182 366.071 336.276 365.422C336.642 363.003 336.831 361.788 337.197 359.369L337.386 358.13H342.884C343.038 357.481 343.12 357.151 343.286 356.502H335.675C335.533 357.682 335.462 358.213 335.332 359.369H314.576ZM334.636 365.422H330.129L330.258 360.997H335.12C334.919 362.767 334.813 363.652 334.613 365.422H334.636ZM329.916 371.476C329.975 369.706 329.999 368.821 330.046 367.063H334.412L333.881 371.476H329.916ZM324.075 367.063H328.429C328.429 368.821 328.429 369.706 328.429 371.476H324.5C324.311 369.706 324.229 368.821 324.075 367.063ZM323.509 360.997H328.418C328.418 362.767 328.418 363.652 328.418 365.422H323.91L323.509 360.997ZM318.093 367.063H322.459L323.001 371.476H319.037L318.093 367.063ZM316.795 360.997H321.703C321.916 362.767 322.034 363.652 322.246 365.422H317.739L316.795 360.997Z" fill="white"/>
<path d="M333.668 381.777C334.744 381.777 335.616 380.906 335.616 379.83C335.616 378.755 334.744 377.883 333.668 377.883C332.593 377.883 331.721 378.755 331.721 379.83C331.721 380.906 332.593 381.777 333.668 381.777Z" fill="white"/>
<path d="M319.851 381.777C320.926 381.777 321.798 380.906 321.798 379.83C321.798 378.755 320.926 377.883 319.851 377.883C318.775 377.883 317.904 378.755 317.904 379.83C317.904 380.906 318.775 381.777 319.851 381.777Z" fill="white"/>
</g>
<path d="M428.765 231.835C428.765 231.835 432.446 258.255 435.75 262.81C439.054 267.364 453.899 279.967 453.899 279.967L463.28 278.598L469.569 284.498L465.014 287.649L459.999 285.407C457.171 285.72 454.32 285.788 451.48 285.607C446.689 285.312 427.974 272.627 424.529 266.007C421.083 259.388 417.189 234.879 417.189 234.879L428.765 231.835Z" fill="#CE7A63"/>
<path d="M431.88 239.469L430.936 239.634C430.287 233.428 427.691 214.571 420.576 219.409C413.743 224.07 415.667 237.298 416.658 242.242L415.478 242.443L416.516 245.7L432.246 242.691L431.88 239.469Z" fill="#407BFF"/>
<path opacity="0.2" d="M425.98 226.997L424.245 223.268L418.806 228.743L415.679 233.463C415.765 236.417 416.105 239.358 416.693 242.254L415.513 242.455L416.552 245.711L425.425 244.012C426.414 238.395 426.601 232.666 425.98 226.997Z" fill="#212529"/>
<path d="M426.523 179.584C426.523 179.584 445.285 183.643 435.314 192.564L427.054 185.354L426.523 179.584Z" fill="#212529"/>
<path d="M452.565 377.694L440.624 406.946L432.34 403.725L439.019 374.65L452.565 377.694Z" fill="#CE7A63"/>
<path opacity="0.2" d="M439.609 372.585L434.901 393.082L445.108 395.359L453.155 375.618L439.609 372.585Z" fill="#212529"/>
<path d="M442.5 406.262C444.022 409.72 445.049 412.563 451.279 416.257C452.636 417.036 450.335 420.623 446.949 419.101C441.355 416.575 442.819 416.528 438.028 414.451C434.004 412.67 431.007 411.596 427.726 410.227C427.641 410.191 427.562 410.144 427.49 410.085C427.212 409.876 427.027 409.566 426.976 409.221C426.925 408.876 427.012 408.525 427.219 408.245L432.057 401.625C432.163 401.476 432.318 401.369 432.494 401.322C432.671 401.275 432.858 401.29 433.025 401.365L440.86 404.74C441.573 405.031 442.156 405.573 442.5 406.262Z" fill="#212529"/>
<path d="M479.292 308.948C477.77 327.828 450.654 390.238 450.654 390.238L434.559 385.754C434.559 385.754 446.854 325.798 454.878 315.874C454.878 315.874 452.259 315.874 448.046 315.957C433.379 316.087 399.383 316.063 389.577 313.455C382.58 311.591 367.959 307.85 371.877 284.439L390.002 283.814L411.112 283.082C411.112 283.082 481.44 283.2 479.292 308.948Z" fill="#212529"/>
<path opacity="0.2" d="M448.046 315.957C433.379 316.087 399.383 316.063 389.577 313.455C382.58 311.591 367.959 307.85 371.877 284.439L390.002 283.814C404.268 285.501 422.912 288.321 435.621 293.785C441.804 296.44 446.099 301.23 447.362 306.871C447.796 309.88 448.025 312.916 448.046 315.957Z" fill="#212529"/>
<path d="M424.576 376.656L418.605 406.475L409.625 406.062L410.687 376.243L424.576 376.656Z" fill="#CE7A63"/>
<path opacity="0.2" d="M424.576 376.656L410.687 376.243L410.074 394.073L421.012 394.462L424.576 376.656Z" fill="#212529"/>
<path d="M419.974 407.183C421.437 410.723 422.334 413.696 428.623 417.637C429.968 418.511 427.514 422.11 424.127 420.434C418.511 417.685 420.009 417.696 415.183 415.419C411.112 413.496 408.103 412.304 404.811 410.805L404.563 410.687C404.423 410.579 404.306 410.444 404.219 410.29C404.132 410.136 404.076 409.966 404.055 409.79C404.034 409.614 404.049 409.436 404.097 409.266C404.146 409.096 404.228 408.937 404.339 408.799L409.472 402.179C409.582 402.032 409.74 401.928 409.919 401.885C410.098 401.842 410.286 401.863 410.451 401.943L418.31 405.613C419.04 405.911 419.633 406.471 419.974 407.183Z" fill="#212529"/>
<path d="M361.281 284.38C361.281 284.38 356.148 302.823 364.632 310.104C376.491 320.287 419.337 317.184 419.337 317.184C411.938 340.867 408.634 387.913 408.634 387.913H424.694C424.694 387.913 446.571 323.556 443.338 306.918C440.105 290.28 382.709 284.392 382.709 284.392L361.281 284.38Z" fill="#212529"/>
<path d="M433.131 387.618L451.35 392.208L455.067 384.409L435.054 378.733L433.131 387.618Z" fill="#407BFF"/>
<path d="M407.041 390.202L425.626 391.158L427.549 382.981L407.041 382.025V390.202Z" fill="#407BFF"/>
<path d="M415.561 258.88C420.281 244.968 426.181 234.383 426.865 222.524C410.711 199.208 379.122 212.99 379.122 212.99C360.006 248.862 361.281 284.38 361.281 284.38C404.716 284.38 407.206 283.637 407.206 283.637C407.206 283.637 407.36 277.536 415.561 258.88Z" fill="#407BFF"/>
<path opacity="0.2" d="M400.976 212.306C401.672 216.412 403.123 223.822 404.846 224.896C407.206 226.336 410.746 224.318 410.746 224.318C410.746 224.318 413.614 228.2 416.646 225.616C418.349 223.985 419.677 222.004 420.54 219.81C419.648 221.331 418.52 222.701 417.201 223.87C414.133 226.442 411.301 222.572 411.301 222.572C411.301 222.572 407.761 224.578 405.401 223.15C403.843 222.218 402.026 216.353 400.976 212.306Z" fill="#212529"/>
<path d="M404.87 206.642L409.177 208.117L405.802 211.078L404.87 206.642Z" fill="#407BFF"/>
<path opacity="0.2" d="M404.87 206.642L409.177 208.117L405.802 211.078L404.87 206.642Z" fill="#212529"/>
<path d="M418.558 211.078L419.738 214.618C419.738 214.618 413.578 221.061 411.808 221.132C410.038 221.203 404.846 209.013 404.846 209.013C411.702 205.91 411.065 202.5 411.065 202.5L418.558 211.078Z" fill="#CE7A63"/>
<path opacity="0.2" d="M416.316 217.911C418.133 216.247 419.761 214.559 419.761 214.559L418.581 211.019L411.914 203.314C411.041 206.724 410.192 213.733 416.316 217.911Z" fill="#212529"/>
<path d="M422.074 217.12C420.965 219.716 419.325 222.051 417.26 223.976C414.18 226.548 411.36 222.69 411.36 222.69C411.36 222.69 407.82 224.684 405.46 223.256C403.1 221.828 400.02 208.73 400.02 208.73L404.87 206.642L411.549 220.802L420.552 213.356L422.074 217.12Z" fill="#407BFF"/>
<path d="M410.829 190.535C410.819 188.439 411.361 186.379 412.399 184.559C413.438 182.739 414.937 181.225 416.746 180.168C418.555 179.111 420.61 178.549 422.705 178.537C424.801 178.526 426.862 179.066 428.682 180.103C437.249 184.717 437.485 198.193 434.936 206.063C434.32 208.131 433.149 209.99 431.551 211.438C429.953 212.887 427.988 213.869 425.87 214.279C423.752 214.689 421.562 214.511 419.539 213.763C417.515 213.016 415.735 211.728 414.392 210.04C410.192 204.872 410.734 199.573 410.852 190.476L410.829 190.535Z" fill="#CE7A63"/>
<path d="M426.782 196.175C427.278 196.175 427.585 196.895 427.455 197.615C427.325 198.334 426.889 198.795 426.405 198.795C425.921 198.795 425.614 198.075 425.732 197.355C425.85 196.635 426.287 196.14 426.782 196.175Z" fill="#212529"/>
<path d="M434.96 197.709C435.467 197.709 435.774 198.405 435.656 199.137C435.538 199.868 435.078 200.317 434.582 200.317C434.087 200.317 433.803 199.609 433.91 198.877C434.016 198.146 434.464 197.65 434.96 197.709Z" fill="#212529"/>
<path d="M424.588 194.452C425.01 194.126 425.505 193.905 426.031 193.808C426.556 193.712 427.097 193.743 427.608 193.898C427.713 193.932 427.827 193.924 427.926 193.875C428.026 193.827 428.102 193.742 428.139 193.638C428.172 193.53 428.163 193.414 428.115 193.311C428.067 193.209 427.984 193.128 427.88 193.083C427.222 192.886 426.526 192.852 425.851 192.983C425.177 193.115 424.545 193.408 424.009 193.839C423.947 193.88 423.899 193.938 423.87 194.007C423.841 194.075 423.833 194.151 423.847 194.224C423.86 194.297 423.896 194.365 423.948 194.418C424 194.471 424.066 194.508 424.139 194.523C424.211 194.561 424.294 194.575 424.375 194.563C424.456 194.55 424.531 194.511 424.588 194.452Z" fill="#212529"/>
<path d="M437.025 196.753C437.12 196.692 437.188 196.597 437.215 196.487C437.241 196.377 437.224 196.261 437.166 196.163C436.831 195.559 436.358 195.043 435.786 194.655C435.215 194.268 434.559 194.02 433.874 193.933C433.783 193.936 433.696 193.969 433.625 194.026C433.555 194.084 433.505 194.163 433.485 194.252C433.471 194.307 433.468 194.364 433.476 194.42C433.485 194.476 433.505 194.53 433.534 194.578C433.564 194.627 433.603 194.669 433.649 194.702C433.696 194.735 433.748 194.758 433.803 194.771C434.357 194.855 434.883 195.066 435.342 195.388C435.8 195.709 436.178 196.132 436.447 196.623C436.478 196.686 436.525 196.739 436.583 196.778C436.641 196.817 436.707 196.841 436.777 196.848C436.867 196.84 436.953 196.808 437.025 196.753Z" fill="#212529"/>
<path d="M430.11 205.757C430.666 206.01 431.269 206.14 431.88 206.14C432.491 206.14 433.094 206.01 433.65 205.757C432.567 203.555 431.774 201.223 431.29 198.818L430.11 205.757Z" fill="#BA4D3C"/>
<path d="M410.262 196.423C406.722 183.561 412.445 180.21 418.629 177.897C424.812 175.584 428.246 177.802 430.216 179.974C430.83 180.658 432.057 182.711 428.092 182.983C425.691 183.075 423.288 182.889 420.93 182.428C420.458 182.346 419.973 182.395 419.528 182.569C419.083 182.744 418.694 183.038 418.404 183.419C417.036 185.213 414.864 188.564 414.864 191.49C414.947 192.603 414.785 193.721 414.389 194.765C413.994 195.809 413.375 196.753 412.575 197.532L410.262 196.423Z" fill="#212529"/>
<path d="M405.802 261.063C406.11 261.065 406.41 261.159 406.665 261.332C406.92 261.505 407.118 261.75 407.234 262.036C407.349 262.321 407.378 262.634 407.315 262.936C407.253 263.238 407.103 263.514 406.883 263.73C406.664 263.947 406.385 264.093 406.082 264.151C405.78 264.208 405.467 264.175 405.183 264.055C404.899 263.935 404.658 263.734 404.489 263.476C404.319 263.219 404.23 262.917 404.233 262.609C404.233 262.403 404.274 262.199 404.354 262.009C404.433 261.819 404.55 261.647 404.698 261.503C404.845 261.359 405.02 261.246 405.211 261.17C405.403 261.095 405.608 261.058 405.814 261.063H405.802Z" fill="#407BFF"/>
<path d="M402.38 277.536C402.585 277.536 402.787 277.576 402.976 277.655C403.165 277.733 403.337 277.848 403.481 277.992C403.626 278.137 403.741 278.309 403.819 278.498C403.897 278.687 403.938 278.889 403.938 279.094C403.938 279.298 403.897 279.501 403.819 279.69C403.741 279.879 403.626 280.05 403.481 280.195C403.337 280.34 403.165 280.454 402.976 280.533C402.787 280.611 402.585 280.651 402.38 280.651C401.966 280.648 401.57 280.481 401.278 280.187C400.986 279.893 400.822 279.496 400.822 279.082C400.822 278.878 400.863 278.676 400.941 278.488C401.02 278.299 401.135 278.128 401.279 277.985C401.424 277.841 401.596 277.727 401.785 277.65C401.974 277.573 402.176 277.534 402.38 277.536Z" fill="#407BFF"/>
<path d="M410.357 193.52C412.858 193.968 414.062 197.497 414.086 199.809C414.109 202.122 412.316 204.164 410.109 202.689C408.434 201.532 407.255 199.788 406.805 197.803C406.321 195.314 407.867 193.024 410.357 193.52Z" fill="#CE7A63"/>
<path d="M421.779 205.627C424.49 206.392 427.122 207.416 429.638 208.683C428.862 209.514 427.824 210.052 426.697 210.207C425.571 210.361 424.426 210.123 423.455 209.533C423.078 209.399 422.734 209.19 422.442 208.917C422.151 208.644 421.919 208.314 421.761 207.947C421.604 207.58 421.524 207.184 421.527 206.785C421.53 206.386 421.616 205.991 421.779 205.627Z" fill="#212529"/>
<path d="M425.402 208.86C424.318 208.282 423.078 208.063 421.862 208.235C422.235 208.833 422.783 209.303 423.431 209.58C424.514 210.161 425.755 210.38 426.971 210.205C426.607 209.599 426.057 209.127 425.402 208.86Z" fill="#A02724"/>
<path d="M422.062 205.698C422.021 205.93 422.046 206.169 422.133 206.388C422.221 206.607 422.368 206.797 422.558 206.937C424.228 207.709 425.961 208.337 427.738 208.813C428.011 208.916 428.306 208.948 428.594 208.907C428.883 208.865 429.157 208.752 429.39 208.577C427.026 207.428 424.576 206.466 422.062 205.698Z" fill="white"/>
<path d="M431.099 292.262L452.456 292.378L452.475 288.944L431.117 288.828L431.099 292.262Z" fill="#212529"/>
<path d="M432.856 292.276L405.716 292.129C405.505 292.128 405.297 292.086 405.102 292.004C404.908 291.922 404.732 291.803 404.584 291.653C404.436 291.503 404.318 291.326 404.239 291.131C404.159 290.936 404.119 290.727 404.12 290.516L404.13 288.699L432.874 288.854L432.855 292.288L432.856 292.276Z" fill="#212529"/>
<path opacity="0.3" d="M432.856 292.276L405.716 292.129C405.505 292.128 405.297 292.086 405.102 292.004C404.908 291.922 404.732 291.803 404.584 291.653C404.436 291.503 404.318 291.326 404.239 291.131C404.159 290.936 404.119 290.727 404.12 290.516L404.13 288.699L432.874 288.854L432.855 292.288L432.856 292.276Z" fill="white"/>
<path d="M425.121 291.129L428.555 291.148L428.562 289.932L425.128 289.914L425.121 291.129Z" fill="#212529"/>
<path d="M419.764 291.123L423.198 291.141L423.204 289.926L419.77 289.907L419.764 291.123Z" fill="#212529"/>
<path d="M436.93 288.888L434.653 288.876L443.739 257.936L446.016 257.948L436.93 288.888Z" fill="#212529"/>
<path opacity="0.3" d="M436.93 288.888L434.653 288.876L443.739 257.936L446.016 257.948L436.93 288.888Z" fill="white"/>
<path d="M436.093 288.888L476.177 289.1L485.263 258.149L445.179 257.936L436.093 288.888Z" fill="#212529"/>
<path opacity="0.6" d="M436.093 288.888L476.177 289.1L485.263 258.149L445.179 257.936L436.093 288.888Z" fill="white"/>
<path d="M434.134 288.876L475.859 289.1C476.555 289.1 477.121 289.879 477.121 290.823C477.121 291.767 476.543 292.534 475.835 292.534L434.11 292.31C433.414 292.31 432.848 291.531 432.848 290.587C432.848 289.643 433.426 288.876 434.134 288.876Z" fill="#212529"/>
<path opacity="0.5" d="M434.134 288.876L475.859 289.1C476.555 289.1 477.121 289.879 477.121 290.823C477.121 291.767 476.543 292.534 475.835 292.534L434.11 292.31C433.414 292.31 432.848 291.531 432.848 290.587C432.848 289.643 433.426 288.876 434.134 288.876Z" fill="white"/>
<path d="M432.848 290.587C432.848 291.531 433.414 292.298 434.11 292.31C434.806 292.321 435.385 291.543 435.396 290.599C435.408 289.655 434.83 288.876 434.134 288.876C433.438 288.876 432.859 289.643 432.848 290.587Z" fill="#212529"/>
<path opacity="0.3" d="M432.848 290.587C432.848 291.531 433.414 292.298 434.11 292.31C434.806 292.321 435.385 291.543 435.396 290.599C435.408 289.655 434.83 288.876 434.134 288.876C433.438 288.876 432.859 289.643 432.848 290.587Z" fill="white"/>
<path opacity="0.2" d="M393.447 260.225C391.524 257.582 389.483 247.788 388.055 239.693L389.907 239.339L389.471 235.988L388.503 236.165C387.831 229.84 385.211 210.819 378.119 214.925C376.054 218.937 374.237 222.973 372.656 226.961C372.515 230.948 372.856 234.938 373.671 238.844L372.491 239.056L373.576 242.443L376.09 241.971C377.588 249.782 379.771 259.671 381.801 263.588C384.468 268.733 395.961 277.324 403.654 281.501C412.304 279.967 414.274 278.881 414.274 278.881C414.027 278.556 413.825 278.199 413.673 277.819L412.28 278.02C412.28 278.02 396.881 264.957 393.447 260.225Z" fill="#212529"/>
<path d="M391.335 228.188C391.335 228.188 393.86 255.765 397.07 260.65C400.28 265.535 415.065 279.341 415.065 279.341L424.859 278.374L431.089 284.852L426.216 287.92L421.118 285.336C418.168 285.53 415.207 285.463 412.268 285.135C407.324 284.592 388.527 270.574 385.27 263.494C382.013 256.414 379.169 230.843 379.169 230.843L391.335 228.188Z" fill="#CE7A63"/>
<path d="M393.53 234.136L392.551 234.313C391.878 227.87 389.176 208.282 381.801 213.309C374.721 218.147 376.691 231.882 377.73 237.015L376.55 237.227L377.635 240.614L393.967 237.487L393.53 234.136Z" fill="#407BFF"/>
<path d="M154.84 328.701L152.019 328.547L152.68 315.756C152.951 311.516 154.813 307.535 157.893 304.61C160.974 301.684 165.046 300.03 169.295 299.98C171.354 299.959 173.396 300.364 175.293 301.168C177.19 301.972 178.9 303.159 180.317 304.654C181.735 306.149 182.829 307.92 183.531 309.856C184.233 311.793 184.528 313.854 184.399 315.91L183.726 328.701L180.906 328.547L181.578 315.756C181.691 314.081 181.455 312.402 180.887 310.822C180.319 309.243 179.43 307.798 178.276 306.579C177.122 305.36 175.729 304.393 174.183 303.738C172.637 303.084 170.973 302.756 169.295 302.776C165.767 302.82 162.387 304.195 159.831 306.627C157.275 309.058 155.732 312.365 155.512 315.886L154.84 328.701Z" fill="#212529"/>
<path d="M215.338 323.013H131.948L129.116 421.956L141.482 419.124L153.848 421.956H218.17L215.338 323.013Z" fill="#407BFF"/>
<path opacity="0.6" d="M215.338 323.013H131.948L129.116 421.956L141.482 419.124L153.848 421.956H218.17L215.338 323.013Z" fill="white"/>
<path d="M153.848 421.956L141.482 419.124L129.116 421.956L131.948 323.013H151.028L153.848 421.956Z" fill="#407BFF"/>
<path opacity="0.3" d="M153.848 421.956L141.482 419.124L129.116 421.956L131.948 323.013H151.028L153.848 421.956Z" fill="white"/>
<path d="M197.685 328.701L197.06 315.91C196.84 312.387 195.296 309.078 192.737 306.646C190.179 304.215 186.795 302.841 183.266 302.8C181.588 302.781 179.925 303.11 178.381 303.765C176.837 304.42 175.444 305.388 174.292 306.607C173.139 307.826 172.252 309.27 171.684 310.849C171.116 312.427 170.881 314.106 170.994 315.78L171.666 328.571L168.846 328.724L168.174 315.933C168.042 313.878 168.336 311.817 169.037 309.881C169.738 307.944 170.83 306.173 172.247 304.678C173.663 303.183 175.373 301.996 177.269 301.192C179.165 300.387 181.206 299.983 183.266 300.003C187.515 300.051 191.588 301.704 194.67 304.63C197.751 307.556 199.612 311.539 199.88 315.78L200.553 328.571L197.685 328.701Z" fill="#212529"/>
<g opacity="0.2">
<path d="M197.685 328.701L197.06 315.91C196.84 312.387 195.296 309.078 192.737 306.646C190.179 304.215 186.795 302.841 183.266 302.8C181.588 302.781 179.925 303.11 178.381 303.765C176.837 304.42 175.444 305.388 174.292 306.607C173.139 307.826 172.252 309.27 171.684 310.849C171.116 312.427 170.881 314.106 170.994 315.78L171.666 328.571L168.846 328.724L168.174 315.933C168.042 313.878 168.336 311.817 169.037 309.881C169.738 307.944 170.83 306.173 172.247 304.678C173.663 303.183 175.373 301.996 177.269 301.192C179.165 300.387 181.206 299.983 183.266 300.003C187.515 300.051 191.588 301.704 194.67 304.63C197.751 307.556 199.612 311.539 199.88 315.78L200.553 328.571L197.685 328.701Z" fill="white"/>
</g>
<path d="M204.069 359.145H165.294C164.421 359.145 163.713 359.853 163.713 360.726V366.992C163.713 367.865 164.421 368.573 165.294 368.573H204.069C204.942 368.573 205.65 367.865 205.65 366.992V360.726C205.65 359.853 204.942 359.145 204.069 359.145Z" fill="white"/>
<path d="M116.513 359.44L114.613 359.334L115.062 350.767C115.232 347.916 116.475 345.236 118.542 343.265C120.609 341.295 123.346 340.18 126.201 340.147C127.577 340.133 128.941 340.402 130.208 340.938C131.475 341.473 132.619 342.263 133.568 343.259C134.518 344.255 135.252 345.435 135.727 346.727C136.201 348.018 136.405 349.393 136.325 350.767L135.877 359.345L133.989 359.239L134.437 350.672C134.509 349.549 134.348 348.423 133.964 347.365C133.579 346.307 132.981 345.34 132.205 344.525C131.43 343.709 130.494 343.063 129.456 342.626C128.419 342.19 127.303 341.972 126.177 341.988C123.814 342.016 121.548 342.936 119.835 344.564C118.121 346.192 117.087 348.408 116.938 350.767L116.513 359.44Z" fill="#212529"/>
<path d="M157.07 355.628H101.161L99.2734 421.956L107.557 420.056L115.852 421.956H158.97L157.07 355.628Z" fill="#407BFF"/>
<path d="M115.852 421.956L107.557 420.056L99.2734 421.956L101.161 355.628H113.953L115.852 421.956Z" fill="#407BFF"/>
<path opacity="0.2" d="M115.852 421.956L107.557 420.056L99.2734 421.956L101.161 355.628H113.953L115.852 421.956Z" fill="#212529"/>
<path d="M145.234 359.44L144.786 350.861C144.621 348.506 143.58 346.298 141.867 344.673C140.155 343.048 137.895 342.123 135.535 342.082C134.408 342.063 133.29 342.278 132.251 342.714C131.212 343.149 130.275 343.795 129.499 344.612C128.722 345.428 128.124 346.397 127.741 347.456C127.358 348.515 127.199 349.643 127.275 350.767L127.723 359.334L125.835 359.44L125.375 350.861C125.297 349.488 125.502 348.114 125.977 346.823C126.452 345.532 127.187 344.353 128.136 343.357C129.085 342.362 130.228 341.572 131.494 341.036C132.761 340.5 134.124 340.229 135.499 340.241C138.355 340.275 141.091 341.389 143.158 343.36C145.225 345.33 146.469 348.011 146.639 350.861L147.087 359.428L145.234 359.44Z" fill="#212529"/>
<g opacity="0.2">
<path d="M145.234 359.44L144.786 350.861C144.621 348.506 143.58 346.298 141.867 344.673C140.155 343.048 137.895 342.123 135.535 342.082C134.408 342.063 133.29 342.278 132.251 342.714C131.212 343.149 130.275 343.795 129.499 344.612C128.722 345.428 128.124 346.397 127.741 347.456C127.358 348.515 127.199 349.643 127.275 350.767L127.723 359.334L125.835 359.44L125.375 350.861C125.297 349.488 125.502 348.114 125.977 346.823C126.452 345.532 127.187 344.353 128.136 343.357C129.085 342.362 130.228 341.572 131.494 341.036C132.761 340.5 134.124 340.229 135.499 340.241C138.355 340.275 141.091 341.389 143.158 343.36C145.225 345.33 146.469 348.011 146.639 350.861L147.087 359.428L145.234 359.44Z" fill="white"/>
</g>
<path d="M148.987 379.854H124.042C123.168 379.854 122.46 380.562 122.46 381.435V384.586C122.46 385.459 123.168 386.167 124.042 386.167H148.987C149.86 386.167 150.568 385.459 150.568 384.586V381.435C150.568 380.562 149.86 379.854 148.987 379.854Z" fill="white"/>
<path d="M202.582 415.478L193.603 414.546L194.051 393.565L203.031 394.498L202.582 415.478Z" fill="#B55B52"/>
<path d="M278.551 385.388L270.515 389.483L258.432 372.16L266.479 368.066L278.551 385.388Z" fill="#B55B52"/>
<path d="M268.839 388.362L277.099 382.462C277.24 382.359 277.413 382.311 277.587 382.326C277.761 382.341 277.923 382.419 278.043 382.544L283.637 388.444C283.773 388.596 283.875 388.775 283.937 388.969C283.999 389.163 284.02 389.368 283.998 389.571C283.976 389.773 283.911 389.969 283.808 390.145C283.705 390.321 283.566 390.473 283.401 390.592C280.486 392.598 278.976 393.412 275.341 396.008C273.111 397.601 270.008 400.162 266.928 402.356C263.848 404.551 261.5 401.625 262.585 400.433C267.459 395.088 267.152 392.728 267.931 389.719C268.063 389.173 268.385 388.691 268.839 388.362Z" fill="#212529"/>
<path d="M192.836 413.413L202.925 414.463C203.098 414.478 203.26 414.555 203.38 414.682C203.499 414.808 203.568 414.974 203.574 415.148L203.892 423.254C203.893 423.458 203.851 423.661 203.769 423.847C203.687 424.034 203.566 424.202 203.414 424.339C203.263 424.476 203.084 424.579 202.89 424.642C202.696 424.706 202.49 424.727 202.287 424.706C198.747 424.269 197.107 423.891 192.67 423.431C189.933 423.136 182.05 422.605 178.298 422.251C174.546 421.897 174.758 418.109 176.327 417.932C183.514 417.154 188.706 415.572 191.278 413.838C191.731 413.517 192.283 413.367 192.836 413.413Z" fill="#212529"/>
<g opacity="0.2">
<path d="M194.051 393.565L193.815 404.386L202.807 405.318L203.031 394.509L194.051 393.565Z" fill="#212529"/>
<path d="M266.479 368.077L258.432 372.172L264.662 381.093L272.71 376.998L266.479 368.077Z" fill="#212529"/>
</g>
<path d="M198.346 212.317C198.346 212.317 189.036 281.619 188.8 309.16C188.517 337.81 192.151 402.12 192.151 402.12L204.293 403.383C204.293 403.383 209.226 340.135 211.185 312.063C213.332 281.442 225.227 213.179 225.227 213.179L198.346 212.317Z" fill="#212529"/>
<path d="M205.261 403.914L191.007 402.427L190.44 397.778L206.453 398.887L205.261 403.914Z" fill="#407BFF"/>
<path opacity="0.6" d="M213.58 230.1C203.998 247.93 210.158 281.194 212.955 293.584C215.161 275.176 218.63 252.697 221.297 236.201C220.259 226.784 218.029 221.899 213.58 230.1Z" fill="#212529"/>
<path d="M208.022 212.624C208.022 212.624 214.052 285.159 219.586 308.558C226.159 336.347 261.771 380.22 261.771 380.22L272.745 374.638C272.745 374.638 248.614 325.881 243.387 311.178C232.212 279.825 244.071 233.994 234.997 213.474L208.022 212.624Z" fill="#212529"/>
<path d="M274.303 374.567L260.686 381.494L257.063 377.954L272.71 369.08L274.303 374.567Z" fill="#407BFF"/>
<path d="M265.665 392.067H265.559C265.352 392.041 265.156 391.961 264.99 391.834C264.824 391.708 264.695 391.54 264.615 391.347C264.55 391.236 264.515 391.11 264.515 390.981C264.515 390.852 264.55 390.726 264.615 390.615C265.193 389.612 268.45 389.435 268.816 389.435C268.858 389.434 268.9 389.446 268.936 389.469C268.972 389.493 269 389.526 269.016 389.565C269.042 389.597 269.056 389.636 269.056 389.677C269.056 389.718 269.042 389.758 269.016 389.789C268.226 390.674 266.798 392.102 265.665 392.067ZM268.32 389.896C267.022 389.99 265.288 390.297 264.981 390.816C264.952 390.866 264.937 390.923 264.937 390.981C264.937 391.039 264.952 391.096 264.981 391.146C265.033 391.275 265.119 391.387 265.229 391.472C265.338 391.557 265.469 391.612 265.606 391.63C266.22 391.76 267.223 391.064 268.32 389.896Z" fill="#407BFF"/>
<path d="M268.521 389.872C267.4 389.872 265.358 389.247 264.981 388.385C264.912 388.23 264.899 388.056 264.944 387.892C264.989 387.729 265.09 387.586 265.229 387.488C265.346 387.375 265.488 387.289 265.643 387.238C265.799 387.187 265.963 387.172 266.125 387.193C267.435 387.335 268.946 389.435 269.016 389.553C269.034 389.586 269.043 389.623 269.043 389.66C269.043 389.697 269.034 389.733 269.016 389.766C269 389.799 268.975 389.828 268.944 389.849C268.913 389.869 268.877 389.881 268.839 389.884C268.733 389.891 268.626 389.887 268.521 389.872ZM266.007 387.618C265.915 387.611 265.822 387.622 265.735 387.653C265.647 387.683 265.567 387.732 265.5 387.795C265.299 387.984 265.323 388.114 265.358 388.208C265.618 388.786 267.305 389.388 268.403 389.447C267.86 388.775 266.845 387.701 266.043 387.618H266.007Z" fill="#407BFF"/>
<path d="M189.307 414.628C188.531 414.619 187.782 414.344 187.183 413.85C187.052 413.708 186.957 413.535 186.908 413.348C186.858 413.161 186.856 412.964 186.9 412.776C186.921 412.659 186.97 412.549 187.045 412.456C187.119 412.363 187.215 412.291 187.325 412.245C188.505 411.761 191.88 413.956 192.257 414.215C192.296 414.237 192.325 414.271 192.342 414.312C192.36 414.352 192.363 414.397 192.352 414.44C192.342 414.484 192.318 414.523 192.284 414.553C192.25 414.583 192.208 414.601 192.163 414.605C191.214 414.702 190.258 414.71 189.307 414.628ZM187.891 412.599C187.759 412.573 187.623 412.573 187.49 412.599C187.446 412.619 187.407 412.65 187.378 412.689C187.349 412.729 187.331 412.775 187.325 412.823C187.292 412.945 187.291 413.072 187.322 413.194C187.353 413.316 187.415 413.428 187.502 413.519C187.998 414.074 189.461 414.31 191.49 414.192C190.387 413.465 189.171 412.927 187.891 412.599Z" fill="#407BFF"/>
<path d="M192.116 414.605C192.116 414.605 192.057 414.605 192.033 414.605C191.018 414.015 189.095 411.855 189.366 410.852C189.437 410.616 189.638 410.333 190.228 410.333C190.448 410.328 190.667 410.37 190.871 410.455C191.074 410.541 191.257 410.668 191.408 410.829C192.434 411.891 192.399 414.369 192.387 414.428C192.389 414.464 192.379 414.501 192.36 414.532C192.342 414.564 192.314 414.589 192.281 414.605C192.228 414.625 192.169 414.625 192.116 414.605ZM190.358 410.734H190.228C189.838 410.734 189.803 410.876 189.779 410.935C189.626 411.537 190.9 413.201 191.927 413.979C191.941 412.95 191.641 411.942 191.066 411.088C190.877 410.892 190.627 410.767 190.358 410.734Z" fill="#407BFF"/>
<path d="M194.476 175.478C191.134 179.941 187.39 184.089 183.289 187.868C181.12 189.903 178.748 191.71 176.209 193.26C174.714 194.178 173.103 194.892 171.419 195.384C170.353 195.692 169.248 195.843 168.138 195.833C167.475 195.826 166.815 195.75 166.168 195.609C165.837 195.526 165.483 195.42 165.153 195.302C164.765 195.166 164.39 194.996 164.032 194.794C163.197 194.344 162.469 193.72 161.896 192.965C161.456 192.407 161.095 191.792 160.822 191.136C160.418 190.186 160.144 189.186 160.008 188.163C159.801 186.579 159.741 184.979 159.831 183.384C160.028 180.563 160.422 177.76 161.011 174.994C162.092 169.661 163.567 164.415 165.424 159.3L170.309 160.563C169.613 165.696 168.964 170.935 168.575 176.009C168.361 178.469 168.298 180.94 168.386 183.407C168.409 184.46 168.539 185.508 168.775 186.534C168.833 186.819 168.932 187.093 169.07 187.349C169.141 187.467 169.07 187.101 168.386 186.664C168.138 186.546 168.221 186.558 168.162 186.546C168.367 186.499 168.568 186.436 168.764 186.357C169.596 186.018 170.387 185.586 171.124 185.071C173.014 183.721 174.794 182.222 176.445 180.587C178.204 178.876 179.891 177.047 181.555 175.124C183.219 173.2 184.882 171.242 186.405 169.365L194.476 175.478Z" fill="#B55B52"/>
<path d="M192.505 162.486C188.812 161.471 177.85 175.466 177.85 175.466L188.328 187.16C188.328 187.16 200.612 176.068 200.128 171.1C199.668 165.908 197.91 164.02 192.505 162.486Z" fill="#407BFF"/>
<path d="M170.439 159.3L170.026 151.949L162.946 157.778C162.946 157.778 164.02 163.477 167.595 164.61L169.802 161.507C170.254 160.862 170.478 160.086 170.439 159.3Z" fill="#B55B52"/>
<path d="M165.412 145.883L159.748 151.099L162.934 157.754L170.026 151.925L165.412 145.883Z" fill="#B55B52"/>
<path d="M162.533 160.102L160.893 159.512C160.45 159.346 160.08 159.029 159.847 158.617C159.614 158.205 159.533 157.724 159.619 157.259L162.108 144.019L166.581 145.647L165.2 158.439C165.17 158.741 165.072 159.032 164.912 159.291C164.751 159.549 164.534 159.767 164.276 159.927C164.019 160.088 163.727 160.188 163.425 160.218C163.123 160.248 162.818 160.209 162.533 160.102Z" fill="#212529"/>
<path d="M174.321 143.287C174.605 142.52 174.876 141.765 175.124 141.01C174.116 139.386 172.767 138.001 171.171 136.951C170.581 138.402 169.991 139.924 169.413 141.494C168.834 143.063 168.315 144.609 167.843 146.108C169.742 146.328 171.666 146.134 173.484 145.541C173.767 144.798 174.05 144.054 174.321 143.287Z" fill="#212529"/>
<path d="M171.36 142.214C172.057 140.375 172.559 138.469 172.858 136.526L158.191 131.181L154.202 142.143L168.882 147.5C169.888 145.828 170.719 144.057 171.36 142.214Z" fill="#407BFF"/>
<path opacity="0.6" d="M171.36 142.214C172.057 140.375 172.559 138.469 172.858 136.526L158.191 131.181L154.202 142.143L168.882 147.5C169.888 145.828 170.719 144.057 171.36 142.214Z" fill="white"/>
<path d="M162.002 131.546C161.341 131.299 145.482 115.026 143.712 114.33C141.942 113.634 137.659 120.1 134.496 128.785C131.334 137.47 130.343 145.069 132.266 145.777C134.19 146.485 156.669 144.113 157.341 144.349C158.014 144.585 159.807 141.989 161.094 138.449C162.38 134.909 162.84 131.83 162.002 131.546Z" fill="#407BFF"/>
<path opacity="0.4" d="M162.002 131.546C161.341 131.299 145.482 115.026 143.712 114.33C141.942 113.634 137.659 120.1 134.496 128.785C131.334 137.47 130.343 145.069 132.266 145.777C134.19 146.485 156.669 144.113 157.341 144.349C158.014 144.585 159.807 141.989 161.094 138.449C162.38 134.909 162.84 131.83 162.002 131.546Z" fill="white"/>
<path d="M141.482 131.322C138.32 140.007 134.19 146.473 132.266 145.777C130.343 145.081 131.334 137.517 134.496 128.785C137.659 120.053 141.789 113.634 143.712 114.33C145.636 115.026 144.644 122.649 141.482 131.322Z" fill="#407BFF"/>
<path d="M136.88 129.623C136.668 130.201 136.467 130.803 136.278 131.334C137.367 132.699 138.699 133.852 140.208 134.732C140.656 133.647 141.104 132.502 141.541 131.322C141.978 130.142 142.355 128.962 142.721 127.853C141 127.56 139.24 127.588 137.529 127.936C137.234 128.49 137.022 129.057 136.88 129.623Z" fill="#212529"/>
<path opacity="0.7" d="M136.88 129.623C136.668 130.201 136.467 130.803 136.278 131.334C137.367 132.699 138.699 133.852 140.208 134.732C140.656 133.647 141.104 132.502 141.541 131.322C141.978 130.142 142.355 128.962 142.721 127.853C141 127.56 139.24 127.588 137.529 127.936C137.234 128.49 137.022 129.057 136.88 129.623Z" fill="white"/>
<path opacity="0.2" d="M189.414 170.711C189.956 178.558 188.127 183.23 186.829 185.484L188.328 187.148C188.328 187.148 195.255 180.894 198.511 175.678C194.853 170.25 188.8 162.462 189.414 170.711Z" fill="#212529"/>
<path d="M230.666 126.083C235.587 126.083 239.575 122.094 239.575 117.174C239.575 112.254 235.587 108.265 230.666 108.265C225.746 108.265 221.757 112.254 221.757 117.174C221.757 122.094 225.746 126.083 230.666 126.083Z" fill="#212529"/>
<path d="M229.711 121.233C229.713 122.342 229.386 123.427 228.772 124.35C228.157 125.274 227.283 125.994 226.259 126.42C225.235 126.846 224.107 126.959 223.019 126.744C221.931 126.529 220.932 125.996 220.146 125.213C219.361 124.429 218.826 123.43 218.609 122.343C218.392 121.255 218.502 120.128 218.926 119.103C219.35 118.078 220.068 117.202 220.99 116.585C221.912 115.969 222.997 115.64 224.106 115.64C225.59 115.64 227.014 116.229 228.065 117.278C229.116 118.326 229.707 119.749 229.711 121.233Z" fill="#407BFF"/>
<path d="M206.311 114.283C206.311 114.283 194.511 113.315 194.511 133.611C194.511 147.512 201.261 153.943 209.533 149.27C209.533 149.27 227.775 147.771 229.876 131.074C231.976 114.377 219.067 108.159 206.311 114.283Z" fill="#212529"/>
<path d="M190.098 163.029C190.098 163.029 185.909 164.846 198.358 217.061L234.938 214.406C233.239 199.562 232.578 190.393 237.451 159.324C232.253 158.639 227.012 158.331 221.769 158.403C216.21 158.403 210.658 158.798 205.155 159.583C198.063 160.787 190.098 163.029 190.098 163.029Z" fill="#407BFF"/>
<path d="M218.748 139.818C218.088 145.246 217.757 155.158 221.757 158.403C221.757 158.403 220.695 163.926 210.76 164.657C199.845 165.448 205.143 159.607 205.143 159.607C211.043 157.754 210.524 153.341 209.19 149.27L218.748 139.818Z" fill="#B55B52"/>
<path opacity="0.2" d="M214.854 143.677L209.19 149.27C209.517 150.215 209.762 151.186 209.922 152.173C212.176 151.677 215.114 148.951 215.185 146.556C215.251 145.584 215.139 144.608 214.854 143.677Z" fill="#212529"/>
<path d="M224.861 130.803C222.819 139.523 222.135 143.264 216.908 147.028C209.049 152.692 198.783 148.267 198.181 139.11C197.638 130.85 201.072 117.988 210.311 115.947C212.344 115.49 214.459 115.56 216.457 116.151C218.455 116.741 220.268 117.832 221.726 119.321C223.184 120.809 224.237 122.645 224.785 124.654C225.334 126.664 225.36 128.781 224.861 130.803Z" fill="#B55B52"/>
<path d="M209.816 130.744C209.698 131.464 209.214 131.924 208.754 131.924C208.294 131.924 207.999 131.192 208.117 130.473C208.235 129.753 208.73 129.293 209.19 129.293C209.651 129.293 209.946 130.024 209.816 130.744Z" fill="#212529"/>
<path d="M201.709 129.363C201.579 130.071 201.107 130.543 200.635 130.543C200.163 130.543 199.88 129.824 200.01 129.104C200.14 128.384 200.612 127.924 201.084 127.924C201.556 127.924 201.78 128.62 201.709 129.363Z" fill="#212529"/>
<path d="M201.284 127.995L199.644 127.192C199.644 127.192 200.293 128.691 201.284 127.995Z" fill="#212529"/>
<path d="M204.565 131.074C203.647 132.605 202.524 134.003 201.225 135.228C201.548 135.55 201.937 135.797 202.365 135.954C202.792 136.111 203.249 136.173 203.703 136.137L204.565 131.074Z" fill="#A02724"/>
<path d="M225.876 139.299C224.995 140.793 223.563 141.882 221.887 142.332C219.669 142.898 218.607 140.892 219.268 138.792C219.858 136.927 221.734 134.39 223.988 134.732C224.47 134.823 224.922 135.033 225.302 135.342C225.683 135.652 225.981 136.051 226.168 136.504C226.356 136.958 226.427 137.451 226.376 137.939C226.325 138.427 226.153 138.894 225.876 139.299Z" fill="#B55B52"/>
<path d="M213.356 129.647C213.265 129.645 213.177 129.615 213.105 129.559C213.032 129.504 212.98 129.427 212.955 129.34C212.376 127.452 209.957 126.649 209.934 126.638C209.88 126.62 209.831 126.592 209.788 126.555C209.746 126.518 209.711 126.473 209.686 126.422C209.66 126.372 209.645 126.317 209.641 126.261C209.637 126.205 209.645 126.148 209.662 126.095C209.68 126.041 209.708 125.992 209.745 125.949C209.782 125.907 209.827 125.872 209.878 125.847C209.928 125.821 209.983 125.806 210.039 125.802C210.095 125.798 210.152 125.806 210.205 125.823C210.992 126.088 211.714 126.517 212.324 127.08C212.934 127.643 213.418 128.329 213.745 129.092C213.762 129.145 213.767 129.202 213.762 129.257C213.756 129.313 213.74 129.367 213.714 129.416C213.688 129.466 213.652 129.509 213.608 129.545C213.565 129.58 213.515 129.607 213.462 129.623C213.428 129.637 213.392 129.645 213.356 129.647Z" fill="#212529"/>
<path d="M199.904 125.198C199.813 125.191 199.726 125.155 199.657 125.096C199.587 125.037 199.538 124.957 199.516 124.869C199.494 124.78 199.5 124.687 199.533 124.602C199.567 124.517 199.626 124.445 199.703 124.396C200.284 124.043 200.941 123.836 201.619 123.791C202.296 123.746 202.975 123.864 203.597 124.136C203.648 124.162 203.692 124.197 203.729 124.24C203.766 124.283 203.794 124.332 203.811 124.386C203.829 124.44 203.836 124.496 203.831 124.553C203.827 124.609 203.812 124.664 203.786 124.714C203.76 124.765 203.725 124.809 203.682 124.846C203.639 124.883 203.59 124.911 203.536 124.928C203.482 124.946 203.426 124.953 203.369 124.948C203.313 124.944 203.258 124.929 203.208 124.903C202.713 124.691 202.175 124.602 201.639 124.644C201.103 124.685 200.584 124.855 200.128 125.139C200.059 125.177 199.982 125.197 199.904 125.198Z" fill="#212529"/>
<path d="M209.391 129.375L207.751 128.585C207.751 128.585 208.412 130.083 209.391 129.375Z" fill="#212529"/>
<path d="M204.411 138.367C207.413 137.743 210.467 137.411 213.533 137.376C212.837 139.441 211.444 141.163 207.987 141.293C207.557 141.353 207.12 141.322 206.702 141.205C206.285 141.087 205.896 140.885 205.56 140.61C205.225 140.336 204.95 139.994 204.752 139.608C204.554 139.222 204.438 138.8 204.411 138.367Z" fill="#212529"/>
<path d="M209.509 139.629C208.18 139.619 206.882 140.032 205.804 140.809C206.461 141.202 207.224 141.379 207.987 141.317C209.316 141.327 210.614 140.914 211.692 140.137C211.038 139.736 210.272 139.558 209.509 139.629Z" fill="#A02724"/>
<path d="M204.718 138.296C204.798 138.541 204.944 138.76 205.14 138.928C205.335 139.097 205.573 139.209 205.827 139.252C207.813 139.146 209.786 138.878 211.727 138.449C212.043 138.411 212.343 138.293 212.601 138.108C212.859 137.922 213.066 137.674 213.202 137.387C210.355 137.469 207.518 137.773 204.718 138.296Z" fill="white"/>
<path d="M199.703 124.396C202.389 123.258 204.726 121.43 206.476 119.097C206.476 119.097 206.476 125.375 209.037 124.891C211.598 124.407 207.751 119.086 207.751 119.086C207.751 119.086 213.651 121.705 215.669 126.826C217.686 131.948 219.987 137.541 224.53 136.148C229.073 134.756 228.07 120.242 221.38 116.619L211.94 114.92L209.155 115.333C207.709 115.539 206.322 116.046 205.084 116.82C203.217 117.965 201.75 119.659 200.883 121.67L199.703 124.396Z" fill="#212529"/>
<path d="M221.734 125.151C221.297 124.23 219.209 124.313 217.014 125.328C214.819 126.343 214.784 127.298 215.22 128.219C215.657 129.139 216.4 129.67 218.595 128.655C220.79 127.641 222.17 126.071 221.734 125.151ZM216.672 127.511C216.365 126.85 216.424 126.177 217.958 125.446C219.492 124.714 220.99 124.667 221.297 125.328C221.604 125.989 220.625 127.11 219.091 127.829C217.557 128.549 216.99 128.207 216.672 127.546V127.511Z" fill="#407BFF"/>
<path opacity="0.2" d="M233.404 171.43L230.631 169.07L228.578 170.003C227.865 177.266 229.714 184.55 233.805 190.594C233.982 186.664 234.348 182.239 234.985 176.953C234.112 173.767 233.404 171.43 233.404 171.43Z" fill="#212529"/>
<path d="M270.786 200.187L269.288 200.34L268.58 193.579C268.366 191.33 269.012 189.084 270.386 187.291C271.761 185.498 273.763 184.292 275.99 183.915C277.067 183.733 278.17 183.775 279.23 184.038C280.289 184.302 281.284 184.78 282.15 185.444C283.017 186.109 283.738 186.944 284.268 187.899C284.797 188.854 285.125 189.908 285.23 190.995L285.949 197.756L284.451 197.921L283.743 191.148C283.656 190.262 283.39 189.404 282.96 188.625C282.529 187.845 281.945 187.162 281.241 186.617C280.536 186.075 279.727 185.684 278.864 185.469C278.001 185.254 277.103 185.219 276.226 185.366C274.377 185.68 272.716 186.681 271.575 188.17C270.435 189.658 269.9 191.524 270.078 193.39L270.786 200.187Z" fill="#212529"/>
<path d="M242.974 169.92C243.186 170.935 243.469 172.186 243.741 173.33C244.012 174.475 244.331 175.69 244.661 176.87C245.322 179.23 246.018 181.508 246.856 183.738C248.364 188.081 250.507 192.177 253.216 195.892L253.464 196.21L253.582 196.376L253.44 196.234C253.251 196.069 253.031 195.944 252.791 195.868C252.437 195.774 252.449 195.868 252.685 195.868C253.522 195.824 254.346 195.649 255.128 195.349C257.312 194.552 259.427 193.577 261.453 192.434C265.736 190.074 270.067 187.384 274.256 184.658L277.524 188.505C273.85 192.325 269.855 195.822 265.583 198.96C263.318 200.632 260.9 202.085 258.361 203.302C256.797 204.053 255.124 204.555 253.405 204.789C252.088 204.951 250.751 204.806 249.499 204.364C248.665 204.054 247.896 203.59 247.234 202.995C247.068 202.842 246.891 202.677 246.75 202.523L246.561 202.323L246.183 201.91C244.241 199.762 242.539 197.408 241.109 194.889C239.715 192.482 238.496 189.978 237.463 187.396C236.448 184.843 235.566 182.24 234.82 179.596C234.454 178.298 234.112 176.988 233.805 175.667C233.498 174.345 233.215 173.059 232.979 171.548L242.974 169.92Z" fill="#B55B52"/>
<path d="M237.44 159.3C241.18 160.15 247.729 173.672 247.729 173.672L233.026 183.643C233.026 183.643 227.126 173.484 228.306 168.634C229.51 163.607 233.168 158.356 237.44 159.3Z" fill="#407BFF"/>
<path d="M273.642 184.599L282.185 179.879L280.392 188.883C280.392 188.883 274.869 190.641 272.132 188.021L273.642 184.599Z" fill="#B55B52"/>
<path d="M289.678 181.095L287.767 188.564L280.392 188.894L282.185 179.891L289.678 181.095Z" fill="#B55B52"/>
<path d="M293.265 196.623L291.849 189.968C291.443 188.139 290.359 186.53 288.816 185.467C287.273 184.403 285.385 183.962 283.53 184.233C282.649 184.363 281.804 184.673 281.048 185.144C280.292 185.615 279.641 186.238 279.137 186.972C278.633 187.707 278.286 188.538 278.118 189.413C277.95 190.288 277.965 191.188 278.161 192.057L279.577 198.712L278.114 199.031L276.698 192.375C276.457 191.308 276.44 190.201 276.646 189.126C276.853 188.051 277.279 187.03 277.898 186.128C278.517 185.225 279.316 184.46 280.245 183.88C281.173 183.3 282.211 182.918 283.294 182.758C285.529 182.43 287.805 182.959 289.665 184.24C291.526 185.52 292.833 187.457 293.324 189.661L294.74 196.317L293.265 196.623Z" fill="#212529"/>
<g opacity="0.3">
<path d="M293.265 196.623L291.849 189.968C291.443 188.139 290.359 186.53 288.816 185.467C287.273 184.403 285.385 183.962 283.53 184.233C282.649 184.363 281.804 184.673 281.048 185.144C280.292 185.615 279.641 186.238 279.137 186.972C278.633 187.707 278.286 188.538 278.118 189.413C277.95 190.288 277.965 191.188 278.161 192.057L279.577 198.712L278.114 199.031L276.698 192.375C276.457 191.308 276.44 190.201 276.646 189.126C276.853 188.051 277.279 187.03 277.898 186.128C278.517 185.225 279.316 184.46 280.245 183.88C281.173 183.3 282.211 182.918 283.294 182.758C285.529 182.43 287.805 182.959 289.665 184.24C291.526 185.52 292.833 187.457 293.324 189.661L294.74 196.317L293.265 196.623Z" fill="white"/>
</g>
<path d="M302.068 192.175L258.302 199.101L265.04 251.257L271.294 248.744L278.02 249.204L311.768 243.859L302.068 192.175Z" fill="#407BFF"/>
<path opacity="0.6" d="M302.068 192.175L258.302 199.101L265.04 251.257L271.294 248.744L278.02 249.204L311.768 243.859L302.068 192.175Z" fill="white"/>
<path d="M278.02 249.204L271.294 248.744L265.04 251.257L258.302 199.101L268.308 197.52L278.02 249.204Z" fill="#407BFF"/>
<path opacity="0.3" d="M278.02 249.204L271.294 248.744L265.04 251.257L258.302 199.101L268.308 197.52L278.02 249.204Z" fill="white"/>
<path d="M297.768 214.641L279.669 217.508C278.697 217.662 278.033 218.574 278.187 219.546L278.213 219.71C278.367 220.681 279.28 221.345 280.252 221.191L298.352 218.324C299.324 218.17 299.987 217.257 299.833 216.285L299.807 216.122C299.653 215.15 298.74 214.487 297.768 214.641Z" fill="white"/>
</svg>
