<svg width="200" height="216" viewBox="0 0 200 216" fill="none" xmlns="http://www.w3.org/2000/svg">
<g clip-path="url(#clip0_4_11464)">
<path d="M200 82.4429C200 83.0566 199.992 83.6692 199.977 84.2808C199.97 84.6806 199.957 85.0805 199.94 85.4803C199.937 85.595 199.934 85.7065 199.927 85.8212C199.917 86.0413 199.907 86.2582 199.897 86.4721C199.824 87.9009 199.711 89.3194 199.558 90.7275C199.552 90.7957 199.545 90.8639 199.538 90.929C199.522 91.0684 199.508 91.2079 199.488 91.3474C199.442 91.7658 199.392 92.1842 199.336 92.5964C199.299 92.8754 199.263 93.1512 199.223 93.4301C199.203 93.5634 199.183 93.6967 199.166 93.8269C199.143 93.9725 199.123 94.1151 199.1 94.2577C199.09 94.3196 199.08 94.3816 199.07 94.4467C199.037 94.6575 199.004 94.8713 198.967 95.0821C198.924 95.3579 198.877 95.6307 198.827 95.9065C198.781 96.1793 198.731 96.452 198.678 96.7247C198.628 96.9975 198.575 97.2702 198.522 97.543C198.469 97.8188 198.412 98.0916 198.356 98.3643C198.07 99.7156 197.751 101.056 197.399 102.384C197.26 102.902 197.117 103.418 196.971 103.934C196.728 104.771 196.472 105.603 196.203 106.432C196.127 106.661 196.051 106.891 195.974 107.117C195.888 107.377 195.798 107.638 195.708 107.895C195.619 108.155 195.529 108.412 195.436 108.67C195.343 108.927 195.25 109.184 195.154 109.441C195.061 109.696 194.964 109.953 194.865 110.207C194.768 110.464 194.669 110.718 194.569 110.972C194.466 111.227 194.366 111.481 194.263 111.732C194.058 112.24 193.846 112.743 193.629 113.241C193.523 113.492 193.413 113.743 193.3 113.991C192.858 114.989 192.396 115.976 191.912 116.951C191.805 117.168 191.699 117.385 191.59 117.599C191.516 117.741 191.447 117.881 191.374 118.024C191.251 118.259 191.131 118.492 191.008 118.724C190.885 118.96 190.759 119.198 190.63 119.437C190.374 119.908 190.114 120.378 189.849 120.847C189.587 121.315 189.318 121.783 189.042 122.245C188.766 122.707 188.487 123.168 188.205 123.624C188.062 123.853 187.919 124.083 187.776 124.309C187.202 125.217 186.608 126.115 185.996 127.002C185.388 127.886 184.76 128.759 184.112 129.621C183.79 130.052 183.461 130.483 183.129 130.908C182.996 131.078 182.864 131.245 182.731 131.413C182.568 131.623 182.398 131.831 182.229 132.039C175.03 140.973 165.958 148.447 155.565 154.006C145.172 159.564 133.676 163.091 121.775 164.372C109.875 165.653 97.8194 164.661 86.343 161.457C74.8665 158.252 64.209 152.902 55.0191 145.732C54.0491 144.976 53.0969 144.201 52.1624 143.407C46.1658 138.312 40.9455 132.474 36.6469 126.057C36.1121 125.254 35.5873 124.442 35.0824 123.624C27.3316 111.106 23.2626 96.8998 23.2872 82.4429C23.2872 36.9102 62.8449 1.51329e-05 111.644 1.51329e-05C126.327 -0.00828865 140.781 3.40091 153.696 9.9189C166.612 16.4369 177.581 25.8578 185.611 37.3287C185.757 37.5363 185.903 37.7471 186.049 37.9578C194.033 49.5509 198.754 62.8351 199.777 76.582C199.927 78.516 200.001 80.4696 200 82.4429Z" fill="#F2F2F2"/>
<path d="M186.049 37.9578H63.662C63.574 37.9558 63.4904 37.9218 63.4289 37.863C63.3674 37.8042 63.333 37.7253 63.333 37.6432C63.333 37.5611 63.3674 37.4822 63.4289 37.4234C63.4904 37.3646 63.574 37.3306 63.662 37.3286H185.611C185.757 37.5363 185.903 37.747 186.049 37.9578Z" fill="#CACACA"/>
<path d="M71.0872 33.5534C73.0915 33.5534 74.7163 32.0035 74.7163 30.0917C74.7163 28.1799 73.0915 26.6301 71.0872 26.6301C69.083 26.6301 67.4582 28.1799 67.4582 30.0917C67.4582 32.0035 69.083 33.5534 71.0872 33.5534Z" fill="#212529"/>
<path d="M83.6239 33.5534C85.6282 33.5534 87.253 32.0035 87.253 30.0917C87.253 28.1799 85.6282 26.6301 83.6239 26.6301C81.6196 26.6301 79.9949 28.1799 79.9949 30.0917C79.9949 32.0035 81.6196 33.5534 83.6239 33.5534Z" fill="#212529"/>
<path d="M96.1606 33.5534C98.1648 33.5534 99.7896 32.0035 99.7896 30.0917C99.7896 28.1799 98.1648 26.6301 96.1606 26.6301C94.1563 26.6301 92.5315 28.1799 92.5315 30.0917C92.5315 32.0035 94.1563 33.5534 96.1606 33.5534Z" fill="#212529"/>
<path d="M199.777 76.582C196.585 77.9365 193.725 80.1246 191.227 83.1341C188.341 86.6146 185.248 89.0662 182.09 90.7275C181.94 90.805 181.794 90.8794 181.644 90.9538C178.813 92.3777 175.707 93.2656 172.507 93.5665C171.54 93.6574 170.568 93.7009 169.597 93.6967C169.192 93.6936 168.786 93.6843 168.384 93.6657C167.431 93.6223 166.488 93.5355 165.561 93.4116C160.24 92.7049 155.427 90.7957 151.862 89.0012C146.979 86.4881 141.678 84.7573 136.181 83.881C135.198 83.7292 134.217 83.6104 133.238 83.5246C132.833 83.4874 132.431 83.4595 132.029 83.4347C131.042 83.3728 130.057 83.3438 129.072 83.348C128.567 83.3511 128.066 83.3604 127.561 83.3789C119.077 83.6889 108.013 85.9452 98.0912 93.8269C97.9583 93.9323 97.8287 94.0376 97.6959 94.143C97.573 94.2422 97.4501 94.3445 97.3272 94.4468C95.7567 95.7493 94.2767 97.1437 92.8961 98.6216C91.3132 100.314 89.8487 102.1 88.5114 103.968C86.9235 106.155 85.0686 108.162 82.9842 109.95C79.9011 112.604 77.4321 115.819 75.7288 119.397C74.0254 122.974 73.1237 126.838 73.079 130.753V130.908C73.0757 131.075 73.0757 131.245 73.0757 131.413H182.734C182.867 131.245 183 131.078 183.129 130.908C183.461 130.483 183.79 130.052 184.112 129.621C184.76 128.76 185.388 127.887 185.996 127.002C186.61 126.116 187.204 125.218 187.776 124.309C187.919 124.083 188.062 123.853 188.205 123.624C188.487 123.169 188.766 122.707 189.042 122.245C189.318 121.783 189.587 121.315 189.849 120.847C190.115 120.379 190.375 119.909 190.63 119.437C190.759 119.198 190.885 118.96 191.008 118.724C191.131 118.492 191.251 118.259 191.374 118.024C191.447 117.881 191.516 117.742 191.59 117.599C191.699 117.385 191.805 117.168 191.912 116.951C192.397 115.975 192.86 114.988 193.3 113.991C193.413 113.743 193.523 113.492 193.629 113.241C193.845 112.742 194.056 112.239 194.263 111.732C194.366 111.481 194.466 111.227 194.569 110.973C194.669 110.718 194.768 110.464 194.865 110.207C194.964 109.953 195.061 109.696 195.154 109.441C195.25 109.184 195.343 108.927 195.436 108.67C195.529 108.412 195.619 108.155 195.708 107.895C195.798 107.638 195.888 107.377 195.974 107.117C196.051 106.891 196.127 106.661 196.203 106.432C196.472 105.604 196.728 104.772 196.971 103.934C197.117 103.419 197.26 102.903 197.399 102.384C197.751 101.058 198.07 99.7177 198.356 98.3643C198.412 98.0916 198.469 97.8189 198.522 97.543C198.575 97.2703 198.628 96.9975 198.678 96.7248C198.731 96.4521 198.781 96.1793 198.827 95.9066C198.877 95.6307 198.924 95.358 198.967 95.0821C199.004 94.8714 199.037 94.6575 199.07 94.4468C199.08 94.3817 199.09 94.3197 199.1 94.2577C199.123 94.112 199.143 93.9695 199.163 93.8269C199.183 93.6936 199.203 93.5604 199.223 93.4302C199.263 93.1512 199.299 92.8754 199.336 92.5965C199.392 92.1842 199.442 91.7658 199.488 91.3474H199.492C199.505 91.2079 199.522 91.0685 199.538 90.929C199.545 90.8639 199.552 90.7957 199.558 90.7275C199.711 89.3204 199.824 87.902 199.897 86.4721C199.907 86.2583 199.917 86.0413 199.927 85.8213C199.934 85.7066 199.937 85.595 199.94 85.4803C199.957 85.0805 199.97 84.6807 199.977 84.2809C199.993 83.6703 200.001 83.0577 200 82.443C200 80.4718 199.926 78.5181 199.777 76.582Z" fill="#3AA4D9"/>
<path d="M96.9572 97.3679H95.7453V130.512H96.9572V97.3679Z" fill="#212529"/>
<path d="M133.239 81.8884H132.027V130.512H133.239V81.8884Z" fill="#212529"/>
<path d="M169.596 92.0654H168.384V130.512H169.596V92.0654Z" fill="#212529"/>
<path d="M132.708 86.127C134.756 86.127 136.415 84.5782 136.415 82.6678C136.415 80.7573 134.756 79.2085 132.708 79.2085C130.661 79.2085 129.001 80.7573 129.001 82.6678C129.001 84.5782 130.661 86.127 132.708 86.127Z" fill="#212529"/>
<path d="M169.065 95.7388C171.113 95.7388 172.772 94.1901 172.772 92.2796C172.772 90.3691 171.113 88.8203 169.065 88.8203C167.017 88.8203 165.358 90.3691 165.358 92.2796C165.358 94.1901 167.017 95.7388 169.065 95.7388Z" fill="#212529"/>
<path d="M95.6869 98.0379C97.7345 98.0379 99.3943 96.4891 99.3943 94.5786C99.3943 92.6681 97.7345 91.1194 95.6869 91.1194C93.6394 91.1194 91.9796 92.6681 91.9796 94.5786C91.9796 96.4891 93.6394 98.0379 95.6869 98.0379Z" fill="#212529"/>
<path d="M183.129 130.907C182.996 131.078 182.863 131.245 182.731 131.413C182.568 131.623 182.398 131.831 182.229 132.039H72.9561V130.907H183.129Z" fill="#212529"/>
<path d="M42.2234 212.345H45.7348L47.4052 199.707L42.2228 199.707L42.2234 212.345Z" fill="#FFB8B8"/>
<path d="M51.3586 212.48C50.9509 212.096 50.4654 211.791 49.9303 211.584C49.3947 211.379 48.8216 211.274 48.2429 211.274L46.1735 209.811L46.0639 209.851L42.317 211.274H41.3271V215.52H52.6507V215.387C52.6524 214.846 52.5391 214.311 52.3173 213.812C52.0955 213.313 51.7696 212.86 51.3586 212.48Z" fill="#212529"/>
<path d="M58.5371 212.345H62.0485L63.7189 199.707L58.5365 199.707L58.5371 212.345Z" fill="#FFB8B8"/>
<path d="M67.6746 212.48C67.2663 212.095 66.7795 211.79 66.243 211.584C65.7076 211.379 65.1343 211.273 64.5556 211.274L62.4895 209.811L62.3765 209.854L58.6297 211.274H57.6398L57.6432 215.52H68.9634V215.387C68.965 214.847 68.8519 214.312 68.6307 213.813C68.4095 213.314 68.0845 212.861 67.6746 212.48Z" fill="#212529"/>
<path d="M61.3439 143.185L33.7546 143.856L34.2344 156.392C34.2344 156.392 33.7546 159.75 34.7142 160.645C35.6738 161.54 36.1536 161.54 35.6738 163.107C35.194 164.674 37.7291 167.234 37.4212 167.521C37.1133 167.808 36.3936 169.375 36.3936 169.375L38.7926 182.135C38.7926 182.135 40.472 204.296 40.9518 204.744C41.4316 205.191 41.9114 204.744 41.4316 205.863C40.9518 206.982 40.472 206.534 40.9518 206.982C41.3768 207.41 41.7772 207.858 42.1513 208.325H47.9516C47.9516 208.325 48.3889 206.087 48.3889 205.863C48.3889 205.639 48.8687 204.296 48.8687 204.072C48.8687 203.848 48.4446 203.452 48.4446 203.452C48.2981 202.997 48.1991 202.53 48.149 202.057C48.149 201.61 46.7096 184.373 46.7096 184.373L49.5885 161.988L56.5458 183.925C56.5458 183.925 56.5458 203.177 57.0256 203.624C57.5054 204.072 57.5054 203.848 57.2655 204.744C57.0256 205.639 56.066 205.415 56.7857 206.087C57.5054 206.758 57.7453 205.639 57.5054 206.758L57.2655 207.877L64.4627 207.973C64.4627 207.973 65.4224 206.087 64.9425 205.415C64.4627 204.744 64.4915 204.927 65.0769 203.828C65.6623 202.729 65.9022 202.505 65.6623 202.281C65.4224 202.057 65.4223 200.867 65.4223 200.867L64.2228 179.448C64.2228 179.448 63.9829 156.839 63.9829 156.168C63.9648 155.822 64.0331 155.478 64.1822 155.161V154.249L63.2632 151.019L61.3439 143.185Z" fill="#212529"/>
<path d="M92.5666 94.3622C92.434 94.706 92.2222 95.0186 91.9462 95.2778C91.6701 95.5371 91.3365 95.7367 90.9689 95.8626C90.6012 95.9885 90.2084 96.0377 89.8182 96.0067C89.4279 95.9756 89.0497 95.8651 88.7102 95.683L76.7343 105.045L76.0834 100.469L87.7969 92.1019C88.1627 91.59 88.7171 91.2211 89.3549 91.0651C89.9927 90.909 90.6698 90.9767 91.2577 91.2553C91.8456 91.534 92.3036 92.0041 92.5448 92.5767C92.786 93.1493 92.7938 93.7846 92.5666 94.3622Z" fill="#FFB8B8"/>
<path d="M39.7592 98.2259C43.8666 98.2259 47.1963 95.119 47.1963 91.2865C47.1963 87.454 43.8666 84.3472 39.7592 84.3472C35.6518 84.3472 32.3221 87.454 32.3221 91.2865C32.3221 95.119 35.6518 98.2259 39.7592 98.2259Z" fill="#FFB8B8"/>
<path d="M45.7885 84.3803C45.0961 82.8405 42.1288 81.9262 37.4335 82.0639C32.7382 82.2016 31.9159 87.4261 31.9159 87.4261C29.3297 89.6753 33.5051 96.6976 34.2295 95.7294C34.9538 94.7612 36.1701 95.6764 36.1701 95.6764L35.011 89.5934C36.235 90.0327 37.5514 90.3277 38.7026 89.8159L36.7952 88.8641L41.5379 89.4148L39.582 88.0108C39.6294 87.9962 39.6768 87.981 39.7242 87.9661C40.5086 88.2817 41.3486 88.4596 42.2022 88.4911C43.1993 88.4841 44.2591 88.0481 44.6769 87.2033C44.788 86.9713 44.8482 86.7209 44.8539 86.4669C46.2288 86.8834 46.9507 88.3863 46.9507 88.3863C46.6897 87.0218 46.3008 85.6813 45.7885 84.3803Z" fill="#212529"/>
<path d="M45.7123 98.5362C44.0515 98.5362 42.9819 98.7501 40.3977 99.1561C35.6277 99.9061 38.4844 104.135 38.4844 104.135C38.4844 104.135 38.7003 104.033 38.1157 104.135C37.5311 104.237 35.538 105.846 35.538 105.846L31.9739 108.8C26.6027 112.733 27.8052 118.869 27.8052 118.869L35.6377 126.224L32.2064 140.98C32.2064 140.98 33.6646 143.171 32.9106 144.154C32.1566 145.136 39.5539 144.854 39.5539 144.854C44.6593 146.977 62.6462 145.183 62.6462 145.183C62.397 144.575 59.9888 139.868 59.9888 139.868C61.0352 138.182 60.0387 135.745 60.0387 135.745C60.0387 135.745 58.999 124.222 58.3347 122.629C57.6703 121.036 60.0353 112.404 61.5899 112.497C63.1444 112.59 73.1858 107.811 73.1858 107.811C73.1858 107.811 72.9334 107.436 76.2484 106.171C78.1525 105.473 79.8982 104.446 81.3937 103.143L82.7556 100.605C82.1012 100.84 79.8923 96.9539 79.8923 96.9539L78.929 97.2965L78.3709 97.146C78.3709 97.146 74.0162 98.3021 73.126 99.1451C72.2358 99.9881 71.9369 99.7526 71.133 99.9416C70.3292 100.131 70.2295 100.658 69.9771 100.599C69.7246 100.54 69.2762 101.253 68.9241 101.16C68.572 101.067 67.818 101.442 67.3164 101.535C66.8149 101.628 63.2507 103.035 63.2507 103.035C61.0451 101.993 55.0661 102.415 55.0661 102.415C55.0661 102.415 53.1096 101.339 52.5549 102.415C52.4057 102.72 52.166 102.98 51.8642 103.163C51.5623 103.346 51.2108 103.444 50.8509 103.447L48.466 102.496C48.3274 102.968 45.7259 98.0469 45.7123 98.5362Z" fill="#212529"/>
<path d="M19.0435 198.666L18.7121 191.713C15.2572 189.989 11.4038 189.079 7.48633 189.061C12.8779 193.174 12.2041 201.102 15.8595 206.633C17.0137 208.35 18.5672 209.803 20.4049 210.883C22.2425 211.964 24.3173 212.645 26.4753 212.875L30.9871 215.453C31.6062 212.233 31.4697 208.925 30.587 205.759C29.7043 202.592 28.0964 199.642 25.8741 197.111C24.6123 195.703 23.1655 194.449 21.5678 193.378C20.4872 196.037 19.0435 198.666 19.0435 198.666Z" fill="#F2F2F2"/>
<path d="M1.74875e-06 215.631C-0.000153066 215.68 0.00997282 215.728 0.0297841 215.773C0.0495953 215.817 0.0787028 215.858 0.115441 215.892C0.15218 215.927 0.195816 215.954 0.243846 215.972C0.291876 215.991 0.343348 216 0.395302 216H94.4949C94.5998 216 94.7003 215.961 94.7744 215.892C94.8485 215.823 94.8902 215.729 94.8902 215.631C94.8902 215.533 94.8485 215.44 94.7744 215.37C94.7003 215.301 94.5998 215.262 94.4949 215.262H0.395302C0.343348 215.262 0.291875 215.272 0.243846 215.29C0.195816 215.309 0.152179 215.336 0.115441 215.37C0.0787032 215.404 0.0495959 215.445 0.0297841 215.49C0.0099722 215.535 -0.000151303 215.583 1.74875e-06 215.631Z" fill="#CCCCCC"/>
<path d="M98.1535 93.8267H96.1605V94.4465H98.1535V93.8267Z" fill="#212529"/>
<path d="M102.177 93.8269V94.4468H106.203V93.8269H102.177ZM110.229 93.8269V94.4468H114.251V93.8269H110.229ZM118.277 93.8269V94.4468H122.303V93.8269H118.277ZM126.325 93.8269V94.4468H130.351V93.8269H126.325ZM134.377 93.8269V94.4468H138.4V93.8269H134.377ZM142.425 93.8269V94.4468H146.451V93.8269H142.425ZM150.474 93.8269V94.4468H154.5V93.8269H150.474ZM158.526 93.8269V94.4468H162.548V93.8269H158.526ZM166.574 93.8269V94.4468H170.6V93.8269H166.574ZM174.622 93.8269V94.4468H178.648V93.8269H174.622ZM182.671 93.8269V94.4468H186.697V93.8269H182.671ZM190.723 93.8269V94.4468H194.745V93.8269H190.723ZM198.771 93.8269V94.4468H199.07C199.08 94.3817 199.09 94.3197 199.1 94.2577C199.123 94.1151 199.143 93.9726 199.166 93.8269H198.771Z" fill="#212529"/>
<path d="M132.699 81.4292H130.706V82.0491H132.699V81.4292Z" fill="#212529"/>
<path d="M136.722 81.4294V82.0493H140.748V81.4294H136.722ZM144.774 81.4294V82.0493H148.796V81.4294H144.774ZM152.822 81.4294V82.0493H156.848V81.4294H152.822ZM160.871 81.4294V82.0493H164.897V81.4294H160.871ZM168.922 81.4294V82.0493H172.945V81.4294H168.922ZM176.971 81.4294V82.0493H180.997V81.4294H176.971ZM185.019 81.4294V82.0493H189.045V81.4294H185.019ZM193.071 81.4294V82.0493H197.094V81.4294H193.071Z" fill="#212529"/>
<path d="M169.569 90.7273H167.576V91.3472H169.569V90.7273Z" fill="#212529"/>
<path d="M173.593 90.7275V91.3474H177.619V90.7275H173.593ZM181.644 90.7275V91.3474H185.667V90.7275H181.644ZM189.693 90.7275V91.3474H193.719V90.7275H189.693ZM197.741 90.7275V91.3474H199.492C199.505 91.2079 199.522 91.0685 199.538 90.929C199.545 90.8639 199.552 90.7957 199.558 90.7275H197.741Z" fill="#212529"/>
<path d="M50.857 155.373V135.411C50.8575 135.007 51.0297 134.619 51.3359 134.334C51.6421 134.048 52.0573 133.887 52.4903 133.887H68.648C69.0811 133.887 69.4962 134.048 69.8024 134.334C70.1086 134.619 70.2808 135.007 70.2813 135.411V155.373C70.2808 155.778 70.1086 156.165 69.8024 156.451C69.4962 156.736 69.0811 156.897 68.648 156.897H52.4903C52.0573 156.897 51.6421 156.736 51.3359 156.451C51.0297 156.165 50.8575 155.778 50.857 155.373Z" fill="#E6E6E6"/>
<path d="M52.0964 149.344V136.51C52.0968 136.132 52.2581 135.769 52.5449 135.501C52.8317 135.234 53.2205 135.083 53.626 135.083H67.5122C67.9178 135.083 68.3066 135.234 68.5934 135.501C68.8801 135.769 69.0415 136.132 69.0419 136.51V154.274C69.0415 154.653 68.8801 155.015 68.5934 155.283C68.3066 155.551 67.9178 155.701 67.5122 155.701H58.91C57.1036 155.7 55.3717 155.029 54.0943 153.837C52.817 152.645 52.0984 151.029 52.0964 149.344Z" fill="white"/>
<path d="M54.3447 140.091C54.3452 139.721 54.5028 139.367 54.783 139.105C55.0632 138.844 55.4432 138.697 55.8395 138.696H65.4723C65.8688 138.696 66.249 138.843 66.5293 139.105C66.8096 139.366 66.9671 139.721 66.9671 140.091C66.9671 140.461 66.8096 140.816 66.5293 141.077C66.249 141.339 65.8688 141.486 65.4723 141.486H55.8395C55.4432 141.485 55.0632 141.338 54.783 141.077C54.5028 140.815 54.3452 140.461 54.3447 140.091Z" fill="#E6E6E6"/>
<path d="M54.3447 144.43C54.3452 144.06 54.5028 143.706 54.783 143.444C55.0632 143.183 55.4432 143.036 55.8395 143.035H65.4723C65.8688 143.035 66.249 143.182 66.5293 143.444C66.8096 143.705 66.9671 144.06 66.9671 144.43C66.9671 144.8 66.8096 145.155 66.5293 145.416C66.249 145.678 65.8688 145.825 65.4723 145.825H55.8395C55.4432 145.824 55.0632 145.677 54.783 145.416C54.5028 145.154 54.3452 144.8 54.3447 144.43Z" fill="#E6E6E6"/>
<path d="M54.3447 148.769C54.3452 148.399 54.5028 148.045 54.783 147.783C55.0632 147.522 55.4432 147.375 55.8395 147.375H65.4723C65.8688 147.375 66.249 147.521 66.5293 147.783C66.8096 148.045 66.9671 148.399 66.9671 148.769C66.9671 149.139 66.8096 149.494 66.5293 149.755C66.249 150.017 65.8688 150.164 65.4723 150.164H55.8395C55.4432 150.164 55.0632 150.016 54.783 149.755C54.5028 149.494 54.3452 149.139 54.3447 148.769Z" fill="#E6E6E6"/>
<path d="M51.2386 148.4C50.8753 148.406 50.5149 148.338 50.1829 148.2C49.8508 148.063 49.5552 147.859 49.3168 147.603C49.0784 147.347 48.903 147.045 48.803 146.719C48.703 146.393 48.6808 146.051 48.738 145.716L34.9431 138.668L38.9805 136.631L51.7642 143.795C52.3607 143.922 52.8865 144.248 53.2421 144.713C53.5977 145.177 53.7583 145.747 53.6935 146.315C53.6288 146.883 53.3431 147.409 52.8906 147.793C52.4382 148.177 51.8504 148.393 51.2386 148.4Z" fill="#FFB8B8"/>
<path d="M43.2172 143.19L38.3254 142.38L36.5738 141.021L35.3958 140.461L31.3358 137.802L31.3237 137.768L24.8726 119.975C24.5764 118.514 24.89 117.002 25.7492 115.75C26.6085 114.497 27.9484 113.599 29.4945 113.238C30.3495 113.04 31.2399 113.012 32.107 113.158C32.9741 113.304 33.7983 113.619 34.5253 114.084C35.2523 114.548 35.8657 115.151 36.325 115.852C36.7844 116.554 37.0793 117.338 37.1903 118.154L39.2665 133.403L42.7079 136.72L44.2137 136.992L44.5603 138.505L45.8745 140.401L43.2172 143.19Z" fill="#212529"/>
</g>
<defs>
<clipPath id="clip0_4_11464">
<rect width="200" height="216" fill="white"/>
</clipPath>
</defs>
</svg>
