<svg width="200" height="162" viewBox="0 0 200 162" fill="none" xmlns="http://www.w3.org/2000/svg">
<g clip-path="url(#clip0_4_11200)">
<path d="M113.936 142.655C112.553 140.719 110.681 139.302 108.328 138.772C106.275 138.309 104.165 138.388 102.079 138.404L75.6995 138.608C73.4403 138.625 71.2742 140.582 71.3792 142.928C71.4833 145.254 73.2779 147.267 75.6995 147.248C83.4269 147.189 91.1541 147.129 98.8814 147.07C100.703 147.056 102.526 147.023 104.348 147.029C104.757 147.03 105.164 147.052 105.573 147.056C105.672 147.057 105.744 147.056 105.794 147.054C105.807 147.058 105.817 147.062 105.834 147.066C106.047 147.125 106.266 147.165 106.48 147.221C106.405 147.223 106.619 147.357 106.727 147.402C106.742 147.431 106.773 147.483 106.826 147.563C106.899 147.7 107.117 148.118 107.126 148.105C107.452 148.931 107.722 149.779 107.932 150.642C108.434 152.545 108.545 152.942 108.617 154.728C108.708 156.983 110.539 159.155 112.937 159.048C115.2 158.947 117.356 157.146 117.258 154.728C117.093 150.652 116.377 146.073 113.936 142.655Z" fill="#E6E6E6"/>
<path d="M77.2502 152.405C76.7547 149.402 76.2687 146.398 75.7636 143.397C75.2511 140.353 74.2043 137.565 71.8353 135.567C71.2023 135.033 70.546 134.535 69.8869 134.038C69.6551 133.863 69.4237 133.688 69.1947 133.51C69.181 133.499 69.1723 133.492 69.1604 133.483C69.1352 133.462 69.105 133.436 69.0644 133.401C68.077 132.566 67.1229 131.693 66.2141 130.765C65.4071 129.941 64.6353 129.082 63.8987 128.188C63.7147 127.964 63.533 127.739 63.3537 127.512C63.3228 127.473 63.1567 127.258 63.0473 127.118C62.9455 126.978 62.7594 126.724 62.7282 126.68C62.5187 126.384 62.3129 126.085 62.1109 125.783C60.7348 123.721 59.5433 121.542 58.5501 119.271C58.4516 119.046 58.3554 118.82 58.2616 118.592C58.2364 118.522 58.2038 118.433 58.1606 118.314C57.9605 117.764 57.7607 117.214 57.5777 116.657C57.1889 115.474 56.8546 114.274 56.5749 113.056C56.4366 112.454 56.3121 111.85 56.2014 111.243C56.1443 110.93 56.0909 110.617 56.0412 110.304C56.033 110.251 55.9845 109.913 55.9559 109.722C55.9348 109.53 55.8955 109.189 55.8902 109.137C55.8585 108.821 55.8305 108.504 55.8059 108.187C55.7507 107.474 55.7133 106.76 55.6939 106.045C55.6607 104.774 55.6834 103.503 55.7622 102.232C55.807 101.518 55.8708 100.806 55.9494 100.095C55.9542 100.051 55.9578 100.016 55.9613 99.9849C55.966 99.9532 55.9716 99.9171 55.9781 99.8722C56.0363 99.4793 56.0975 99.087 56.1659 98.6959C56.425 97.2109 56.7621 95.7405 57.1756 94.2909C57.3714 93.6052 57.5841 92.9252 57.8136 92.2507C57.9159 91.9513 58.0215 91.653 58.1303 91.3559C58.1232 91.3751 58.4495 90.5416 58.4539 90.5136C59.7486 87.4545 61.8663 84.6657 61.8692 81.1906C61.8712 78.8378 59.8807 76.584 57.5488 76.6927C56.3862 76.7365 55.286 77.2299 54.4801 78.069C53.6741 78.908 53.2254 80.0272 53.2285 81.1906C53.2285 81.2435 53.2282 81.2885 53.2281 81.3323C53.2063 81.4055 53.1881 81.4667 53.1718 81.5207C52.9193 82.0694 52.61 82.5908 52.3328 83.1258C51.5739 84.5903 50.9261 86.1028 50.3108 87.6375C49.3035 90.1367 48.5324 92.7248 48.0077 95.3678C46.8672 101.159 46.7787 107.108 47.7464 112.93C49.4215 123.141 54.9456 132.914 62.6255 139.484C63.292 140.054 63.9747 140.605 64.6639 141.145C64.949 141.368 65.2366 141.588 65.5256 141.805C65.6622 141.908 66.2281 142.355 65.9792 142.138C66.5145 142.595 66.7398 142.825 66.8773 143.162C66.8972 143.239 66.9244 143.345 66.9612 143.489C67.0581 143.868 67.1501 144.247 67.2266 144.632C67.8951 147.994 68.3597 151.412 68.9181 154.796C69.3019 157.121 72.1643 158.635 74.2327 157.938C76.6402 157.127 77.6614 154.896 77.2502 152.405Z" fill="#E6E6E6"/>
<path d="M114.373 161.125C112.559 161.13 110.817 160.415 109.529 159.137C108.241 157.858 107.513 156.122 107.504 154.307V149.379C102.344 149.957 84.6753 149.823 79.6105 149.009V154.11C79.597 155.923 78.8672 157.657 77.5804 158.934C76.2936 160.212 74.5541 160.928 72.7411 160.928C70.9281 160.928 69.1886 160.212 67.9018 158.934C66.615 157.657 65.8852 155.923 65.8716 154.11V144.094C59.0119 140.284 53.2933 134.711 49.3061 127.953C45.3188 121.194 43.2074 113.493 43.1896 105.646C43.1896 92.1909 49.2876 79.6391 59.92 71.2091C66.833 65.7095 75.2324 62.402 84.0392 61.7115C85.2346 61.6177 86.4372 61.5703 87.614 61.5703C91.7594 61.5703 110.463 62.2106 115.156 63.5608L125.856 52.943C126.014 52.7847 126.214 52.677 126.433 52.6334C126.652 52.5898 126.879 52.6123 127.085 52.6981C127.292 52.7807 127.47 52.924 127.595 53.1094C127.719 53.2948 127.785 53.5135 127.783 53.7368V55.425L129.866 53.3615C130.023 53.2031 130.224 53.0951 130.443 53.0514C130.661 53.0078 130.888 53.0303 131.094 53.1162C131.302 53.1987 131.48 53.3421 131.604 53.5276C131.729 53.713 131.795 53.9318 131.793 54.1553V73.0205C137.162 77.861 141.254 83.9513 143.707 90.7517C146.16 97.552 146.897 104.852 145.854 112.006C144.81 119.159 142.018 125.945 137.725 131.761C133.432 137.578 127.771 142.246 121.243 145.351V154.307C121.234 156.122 120.506 157.858 119.218 159.137C117.93 160.415 116.188 161.13 114.373 161.125ZM108.044 148.766V154.307C108.058 155.977 108.73 157.574 109.916 158.75C111.101 159.925 112.704 160.585 114.373 160.585C116.043 160.585 117.645 159.925 118.831 158.75C120.016 157.574 120.689 155.977 120.703 154.307V145.01L120.857 144.936C128.182 141.46 134.4 136.022 138.822 129.226C144.456 120.553 146.799 110.15 145.427 99.8994C144.055 89.6487 139.059 80.2278 131.342 73.3419L131.253 73.2613V54.1553C131.254 54.0392 131.221 53.9253 131.156 53.829C131.091 53.7326 130.998 53.6584 130.89 53.6164C130.783 53.5704 130.664 53.558 130.549 53.5808C130.434 53.6036 130.329 53.6606 130.247 53.7442L127.243 56.72V53.7368C127.245 53.6207 127.211 53.5068 127.146 53.4105C127.081 53.3141 126.989 53.24 126.88 53.1979C126.773 53.152 126.653 53.1397 126.538 53.1627C126.423 53.1857 126.318 53.2428 126.236 53.3266L115.307 64.1718L115.151 64.1231C110.789 62.7577 91.7909 62.1103 87.6139 62.1103C86.4512 62.1103 85.2627 62.1572 84.0816 62.2499C75.3818 62.932 67.0845 66.1993 60.2555 71.6322C49.7531 79.9592 43.7296 92.3568 43.7296 105.646C43.7476 113.424 45.8477 121.055 49.8119 127.747C53.7761 134.439 59.4597 139.947 66.2724 143.699L66.4117 143.776V154.11C66.4256 155.78 67.0986 157.376 68.2841 158.552C69.4695 159.727 71.0715 160.387 72.7411 160.387C74.4107 160.387 76.0126 159.727 77.1981 158.552C78.3836 157.376 79.0566 155.78 79.0705 154.11V148.363L79.3904 148.423C83.9419 149.279 103.107 149.414 107.739 148.806L108.044 148.766Z" fill="#212529"/>
<path d="M77.7663 32.1646L47.8638 41.151C46.9127 41.438 46.1144 42.0908 45.6443 42.966C45.1742 43.8411 45.0707 44.8671 45.3566 45.8186C45.6425 46.77 46.2944 47.569 47.1691 48.0401C48.0437 48.5112 49.0696 48.6158 50.0213 48.331L76.1893 40.4652L76.7375 40.3004C76.8484 37.4756 77.6148 34.7153 78.976 32.2375C78.8051 32.1607 78.6226 32.1132 78.4359 32.0971C78.2104 32.0753 77.9829 32.0982 77.7663 32.1646Z" fill="#3AA4D9"/>
<path d="M49.5042 50.2468C49.1072 50.2458 48.7206 50.1201 48.399 49.8875C48.0774 49.6548 47.837 49.327 47.7118 48.9503L45.842 43.3079C45.7639 43.0723 45.7329 42.8236 45.751 42.576C45.769 42.3284 45.8356 42.0868 45.947 41.865C46.0584 41.6431 46.2125 41.4454 46.4003 41.2832C46.5881 41.1209 46.8061 40.9971 47.0417 40.9191L71.3793 32.8535C71.6149 32.7753 71.8636 32.7444 72.1112 32.7624C72.3587 32.7804 72.6003 32.847 72.8221 32.9584C73.044 33.0698 73.2417 33.2238 73.404 33.4115C73.5663 33.5993 73.69 33.8173 73.7681 34.0529L75.638 39.6953C75.7936 40.1594 75.7624 40.6658 75.551 41.1073C75.3397 41.5488 74.9648 41.8906 74.5057 42.0605C74.4833 42.0689 74.4606 42.0769 74.4376 42.0844L50.1006 50.1497C49.9083 50.2139 49.7069 50.2466 49.5042 50.2468Z" fill="#212529"/>
<path d="M95.0829 22.144C90.1709 22.1459 85.4523 24.0591 81.926 27.4786C78.3996 30.8981 76.3423 35.5555 76.1893 40.4652C76.1839 40.6569 76.1812 40.8513 76.1812 41.0457C76.1812 44.7841 77.2898 48.4385 79.3667 51.5469C81.4437 54.6553 84.3957 57.0779 87.8495 58.5086C91.3033 59.9392 95.1039 60.3135 98.7704 59.5842C102.437 58.8549 105.805 57.0547 108.448 54.4112C111.092 51.7678 112.892 48.3998 113.621 44.7332C114.351 41.0667 113.976 37.2662 112.546 33.8124C111.115 30.3585 108.692 27.4065 105.584 25.3296C102.476 23.2526 98.8213 22.144 95.0829 22.144ZM95.0829 59.4073C90.2146 59.4023 85.5472 57.4661 82.1049 54.0237C78.6625 50.5814 76.7263 45.914 76.7213 41.0457C76.7213 40.7946 76.7267 40.5462 76.7375 40.3004C76.8837 36.7037 78.084 33.2292 80.189 30.3091C82.294 27.389 85.211 25.1521 88.5772 23.8766C91.9433 22.601 95.6102 22.343 99.1218 23.1348C102.633 23.9265 105.835 25.733 108.328 28.3296C110.821 30.9262 112.496 34.1984 113.144 37.7393C113.793 41.2802 113.386 44.9335 111.974 48.245C110.563 51.5566 108.209 54.3802 105.206 56.3648C102.203 58.3494 98.6826 59.4074 95.0829 59.4073Z" fill="#212529"/>
<path d="M111.014 41.0457C111.014 45.271 109.336 49.3232 106.348 52.3109C103.36 55.2986 99.3081 56.9771 95.0829 56.9771C90.8576 56.9771 86.8054 55.2986 83.8177 52.3109C80.8299 49.3232 79.1515 45.271 79.1515 41.0457C79.1515 40.5408 79.1757 40.0439 79.2216 39.5525C79.6055 35.4747 81.5452 31.7014 84.638 29.0161C87.7308 26.3308 91.739 24.9398 95.8303 25.1319C99.9217 25.3241 103.782 27.0846 106.609 30.048C109.437 33.0114 111.014 36.9499 111.014 41.0457Z" fill="#E6E6E6"/>
<path d="M99.8271 42.1042C99.441 41.5965 98.933 41.1943 98.3502 40.935C97.6313 40.632 96.889 40.3882 96.1305 40.2059V35.8693C97.2964 36.0451 98.3898 36.5437 99.2871 37.3086L100.167 35.4319C99.6611 34.9809 99.0799 34.6217 98.45 34.3707C97.7518 34.088 97.019 33.9 96.2709 33.8118V31.6138H94.2323V33.8334C93.4451 33.9218 92.6857 34.1768 92.0046 34.5813C91.3894 34.9455 90.8714 35.4532 90.4951 36.0611C90.136 36.6543 89.9499 37.3361 89.9578 38.0295C89.9227 38.781 90.1404 39.5225 90.5762 40.1357C90.9772 40.6666 91.5069 41.0867 92.1152 41.3562C92.8455 41.6681 93.6007 41.9183 94.3727 42.1042V46.2599C92.9969 46.1561 91.686 45.633 90.6167 44.7612L89.7365 46.6406C90.3344 47.1349 91.0143 47.5206 91.7454 47.7801C92.5465 48.0668 93.3834 48.2413 94.2323 48.2985V50.4776H96.271V48.258C97.4033 48.1343 98.4652 47.6474 99.2979 46.8701C99.6646 46.5184 99.9543 46.0944 100.149 45.625C100.343 45.1555 100.438 44.6508 100.427 44.1429C100.461 43.4154 100.249 42.6976 99.8271 42.1042ZM94.3727 39.7469C93.8761 39.5963 93.4144 39.3485 93.0144 39.0178C92.856 38.8768 92.7307 38.7025 92.6476 38.5074C92.5645 38.3122 92.5257 38.1011 92.5339 37.8891C92.5191 37.4082 92.6959 36.9411 93.0253 36.5903C93.3905 36.2223 93.8616 35.9778 94.3727 35.8909V39.7469ZM97.4105 45.493C97.066 45.8463 96.6175 46.08 96.1305 46.16V42.5848C96.596 42.7097 97.0313 42.9274 97.4105 43.2248C97.5542 43.3476 97.6684 43.5011 97.7446 43.6741C97.8208 43.8471 97.857 44.035 97.8506 44.2239C97.8694 44.6873 97.7121 45.1407 97.4105 45.493Z" fill="#3AA4D9"/>
<path d="M50.372 73.1148C49.9546 73.1141 49.5491 72.9757 49.2183 72.7211C48.8876 72.4664 48.65 72.1098 48.5426 71.7064L47.5246 67.8532C47.3972 67.3688 47.467 66.8537 47.7189 66.4209C47.9707 65.988 48.384 65.6727 48.868 65.5441L80.9848 57.0573C81.4695 56.9309 81.9845 57.0015 82.4172 57.2538C82.8499 57.5061 83.1651 57.9195 83.2938 58.4035L84.1562 61.6681L83.9946 61.6806C75.7577 62.321 67.8765 65.3075 61.2836 70.2865L61.2367 70.3092L50.8516 73.0526C50.6951 73.0939 50.5339 73.1148 50.372 73.1148Z" fill="#212529"/>
<path d="M45.0529 92.1478C41.2854 91.5912 37.6822 90.2288 34.489 88.1536C32.907 87.1262 31.4424 85.9284 30.1216 84.5816C28.818 83.2519 27.5709 81.7406 26.9251 79.9698C26.3039 78.3315 26.3359 76.5171 27.0146 74.9017C27.684 73.2961 28.9628 72.0216 30.5705 71.3574C32.1878 70.7125 34.1419 70.6435 35.7159 71.3498C36.4659 71.6786 37.115 72.201 37.5964 72.8635C37.8202 73.169 37.9859 73.513 38.0852 73.8783C38.1774 74.2094 38.1858 74.5582 38.1096 74.8934C38.0173 75.228 37.8546 75.5389 37.6322 75.8055C37.4099 76.072 37.1332 76.2879 36.8206 76.4387C36.1326 76.7917 35.3872 77.019 34.6193 77.1101C33.847 77.2154 32.7376 77.3112 32.1167 76.6913C31.9889 76.5686 31.8884 76.4204 31.8217 76.2563C31.775 76.1307 31.7591 75.9957 31.7752 75.8626C31.7661 75.9213 31.8126 75.7351 31.81 75.7425C31.8001 75.77 31.7576 75.8371 31.8181 75.734C31.8369 75.7 31.858 75.6673 31.881 75.636C31.8605 75.6625 31.8154 75.7068 31.8959 75.6308C31.9624 75.5581 32.0479 75.5053 32.1428 75.4784C32.1802 75.4675 32.2181 75.4589 32.2555 75.4486C32.3508 75.4226 32.1606 75.4501 32.2581 75.4469C32.2957 75.4457 32.3337 75.4467 32.3712 75.445C32.4668 75.4407 32.2769 75.4189 32.3685 75.4419C32.4041 75.4509 32.4393 75.4596 32.4743 75.4706C32.5505 75.4946 32.4204 75.4148 32.472 75.4746C32.5325 75.5446 32.4085 75.4064 32.4773 75.4742C32.5115 75.5078 32.5437 75.5434 32.5738 75.5807C32.6931 75.6984 32.8539 75.7644 33.0214 75.7644C33.1889 75.7644 33.3497 75.6984 33.469 75.5807C33.5841 75.4602 33.6484 75.2999 33.6484 75.1331C33.6484 74.9664 33.5841 74.8061 33.469 74.6856C32.8448 73.9119 31.612 74.103 30.9806 74.757C30.1754 75.5909 30.4943 76.9126 31.2775 77.6403C32.1642 78.4641 33.42 78.5213 34.5606 78.3831C35.5245 78.2908 36.4638 78.0254 37.3335 77.5995C38.1976 77.1749 38.8734 76.4448 39.2301 75.5505C39.3912 75.0733 39.449 74.5673 39.3998 74.066C39.3507 73.5647 39.1956 73.0796 38.9449 72.6427C37.9379 70.7495 35.8527 69.7789 33.7917 69.6108C32.7305 69.5276 31.6634 69.6558 30.6521 69.9878C29.6409 70.3198 28.7055 70.849 27.9001 71.5449C26.3477 72.9424 25.3918 74.8831 25.23 76.9656C25.0501 79.1247 25.8878 81.2215 27.1092 82.964C28.3878 84.7344 29.9136 86.3124 31.64 87.6498C35.0151 90.3444 38.9742 92.2116 43.2003 93.1018C43.7029 93.2056 44.2083 93.2945 44.7164 93.3685C44.878 93.4076 45.0486 93.3837 45.1932 93.3016C45.3379 93.2195 45.4458 93.0853 45.495 92.9264C45.5384 92.7646 45.5163 92.5921 45.4336 92.4464C45.3509 92.3007 45.2141 92.1935 45.0529 92.1478Z" fill="#212529"/>
<path d="M105.372 64.6388C99.8524 64.5609 94.3499 64.701 88.8649 65.0591C86.99 65.1815 85.3679 65.8441 85.3679 66.9579C85.3679 67.8891 86.9771 68.98 88.8649 68.8567C94.3471 68.4987 99.8496 68.3586 105.372 68.4364C109.875 68.5 109.872 64.7023 105.372 64.6388Z" fill="#CCCCCC"/>
<path d="M97.2138 68.2484C96.6173 68.2484 82.604 68.2261 82.604 66.2904C82.604 64.3549 96.6173 64.3326 97.2138 64.3326C97.8103 64.3326 111.824 64.3549 111.824 66.2904C111.824 68.2261 97.8103 68.2484 97.2138 68.2484ZM83.1519 66.2904C83.5354 66.8773 88.6864 67.7083 97.2138 67.7083C105.741 67.7083 110.892 66.8773 111.276 66.2904C110.892 65.7037 105.741 64.8727 97.2138 64.8727C88.6864 64.8727 83.5354 65.7037 83.1519 66.2904Z" fill="#212529"/>
<path d="M141.674 119.134C144.776 119.048 148.637 118.941 151.611 116.768C152.497 116.094 153.225 115.235 153.743 114.251C154.262 113.267 154.559 112.181 154.614 111.069C154.675 109.354 154.055 107.856 152.869 106.853C151.315 105.541 149.047 105.233 146.602 105.951L149.135 87.4415L147.276 87.1868L144.298 108.947L145.851 108.235C147.651 107.409 150.122 106.989 151.657 108.286C152.034 108.626 152.328 109.047 152.516 109.519C152.703 109.99 152.78 110.498 152.739 111.003C152.693 111.831 152.47 112.638 152.085 113.371C151.699 114.104 151.16 114.746 150.504 115.252C148.19 116.943 145.112 117.161 141.622 117.259L141.674 119.134Z" fill="#212529"/>
<path d="M136.533 89.0378H126.426V90.9146H136.533V89.0378Z" fill="#212529"/>
<path d="M54.9459 81.7464C54.4959 81.745 54.0613 81.5834 53.7196 81.2906C53.378 80.9978 53.1519 80.5929 53.0816 80.1486L52.4646 76.2112C52.3876 75.716 52.5101 75.2105 52.8054 74.8055C53.1006 74.4005 53.5444 74.1292 54.0395 74.0511L86.8559 68.9092C87.351 68.8322 87.8566 68.9547 88.2615 69.25C88.6664 69.5452 88.9377 69.989 89.0158 70.484L89.6327 74.4215C89.7098 74.9167 89.5873 75.4222 89.2921 75.8272C88.9968 76.2321 88.553 76.5034 88.058 76.5815L55.2416 81.7233C55.1437 81.7387 55.0449 81.7464 54.9459 81.7464Z" fill="#212529"/>
<path d="M41.3648 35.604C48.9704 35.604 55.136 29.4384 55.136 21.8327C55.136 14.2271 48.9704 8.06152 41.3648 8.06152C33.7591 8.06152 27.5936 14.2271 27.5936 21.8327C27.5936 29.4384 33.7591 35.604 41.3648 35.604Z" fill="#3AA4D9"/>
<path d="M49.1618 25.3959C49.6019 25.242 50.004 24.9956 50.3409 24.6733C50.5639 24.4435 50.7339 24.1678 50.8391 23.8654C50.9442 23.563 50.982 23.2413 50.9498 22.9227C50.931 22.6957 50.8601 22.4761 50.7424 22.281C50.6247 22.086 50.4635 21.9208 50.2714 21.7983C49.7731 21.4918 49.1145 21.5034 48.4496 21.8116L48.3729 16.436L47.8329 16.4437L47.9231 22.7633L48.3342 22.4937C48.8108 22.1816 49.4957 21.9553 49.9885 22.2584C50.1104 22.3386 50.2121 22.4459 50.2857 22.5718C50.3594 22.6978 50.403 22.839 50.4132 22.9846C50.4359 23.2219 50.4073 23.4613 50.3292 23.6865C50.2511 23.9118 50.1253 24.1175 49.9606 24.2898C49.3752 24.8707 48.5087 25.0653 47.5198 25.2433L47.6155 25.7747C48.1412 25.6949 48.6587 25.5681 49.1618 25.3959Z" fill="#212529"/>
<path d="M53.9337 16.0587L51.0579 16.4943L51.1388 17.0282L54.0146 16.5926L53.9337 16.0587Z" fill="#212529"/>
<path d="M44.8563 17.4331L41.9805 17.8687L42.0614 18.4025L44.9372 17.967L44.8563 17.4331Z" fill="#212529"/>
<path d="M50.4654 81.5056C49.9702 81.5045 49.487 81.3527 49.0801 81.0703C48.6733 80.7878 48.3621 80.3882 48.1879 79.9246L38.6931 54.4967C37.5325 51.3782 37.6565 47.9266 39.0376 44.8993C40.4188 41.872 42.9445 39.5162 46.0604 38.3487L53.7809 35.4659C54.0794 35.3536 54.3972 35.3015 54.7159 35.3126C55.0347 35.3237 55.3481 35.3977 55.6381 35.5303C55.9274 35.6596 56.1881 35.8452 56.4049 36.0764C56.6216 36.3076 56.7901 36.5796 56.9006 36.8766L74.489 70.0852C74.6032 70.3847 74.657 70.7037 74.6474 71.0241C74.6378 71.3444 74.565 71.6597 74.433 71.9518C74.3011 72.2439 74.1127 72.507 73.8787 72.7259C73.6447 72.9449 73.3697 73.1155 73.0696 73.2278L51.3147 81.3512C51.0431 81.453 50.7555 81.5053 50.4654 81.5056Z" fill="#212529"/>
<path d="M51.4385 36.3405L68.8898 59.6774L57.0813 36.5854C56.9837 36.316 56.8341 36.0684 56.6409 35.8568C56.4476 35.6452 56.2146 35.4738 55.9551 35.3522C55.6956 35.2307 55.4147 35.1615 55.1285 35.1486C54.8422 35.1357 54.5562 35.1792 54.2868 35.2769L51.4385 36.3405Z" fill="#E6E6E6"/>
<path d="M79.0705 54.0635L47.9111 52.0564C47.4199 52.0248 46.9398 51.8967 46.4981 51.6795C46.0565 51.4624 45.6619 51.1603 45.337 50.7907C45.0121 50.421 44.7632 49.9909 44.6044 49.5251C44.4457 49.0592 44.3803 48.5666 44.4119 48.0755C44.4436 47.5843 44.5716 47.1042 44.7888 46.6626C45.006 46.2209 45.308 45.8264 45.6777 45.5014C46.0473 45.1765 46.4774 44.9276 46.9433 44.7689C47.4091 44.6101 47.9017 44.5447 48.3928 44.5764L79.5523 46.5833C79.7823 46.5981 80.0072 46.6581 80.214 46.7598C80.4209 46.8615 80.6057 47.0029 80.7578 47.176C80.91 47.3492 81.0266 47.5506 81.1009 47.7687C81.1752 47.9869 81.2059 48.2176 81.1911 48.4476L80.9349 52.4248C80.905 52.8894 80.6917 53.323 80.3421 53.6303C79.9925 53.9376 79.5351 54.0934 79.0705 54.0635Z" fill="#3AA4D9"/>
<path d="M70.7443 55.3502C70.7032 55.3502 70.6619 55.3489 70.6206 55.3463L45.0341 53.6982C44.7864 53.6823 44.5442 53.6177 44.3215 53.5082C44.0987 53.3987 43.8997 53.2463 43.7358 53.0599C43.572 52.8735 43.4464 52.6566 43.3664 52.4216C43.2863 52.1867 43.2533 51.9383 43.2693 51.6905L43.7068 44.8972C43.7228 44.6495 43.7874 44.4074 43.8969 44.1846C44.0065 43.9619 44.1588 43.7629 44.3453 43.599C44.5317 43.4352 44.7486 43.3096 44.9836 43.2296C45.2186 43.1496 45.467 43.1166 45.7147 43.1326L71.3011 44.7805C71.8011 44.8133 72.2677 45.0431 72.5986 45.4195C72.9294 45.7958 73.0974 46.2881 73.0658 46.7882L72.6283 53.5816C72.6042 53.9456 72.4756 54.295 72.2578 54.5877C72.0401 54.8803 71.7425 55.104 71.4008 55.2317C71.1908 55.3102 70.9685 55.3504 70.7443 55.3502Z" fill="#212529"/>
<path d="M41.207 12.675C43.0186 11.1169 45.5064 12.5108 47.584 12.2668C49.5717 12.0333 51.1412 10.2504 51.5422 8.35618C52.01 6.14631 50.8629 3.93234 49.1723 2.55452C47.3206 1.04547 44.8648 0.612255 42.5377 0.891441C39.8705 1.21142 37.4312 2.4547 35.2425 3.95852C33.1298 5.3651 31.1869 7.01142 29.4527 8.86463C27.8998 10.5797 26.584 12.6241 26.1639 14.932C25.7821 17.0294 26.0736 19.3536 27.3135 21.1304C27.971 22.0411 28.8521 22.767 29.8718 23.238C30.935 23.7601 32.0691 24.1333 33.0991 24.7236C34.6566 25.6161 36.1703 27.4668 35.6824 29.3926C35.5778 29.8133 35.3714 30.2018 35.0813 30.524C34.7328 30.9109 34.1042 30.3996 34.4536 30.0117C35.0673 29.3305 35.0432 28.4219 34.7161 27.6085C34.3272 26.6919 33.6385 25.9346 32.7629 25.4606C31.6847 24.8442 30.4943 24.4637 29.3892 23.9022C28.3315 23.3892 27.4133 22.6283 26.7129 21.6842C25.3902 19.8462 24.9946 17.4541 25.2946 15.2412C25.6192 12.8465 26.8496 10.6704 28.3919 8.8469C30.0705 6.86238 32.1323 5.18254 34.2386 3.67342C36.4987 2.05413 38.9957 0.685129 41.7588 0.189983C44.154 -0.23923 46.7501 0.0250207 48.8446 1.33028C50.7996 2.54865 52.2988 4.64449 52.4479 6.98638C52.5014 8.05194 52.2701 9.11251 51.7776 10.059C51.2852 11.0054 50.5494 11.8035 49.6461 12.3712C48.7192 12.9259 47.6415 13.1756 46.5651 13.085C45.4144 13.0113 44.2625 12.6589 43.1044 12.7568C42.5804 12.7886 42.081 12.9904 41.6819 13.3315C41.2861 13.6719 40.8144 13.0127 41.207 12.675Z" fill="#212529"/>
<path d="M199.678 161.252H0.321499C0.23639 161.251 0.154852 161.217 0.094758 161.157C0.0346638 161.097 0.000915527 161.015 0.000915527 160.93C0.000915527 160.845 0.0346638 160.763 0.094758 160.703C0.154852 160.643 0.23639 160.609 0.321499 160.609H199.678C199.764 160.609 199.846 160.642 199.906 160.703C199.966 160.763 200 160.845 200 160.93C200 161.015 199.966 161.097 199.906 161.157C199.846 161.218 199.764 161.252 199.678 161.252Z" fill="#212529"/>
</g>
<defs>
<clipPath id="clip0_4_11200">
<rect width="200" height="161.252" fill="white"/>
</clipPath>
</defs>
</svg>
