<svg width="200" height="220" viewBox="0 0 200 220" fill="none" xmlns="http://www.w3.org/2000/svg">
<g clip-path="url(#clip0_4_11547)">
<path d="M138.878 44.5493C125.014 42.3367 109.226 41.1561 92.7838 41.1561C77.7361 41.1561 63.2386 42.1434 50.2638 44.005C50.2669 43.8058 50.2698 43.6065 50.2786 43.4073C50.6226 31.8419 55.4768 20.8699 63.8037 12.8362C72.1305 4.80257 83.2695 0.344693 94.8398 0.415379C106.41 0.486064 117.494 5.07971 125.722 13.2145C133.95 21.3493 138.67 32.3798 138.872 43.9485C138.875 44.1508 138.878 44.35 138.878 44.5493Z" fill="#3AA4D9"/>
<g opacity="0.1">
<path d="M100.382 0.398889C94.2282 -0.432316 87.9684 0.0387866 82.0083 1.78166C76.0483 3.52454 70.5209 6.5003 65.7845 10.5161C61.0481 14.5319 57.2083 19.498 54.5141 25.0928C51.8198 30.6875 50.3311 36.7859 50.1446 42.9928C50.1356 43.192 50.1327 43.3913 50.1298 43.5905C53.9845 43.0374 57.9762 42.5635 62.0742 42.1678C62.5754 31.8274 66.681 21.9888 73.6784 14.3592C80.6758 6.72955 90.1234 1.79044 100.382 0.398889Z" fill="white"/>
</g>
<path d="M158.262 48.0643C151.88 46.3342 145.407 44.9602 138.872 43.9485C128.162 42.2888 117.365 41.2512 106.535 40.8408C102.023 40.6564 97.4289 40.5613 92.7838 40.5613C89.1022 40.5613 85.4502 40.6208 81.8489 40.7397C71.2847 41.0518 60.7455 41.9423 50.2786 43.4072C42.5306 44.4741 34.8576 46.0296 27.3057 48.0643C9.69764 52.9324 9.05991e-06 59.457 9.05991e-06 66.4337C9.05991e-06 73.4103 9.69766 79.9349 27.3057 84.8031C39.6888 88.2289 54.9565 90.5634 71.5923 91.634C78.4588 92.0801 85.5574 92.3061 92.7838 92.3061C100.034 92.3061 107.156 92.0771 114.044 91.631C129.184 90.6526 143.19 88.6274 154.913 85.6833C154.976 85.6655 155.035 85.6506 155.098 85.6357C155.889 85.4395 156.668 85.2343 157.438 85.0291C157.715 84.9518 157.988 84.8774 158.262 84.8031C158.277 84.7968 158.293 84.7918 158.309 84.7882C158.571 84.7168 158.83 84.6425 159.088 84.5711C159.606 84.4224 160.117 84.2767 160.62 84.125C160.644 84.1191 160.665 84.1131 160.685 84.1072C161.123 83.9763 161.551 83.8455 161.976 83.7146C162.324 83.6046 162.669 83.4976 163.011 83.3875C163.261 83.3072 163.508 83.2269 163.751 83.1466C163.93 83.0872 164.105 83.0307 164.278 82.9712C164.513 82.8939 164.748 82.8136 164.98 82.7333C165.078 82.7006 165.176 82.6679 165.271 82.6322C165.494 82.5578 165.711 82.4805 165.928 82.4032C166.163 82.3199 166.398 82.2337 166.63 82.1504C166.823 82.082 167.017 82.0106 167.207 81.9393C167.368 81.8768 167.525 81.8173 167.686 81.7579C168.123 81.5943 168.551 81.4248 168.974 81.2583C169.185 81.172 169.396 81.0888 169.604 81.0025C169.809 80.9192 170.017 80.833 170.22 80.7468C170.553 80.607 170.88 80.4672 171.201 80.3274C171.356 80.2561 171.513 80.1877 171.665 80.1223C171.781 80.0687 171.894 80.0182 172.01 79.9647C172.093 79.929 172.176 79.8903 172.257 79.8516C172.557 79.7148 172.854 79.5751 173.146 79.4353C174.264 78.9 175.308 78.3528 176.277 77.7938C182.359 74.3114 185.568 70.4484 185.568 66.4337C185.568 59.457 175.87 52.9324 158.262 48.0643ZM158.101 84.2321C145.703 87.6609 130.394 89.9954 113.714 91.0571C106.93 91.4883 99.9181 91.7113 92.7838 91.7113C85.6733 91.7113 78.6848 91.4912 71.9223 91.06C55.2152 90.0013 39.8821 87.6669 27.4663 84.2321C10.1378 79.4383 0.594777 73.1189 0.594777 66.4337C0.595745 65.843 0.669682 65.2547 0.81491 64.6821C2.33145 58.6511 11.6604 53.0068 27.4663 48.6352C34.9612 46.6164 42.5753 45.0699 50.2638 44.005C60.7937 42.5318 71.3965 41.6383 82.0244 41.3285C85.5693 41.2125 89.1558 41.1551 92.7838 41.156C97.3665 41.156 101.899 41.2482 106.353 41.4267C117.247 41.8334 128.107 42.876 138.878 44.5492C145.356 45.5564 151.774 46.9205 158.101 48.6352C173.904 53.0068 183.23 58.6482 184.75 64.6761C184.897 65.2503 184.972 65.8408 184.973 66.4337C184.973 73.1189 175.43 79.4383 158.101 84.2321Z" fill="#212529"/>
<path d="M185.398 66.7043C185.398 70.6774 182.124 74.4363 176.277 77.7938C175.305 78.3529 174.258 78.9 173.146 79.4353C172.854 79.5751 172.557 79.7149 172.257 79.8517C172.176 79.8903 172.093 79.929 172.01 79.9647C171.894 80.0182 171.781 80.0688 171.665 80.1223C171.513 80.1877 171.356 80.2561 171.201 80.3275C170.88 80.4672 170.553 80.607 170.22 80.7468C170.017 80.833 169.809 80.9193 169.604 81.0025C169.396 81.0888 169.185 81.172 168.974 81.2583C168.551 81.4248 168.123 81.5943 167.686 81.7579C167.525 81.8174 167.368 81.8768 167.207 81.9393C167.017 82.0107 166.823 82.082 166.63 82.1504C166.398 82.2337 166.163 82.3199 165.928 82.4032C165.711 82.4805 165.494 82.5578 165.271 82.6322C165.176 82.6679 165.078 82.7006 164.98 82.7333C164.748 82.8136 164.513 82.8939 164.278 82.9712C164.105 83.0307 163.93 83.0872 163.751 83.1467C163.508 83.227 163.261 83.3072 163.011 83.3876C162.669 83.4976 162.324 83.6046 161.976 83.7147C161.551 83.8455 161.123 83.9764 160.685 84.1072C160.665 84.1132 160.644 84.1191 160.62 84.1251C160.117 84.2767 159.606 84.4225 159.088 84.5711C158.83 84.6425 158.571 84.7169 158.309 84.7882C158.293 84.7918 158.277 84.7968 158.262 84.8031C157.988 84.8774 157.714 84.9518 157.438 85.0291C156.671 85.2313 155.889 85.4365 155.098 85.6358C155.035 85.6506 154.976 85.6655 154.913 85.6834C143.508 88.5323 129.517 90.608 114.032 91.6102C107.249 92.0474 100.177 92.2793 92.9117 92.2793C85.5812 92.2793 78.4498 92.0444 71.613 91.5983C30.8 88.9367 0.425302 78.8019 0.425302 66.7043C0.428515 65.9682 0.540719 65.2366 0.758262 64.5334C0.776122 64.584 0.79398 64.6316 0.814892 64.6821C5.05842 75.8281 35.1746 84.8358 74.2508 87.0335C80.2372 87.3725 86.4376 87.5479 92.7838 87.5479C99.1567 87.5479 105.381 87.3695 111.391 87.0305C150.435 84.8239 180.521 75.8132 184.75 64.6762C184.821 64.4977 184.884 64.3193 184.937 64.1409C185.239 64.9621 185.395 65.8295 185.398 66.7043Z" fill="#212529"/>
<path d="M27.261 63.5034C22.3117 63.5034 17.0516 62.4386 17.0516 60.4651C17.0516 58.4916 22.3117 57.4268 27.261 57.4268C32.2102 57.4268 37.4704 58.4916 37.4704 60.4651C37.4704 62.4386 32.2102 63.5034 27.261 63.5034ZM27.261 58.0215C21.5949 58.0215 17.6463 59.3094 17.6463 60.4651C17.6463 61.6208 21.5949 62.9086 27.261 62.9086C32.927 62.9086 36.8756 61.6208 36.8756 60.4651C36.8756 59.3094 32.927 58.0215 27.261 58.0215Z" fill="#212529"/>
<path d="M48.3752 77.4804C43.426 77.4804 38.1658 76.4156 38.1658 74.4421C38.1658 72.4686 43.426 71.4038 48.3752 71.4038C53.3245 71.4038 58.5846 72.4686 58.5846 74.4421C58.5846 76.4156 53.3245 77.4804 48.3752 77.4804ZM48.3752 71.9986C42.7092 71.9986 38.7606 73.2864 38.7606 74.4421C38.7606 75.5978 42.7092 76.8857 48.3752 76.8857C54.0412 76.8857 57.9898 75.5978 57.9898 74.4421C57.9898 73.2864 54.0412 71.9986 48.3752 71.9986Z" fill="#212529"/>
<path d="M158.11 63.5034C153.161 63.5034 147.9 62.4386 147.9 60.4651C147.9 58.4916 153.161 57.4268 158.11 57.4268C163.059 57.4268 168.319 58.4916 168.319 60.4651C168.319 62.4386 163.059 63.5034 158.11 63.5034ZM158.11 58.0215C152.444 58.0215 148.495 59.3094 148.495 60.4651C148.495 61.6208 152.444 62.9086 158.11 62.9086C163.776 62.9086 167.724 61.6208 167.724 60.4651C167.724 59.3094 163.776 58.0215 158.11 58.0215Z" fill="#212529"/>
<path d="M136.996 77.4804C132.046 77.4804 126.786 76.4156 126.786 74.4421C126.786 72.4686 132.046 71.4038 136.996 71.4038C141.945 71.4038 147.205 72.4686 147.205 74.4421C147.205 76.4156 141.945 77.4804 136.996 77.4804ZM136.996 71.9986C131.33 71.9986 127.381 73.2864 127.381 74.4421C127.381 75.5978 131.33 76.8857 136.996 76.8857C142.662 76.8857 146.61 75.5978 146.61 74.4421C146.61 73.2864 142.662 71.9986 136.996 71.9986Z" fill="#212529"/>
<path d="M92.6854 84.0229C87.7361 84.0229 82.476 82.9581 82.476 80.9846C82.476 79.0111 87.7362 77.9463 92.6854 77.9463C97.6347 77.9463 102.895 79.0111 102.895 80.9846C102.895 82.9581 97.6347 84.0229 92.6854 84.0229ZM92.6854 78.5411C87.0193 78.5411 83.0708 79.8289 83.0708 80.9846C83.0708 82.1403 87.0193 83.4281 92.6854 83.4281C98.3514 83.4281 102.3 82.1403 102.3 80.9846C102.3 79.8289 98.3514 78.5411 92.6854 78.5411Z" fill="#212529"/>
<path d="M100.212 146.526C107.112 146.526 112.706 140.932 112.706 134.032C112.706 127.132 107.112 121.538 100.212 121.538C93.3116 121.538 87.718 127.132 87.718 134.032C87.718 140.932 93.3116 146.526 100.212 146.526Z" fill="#212529"/>
<path d="M95.4608 142.241L89.3802 145.286L91.0798 148.679L97.1604 145.634L95.4608 142.241Z" fill="#212529"/>
<path d="M91.8814 148.335C92.242 147.788 91.3521 146.565 89.8937 145.604C88.4353 144.642 86.9607 144.306 86.6001 144.853C86.2395 145.4 87.1295 146.623 88.5879 147.584C90.0462 148.546 91.5208 148.882 91.8814 148.335Z" fill="#212529"/>
<path d="M104.963 142.241L103.263 145.635L109.344 148.68L111.043 145.286L104.963 142.241Z" fill="#212529"/>
<path d="M111.836 147.584C113.294 146.623 114.184 145.4 113.823 144.853C113.463 144.306 111.988 144.642 110.53 145.604C109.071 146.565 108.182 147.788 108.542 148.335C108.903 148.882 110.377 148.546 111.836 147.584Z" fill="#212529"/>
<path d="M99.3371 135.246C101.695 135.246 103.607 133.334 103.607 130.976C103.607 128.618 101.695 126.706 99.3371 126.706C96.9788 126.706 95.0671 128.618 95.0671 130.976C95.0671 133.334 96.9788 135.246 99.3371 135.246Z" fill="white"/>
<path d="M100.376 130.158C100.929 129.604 100.926 128.703 100.369 128.146C99.8112 127.589 98.9106 127.585 98.3571 128.139C97.8035 128.692 97.8067 129.593 98.3642 130.15C98.9216 130.708 99.8223 130.711 100.376 130.158Z" fill="#212529"/>
<path d="M110.068 120.44C110.256 115.815 106.269 111.897 101.164 111.69C96.0583 111.482 91.7673 115.064 91.5794 119.689C91.3915 124.315 94.9404 125.366 100.046 125.573C105.151 125.78 109.88 125.066 110.068 120.44Z" fill="#3AA4D9"/>
<path d="M117.269 140.574C118.091 139.869 116.936 137.175 114.688 134.557C112.441 131.939 109.953 130.389 109.131 131.095C108.309 131.8 109.465 134.494 111.712 137.112C113.96 139.73 116.448 141.28 117.269 140.574Z" fill="#212529"/>
<path d="M88.7462 137.112C90.9934 134.494 92.149 131.8 91.3272 131.095C90.5054 130.389 88.0175 131.939 85.7702 134.557C83.5229 137.175 82.3673 139.869 83.1891 140.574C84.0109 141.28 86.4989 139.73 88.7462 137.112Z" fill="#212529"/>
<path d="M103.643 138.956C103.778 139.698 103.613 140.465 103.183 141.085C102.754 141.706 102.095 142.131 101.352 142.266C100.61 142.401 99.8435 142.236 99.2227 141.806C98.6018 141.377 98.1771 140.718 98.0419 139.975L98.0409 139.97C97.7608 138.423 98.9569 137.875 100.504 137.595C102.051 137.315 103.363 137.409 103.643 138.956Z" fill="white"/>
<path d="M79.1041 147.322C78.9464 147.322 78.7951 147.259 78.6835 147.148C78.572 147.036 78.5093 146.885 78.5093 146.727V111.636C78.5093 111.478 78.572 111.327 78.6835 111.215C78.7951 111.104 78.9464 111.041 79.1041 111.041C79.2618 111.041 79.4131 111.104 79.5247 111.215C79.6362 111.327 79.6989 111.478 79.6989 111.636V146.727C79.6989 146.885 79.6362 147.036 79.5247 147.148C79.4131 147.259 79.2618 147.322 79.1041 147.322Z" fill="#CCCCCC"/>
<path d="M70.1826 178.845C70.0248 178.845 69.8736 178.782 69.762 178.671C69.6505 178.559 69.5878 178.408 69.5878 178.25V152.675C69.5878 152.517 69.6505 152.366 69.762 152.255C69.8736 152.143 70.0248 152.08 70.1826 152.08C70.3403 152.08 70.4916 152.143 70.6032 152.255C70.7147 152.366 70.7774 152.517 70.7774 152.675V178.25C70.7773 178.408 70.7147 178.559 70.6031 178.671C70.4916 178.782 70.3403 178.845 70.1826 178.845Z" fill="#CCCCCC"/>
<path d="M93.0811 157.731C92.9234 157.731 92.7721 157.668 92.6606 157.556C92.549 157.445 92.4864 157.294 92.4864 157.136V122.044C92.4864 121.887 92.549 121.735 92.6606 121.624C92.7721 121.512 92.9234 121.45 93.0811 121.45C93.2389 121.45 93.3902 121.512 93.5017 121.624C93.6132 121.735 93.6759 121.887 93.6759 122.044V157.136C93.6759 157.294 93.6132 157.445 93.5017 157.556C93.3902 157.668 93.2389 157.731 93.0811 157.731Z" fill="#CCCCCC"/>
<path d="M84.457 183.008C84.2993 183.008 84.148 182.945 84.0365 182.834C83.9249 182.722 83.8623 182.571 83.8622 182.413V168.139C83.8622 167.981 83.9249 167.83 84.0364 167.718C84.148 167.607 84.2993 167.544 84.457 167.544C84.6148 167.544 84.766 167.607 84.8776 167.718C84.9891 167.83 85.0518 167.981 85.0518 168.139V182.413C85.0518 182.571 84.9891 182.722 84.8776 182.834C84.766 182.945 84.6148 183.008 84.457 183.008Z" fill="#CCCCCC"/>
<path d="M96.6497 109.852C96.492 109.852 96.3407 109.789 96.2292 109.678C96.1177 109.566 96.055 109.415 96.055 109.257V94.9827C96.055 94.825 96.1176 94.6737 96.2292 94.5621C96.3407 94.4506 96.492 94.3879 96.6497 94.3879C96.8075 94.3879 96.9588 94.4506 97.0703 94.5621C97.1818 94.6737 97.2445 94.825 97.2445 94.9827V109.257C97.2445 109.415 97.1818 109.566 97.0703 109.678C96.9588 109.789 96.8075 109.852 96.6497 109.852Z" fill="#CCCCCC"/>
<path d="M66.9114 116.097C66.7536 116.097 66.6023 116.034 66.4908 115.923C66.3793 115.811 66.3166 115.66 66.3166 115.502V101.228C66.3166 101.07 66.3793 100.919 66.4908 100.807C66.6023 100.695 66.7536 100.633 66.9114 100.633C67.0691 100.633 67.2204 100.695 67.3319 100.807C67.4435 100.919 67.5061 101.07 67.5061 101.228V115.502C67.5061 115.66 67.4435 115.811 67.3319 115.923C67.2204 116.034 67.0691 116.097 66.9114 116.097Z" fill="#CCCCCC"/>
<path d="M118.656 117.584C118.498 117.584 118.347 117.521 118.236 117.41C118.124 117.298 118.061 117.147 118.061 116.989V102.715C118.061 102.557 118.124 102.406 118.236 102.294C118.347 102.183 118.498 102.12 118.656 102.12C118.814 102.12 118.965 102.183 119.077 102.294C119.188 102.406 119.251 102.557 119.251 102.715V116.989C119.251 117.147 119.188 117.298 119.077 117.41C118.965 117.521 118.814 117.584 118.656 117.584Z" fill="#CCCCCC"/>
<path d="M117.467 162.191C117.309 162.191 117.158 162.129 117.046 162.017C116.935 161.906 116.872 161.754 116.872 161.597V144.348C116.872 144.191 116.935 144.039 117.046 143.928C117.158 143.816 117.309 143.754 117.467 143.754C117.624 143.754 117.776 143.816 117.887 143.928C117.999 144.039 118.061 144.191 118.061 144.348V161.597C118.061 161.754 117.999 161.906 117.887 162.017C117.776 162.129 117.624 162.191 117.467 162.191Z" fill="#CCCCCC"/>
<path d="M105.571 177.358C105.414 177.358 105.262 177.295 105.151 177.184C105.039 177.072 104.977 176.921 104.976 176.763V151.188C104.976 151.031 105.039 150.879 105.151 150.768C105.262 150.656 105.414 150.594 105.571 150.594C105.729 150.594 105.88 150.656 105.992 150.768C106.103 150.879 106.166 151.031 106.166 151.188V176.763C106.166 176.921 106.103 177.072 105.992 177.184C105.88 177.295 105.729 177.358 105.571 177.358Z" fill="#CCCCCC"/>
<path d="M107.95 133.642C107.793 133.642 107.641 133.58 107.53 133.468C107.418 133.357 107.356 133.205 107.356 133.048V97.9563C107.356 97.7986 107.418 97.6473 107.53 97.5358C107.641 97.4242 107.793 97.3616 107.95 97.3616C108.108 97.3616 108.259 97.4242 108.371 97.5358C108.482 97.6473 108.545 97.7986 108.545 97.9563V133.048C108.545 133.205 108.482 133.357 108.371 133.468C108.259 133.58 108.108 133.642 107.95 133.642Z" fill="#CCCCCC"/>
<path d="M180.867 208.315C181.718 207.602 180.568 204.826 178.297 202.114C176.027 199.402 173.496 197.782 172.645 198.495C171.794 199.207 172.944 201.983 175.214 204.695C177.485 207.407 180.016 209.027 180.867 208.315Z" fill="#212529"/>
<path d="M175.284 205.231C177.521 198.52 173.894 191.267 167.184 189.031C160.473 186.794 153.22 190.42 150.983 197.131C148.746 203.841 152.373 211.094 159.083 213.331C165.794 215.568 173.047 211.941 175.284 205.231Z" fill="#212529"/>
<path d="M168.554 211.232H164.664V218.204H168.554V211.232Z" fill="#212529"/>
<path d="M160.773 211.232H156.882V218.204H160.773V211.232Z" fill="#212529"/>
<path d="M165.312 219.5C167.103 219.5 168.554 218.956 168.554 218.285C168.554 217.613 167.103 217.069 165.312 217.069C163.521 217.069 162.07 217.613 162.07 218.285C162.07 218.956 163.521 219.5 165.312 219.5Z" fill="#212529"/>
<path d="M157.53 219.338C159.321 219.338 160.773 218.794 160.773 218.122C160.773 217.451 159.321 216.906 157.53 216.906C155.74 216.906 154.288 217.451 154.288 218.122C154.288 218.794 155.74 219.338 157.53 219.338Z" fill="#212529"/>
<path d="M159.112 185.082C160.256 180.476 165.304 177.766 170.387 179.028C175.471 180.29 178.665 185.047 177.521 189.653C176.378 194.258 172.583 194.273 167.5 193.011C162.416 191.749 157.968 189.687 159.112 185.082Z" fill="#CCCCCC"/>
<path d="M154.494 197.982C154.97 196.979 152.765 194.937 149.569 193.422C146.374 191.906 143.398 191.491 142.922 192.494C142.446 193.497 144.651 195.539 147.847 197.055C151.042 198.57 154.018 198.985 154.494 197.982Z" fill="#212529"/>
<path d="M161.219 202.749C163.577 202.749 165.489 200.837 165.489 198.479C165.489 196.12 163.577 194.208 161.219 194.208C158.861 194.208 156.949 196.12 156.949 198.479C156.949 200.837 158.861 202.749 161.219 202.749Z" fill="white"/>
<path d="M159.464 198.371C160.25 198.371 160.887 197.734 160.887 196.948C160.887 196.162 160.25 195.524 159.464 195.524C158.678 195.524 158.041 196.162 158.041 196.948C158.041 197.734 158.678 198.371 159.464 198.371Z" fill="#212529"/>
<path d="M161.182 209.178C162.167 209.178 162.966 208.379 162.966 207.394C162.966 206.408 162.167 205.609 161.182 205.609C160.197 205.609 159.398 206.408 159.398 207.394C159.398 208.379 160.197 209.178 161.182 209.178Z" fill="white"/>
<path d="M199.703 219.586H129.52C129.441 219.586 129.366 219.555 129.31 219.499C129.254 219.444 129.223 219.368 129.223 219.289C129.223 219.21 129.254 219.135 129.31 219.079C129.366 219.023 129.441 218.992 129.52 218.992H199.703C199.781 218.992 199.857 219.023 199.913 219.079C199.969 219.135 200 219.21 200 219.289C200 219.368 199.969 219.444 199.913 219.499C199.857 219.555 199.781 219.586 199.703 219.586Z" fill="#212529"/>
</g>
<defs>
<clipPath id="clip0_4_11547">
<rect width="200" height="219.586" fill="white"/>
</clipPath>
</defs>
</svg>
