<svg width="21" height="18" viewBox="0 0 21 18" fill="none" xmlns="http://www.w3.org/2000/svg">
<path d="M19.5 9C19.5 8.40326 19.2629 7.83097 18.841 7.40901C18.419 6.98705 17.8467 6.75 17.25 6.75H13.5C13.5 7.54565 13.1839 8.30871 12.6213 8.87132C12.0587 9.43393 11.2956 9.75 10.5 9.75C9.70435 9.75 8.94129 9.43393 8.37868 8.87132C7.81607 8.30871 7.5 7.54565 7.5 6.75H3.75C3.15326 6.75 2.58097 6.98705 2.15901 7.40901C1.73705 7.83097 1.5 8.40326 1.5 9M19.5 9V15C19.5 15.5967 19.2629 16.169 18.841 16.591C18.419 17.0129 17.8467 17.25 17.25 17.25H3.75C3.15326 17.25 2.58097 17.0129 2.15901 16.591C1.73705 16.169 1.5 15.5967 1.5 15V9M19.5 9V6M1.5 9V6M19.5 6C19.5 5.40326 19.2629 4.83097 18.841 4.40901C18.419 3.98705 17.8467 3.75 17.25 3.75H3.75C3.15326 3.75 2.58097 3.98705 2.15901 4.40901C1.73705 4.83097 1.5 5.40326 1.5 6M19.5 6V3C19.5 2.40326 19.2629 1.83097 18.841 1.40901C18.419 0.987053 17.8467 0.75 17.25 0.75H3.75C3.15326 0.75 2.58097 0.987053 2.15901 1.40901C1.73705 1.83097 1.5 2.40326 1.5 3V6" stroke="#3AA4D9" stroke-width="1.5" stroke-linecap="round" stroke-linejoin="round"/>
</svg>
